%TF.GenerationSoftware,KiCad,Pcbnew,9.0.7+1*%
%TF.CreationDate,2026-02-23T09:22:15+00:00*%
%TF.ProjectId,ZSWatch-Dock,5a535761-7463-4682-9d44-6f636b2e6b69,+ (Unreleased)*%
%TF.SameCoordinates,Original*%
%TF.FileFunction,Soldermask,Bot*%
%TF.FilePolarity,Negative*%
%FSLAX46Y46*%
G04 Gerber Fmt 4.6, Leading zero omitted, Abs format (unit mm)*
G04 Created by KiCad (PCBNEW 9.0.7+1) date 2026-02-23 09:22:15*
%MOMM*%
%LPD*%
G01*
G04 APERTURE LIST*
G04 Aperture macros list*
%AMFreePoly0*
4,1,23,0.500000,-0.750000,0.000000,-0.750000,0.000000,-0.745722,-0.065263,-0.745722,-0.191342,-0.711940,-0.304381,-0.646677,-0.396677,-0.554381,-0.461940,-0.441342,-0.495722,-0.315263,-0.495722,-0.250000,-0.500000,-0.250000,-0.500000,0.250000,-0.495722,0.250000,-0.495722,0.315263,-0.461940,0.441342,-0.396677,0.554381,-0.304381,0.646677,-0.191342,0.711940,-0.065263,0.745722,0.000000,0.745722,
0.000000,0.750000,0.500000,0.750000,0.500000,-0.750000,0.500000,-0.750000,$1*%
%AMFreePoly1*
4,1,23,0.000000,0.745722,0.065263,0.745722,0.191342,0.711940,0.304381,0.646677,0.396677,0.554381,0.461940,0.441342,0.495722,0.315263,0.495722,0.250000,0.500000,0.250000,0.500000,-0.250000,0.495722,-0.250000,0.495722,-0.315263,0.461940,-0.441342,0.396677,-0.554381,0.304381,-0.646677,0.191342,-0.711940,0.065263,-0.745722,0.000000,-0.745722,0.000000,-0.750000,-0.500000,-0.750000,
-0.500000,0.750000,0.000000,0.750000,0.000000,0.745722,0.000000,0.745722,$1*%
G04 Aperture macros list end*
%ADD10C,0.800000*%
%ADD11C,6.400000*%
%ADD12C,0.650000*%
%ADD13O,0.650000X0.950000*%
%ADD14O,1.400000X0.800000*%
%ADD15R,1.700000X1.700000*%
%ADD16C,1.700000*%
%ADD17C,0.900000*%
%ADD18O,2.500000X1.000000*%
%ADD19FreePoly0,180.000000*%
%ADD20FreePoly1,180.000000*%
G04 APERTURE END LIST*
%TO.C,SB402*%
G36*
X192550000Y-127850000D02*
G01*
X192250000Y-127850000D01*
X192250000Y-129350000D01*
X192550000Y-129350000D01*
X192550000Y-127850000D01*
G37*
%TO.C,SB403*%
G36*
X192550000Y-130550000D02*
G01*
X192250000Y-130550000D01*
X192250000Y-132050000D01*
X192550000Y-132050000D01*
X192550000Y-130550000D01*
G37*
%TO.C,SB401*%
G36*
X192550000Y-125250000D02*
G01*
X192250000Y-125250000D01*
X192250000Y-126750000D01*
X192550000Y-126750000D01*
X192550000Y-125250000D01*
G37*
%TD*%
D10*
%TO.C,REF\u002A\u002A*%
X241300000Y-167100000D03*
X242002944Y-165402944D03*
X242002944Y-168797056D03*
X243700000Y-164700000D03*
D11*
X243700000Y-167100000D03*
D10*
X243700000Y-169500000D03*
X245397056Y-165402944D03*
X245397056Y-168797056D03*
X246100000Y-167100000D03*
%TD*%
D12*
%TO.C,X403*%
X239365000Y-151920000D03*
D13*
X239365000Y-144720000D03*
D14*
X246565000Y-152810000D03*
X240615000Y-152450000D03*
X240615000Y-144190000D03*
X246565000Y-143830000D03*
%TD*%
D15*
%TO.C,X405*%
X178925000Y-130285000D03*
D16*
X181465000Y-130285000D03*
%TD*%
D15*
%TO.C,X402*%
X213900000Y-168200000D03*
D16*
X211360000Y-168200000D03*
X208820000Y-168200000D03*
%TD*%
D10*
%TO.C,REF\u002A\u002A*%
X241300000Y-127100000D03*
X242002944Y-125402944D03*
X242002944Y-128797056D03*
X243700000Y-124700000D03*
D11*
X243700000Y-127100000D03*
D10*
X243700000Y-129500000D03*
X245397056Y-125402944D03*
X245397056Y-128797056D03*
X246100000Y-127100000D03*
%TD*%
%TO.C,REF\u002A\u002A*%
X169300000Y-167100000D03*
X170002944Y-165402944D03*
X170002944Y-168797056D03*
X171700000Y-164700000D03*
D11*
X171700000Y-167100000D03*
D10*
X171700000Y-169500000D03*
X173397056Y-165402944D03*
X173397056Y-168797056D03*
X174100000Y-167100000D03*
%TD*%
D17*
%TO.C,SW401*%
X192600000Y-167300000D03*
X195600000Y-167300000D03*
%TD*%
D18*
%TO.C,X404*%
X170100000Y-142825000D03*
X170100000Y-151375000D03*
%TD*%
D15*
%TO.C,J402*%
X216100000Y-125900000D03*
D16*
X216100000Y-128440000D03*
X216100000Y-130980000D03*
%TD*%
D10*
%TO.C,REF\u002A\u002A*%
X169300000Y-127100000D03*
X170002944Y-125402944D03*
X170002944Y-128797056D03*
X171700000Y-124700000D03*
D11*
X171700000Y-127100000D03*
D10*
X171700000Y-129500000D03*
X173397056Y-125402944D03*
X173397056Y-128797056D03*
X174100000Y-127100000D03*
%TD*%
D19*
%TO.C,SB402*%
X193050000Y-128600000D03*
D20*
X191750000Y-128600000D03*
%TD*%
D19*
%TO.C,SB403*%
X193050000Y-131300000D03*
D20*
X191750000Y-131300000D03*
%TD*%
D19*
%TO.C,SB401*%
X193050000Y-126000000D03*
D20*
X191750000Y-126000000D03*
%TD*%
M02*
