M48
; DRILL file {KiCad 9.0.7+1} date 2026-02-23T09:22:17+0000
; FORMAT={-:-/ absolute / metric / decimal}
; #@! TF.CreationDate,2026-02-23T09:22:17+00:00
; #@! TF.GenerationSoftware,Kicad,Pcbnew,9.0.7+1
; #@! TF.FileFunction,Plated,1,4,PTH
FMAT,2
METRIC
; #@! TA.AperFunction,Plated,PTH,ViaDrill
T1C0.250
; #@! TA.AperFunction,Plated,PTH,ViaDrill
T2C0.400
; #@! TA.AperFunction,Plated,PTH,ComponentDrill
T3C0.500
; #@! TA.AperFunction,Plated,PTH,ComponentDrill
T4C1.000
; #@! TA.AperFunction,Plated,PTH,ComponentDrill
T5C3.200
%
G90
G05
T1
X170.3Y-143.8
X170.3Y-150.4
X171.55Y-148.85
X172.1Y-143.8
X173.2Y-143.8
X174.89Y-147.325
X175.4Y-149.3
X175.7Y-146.515
X178.125Y-167.525
X178.805Y-147.052
X181.8Y-157.85
X182.6Y-156.5
X183.0Y-131.1
X185.1Y-134.0
X185.9Y-128.2
X187.3Y-132.175
X187.6Y-129.042
X187.65Y-129.65
X188.0Y-127.2
X189.65Y-127.2
X189.65Y-130.3
X189.65Y-136.7
X190.6Y-129.042
X192.287Y-130.0
X193.2Y-139.9
X193.2Y-150.9
X193.9Y-129.7
X194.4Y-129.2
X194.85Y-166.7
X195.2Y-128.642
X195.2Y-133.2
X195.5Y-148.25
X195.6Y-156.5
X195.6Y-165.54
X196.175Y-150.7
X196.412Y-125.2
X196.6Y-127.2
X198.15Y-130.95
X198.6Y-126.3
X198.6Y-129.5
X198.6Y-146.85
X200.7Y-168.412
X201.5Y-164.575
X203.3Y-126.3
X203.5Y-130.125
X204.7Y-150.475
X205.425Y-151.175
X207.64Y-128.0
X208.91Y-128.8
X208.975Y-152.025
X212.175Y-144.9
X213.7Y-144.3
X213.725Y-150.3
X214.4Y-146.6
X216.05Y-142.725
X216.1Y-136.7
X217.45Y-135.925
X218.825Y-150.9
X219.662Y-143.1
X219.7Y-168.412
X220.289Y-142.474
X220.8Y-150.037
X221.6Y-141.5
X222.2Y-153.0
X222.45Y-135.725
X223.125Y-141.475
X223.925Y-135.775
X224.15Y-150.9
X225.8Y-146.725
X226.475Y-133.3
X226.6Y-138.2
X226.6Y-139.7
X227.375Y-140.925
X227.5Y-144.525
X229.2Y-144.6
X230.0Y-140.7
X232.865Y-143.3
X233.325Y-148.9
X234.135Y-142.3
X234.3Y-147.925
X235.4Y-141.4
X235.562Y-148.463
X237.0Y-142.8
X237.3Y-147.07
X237.3Y-148.463
X237.3Y-149.57
X238.0Y-148.57
X238.5Y-153.6
X239.325Y-154.6
X239.37Y-149.07
X239.52Y-145.82
X239.57Y-151.07
X241.1Y-148.32
X241.4Y-142.1
T2
X235.405Y-146.105
T3
X169.3Y-127.1
X169.3Y-167.1
X170.003Y-125.403
X170.003Y-128.797
X170.003Y-165.403
X170.003Y-168.797
X171.7Y-124.7
X171.7Y-129.5
X171.7Y-164.7
X171.7Y-169.5
X173.397Y-125.403
X173.397Y-128.797
X173.397Y-165.403
X173.397Y-168.797
X174.1Y-127.1
X174.1Y-167.1
X241.3Y-127.1
X241.3Y-167.1
X242.003Y-125.403
X242.003Y-128.797
X242.003Y-165.403
X242.003Y-168.797
X243.7Y-124.7
X243.7Y-129.5
X243.7Y-164.7
X243.7Y-169.5
X245.397Y-125.403
X245.397Y-128.797
X245.397Y-165.403
X245.397Y-168.797
X246.1Y-127.1
X246.1Y-167.1
T4
X178.925Y-130.285
X181.465Y-130.285
X208.82Y-168.2
X211.36Y-168.2
X213.9Y-168.2
X216.1Y-125.9
X216.1Y-128.44
X216.1Y-130.98
T5
X171.7Y-127.1
X171.7Y-167.1
X243.7Y-127.1
X243.7Y-167.1
T3
G00X169.35Y-142.825
M15
G01X170.85Y-142.825
M16
G05
G00X169.35Y-151.375
M15
G01X170.85Y-151.375
M16
G05
G00X240.315Y-144.19
M15
G01X240.915Y-144.19
M16
G05
G00X240.315Y-152.45
M15
G01X240.915Y-152.45
M16
G05
G00X246.265Y-143.83
M15
G01X246.865Y-143.83
M16
G05
G00X246.265Y-152.81
M15
G01X246.865Y-152.81
M16
G05
M30
