<?xml version="1.0" standalone="no"?>
 <!DOCTYPE svg PUBLIC "-//W3C//DTD SVG 1.1//EN" 
 "http://www.w3.org/Graphics/SVG/1.1/DTD/svg11.dtd"> 
<svg
  xmlns:svg="http://www.w3.org/2000/svg"
  xmlns="http://www.w3.org/2000/svg"
  xmlns:xlink="http://www.w3.org/1999/xlink"
  version="1.1"
  width="419.9890mm" height="297.0022mm" viewBox="0.0000 0.0000 419.9890 297.0022">
<title>SVG Image created as ZSWatch-Dock-User_4.svg date 2026/02/23 09:25:07 </title>
  <desc>Image generated by PCBNEW </desc>
<g style="fill:#000000; fill-opacity:1.0000;stroke:#000000; stroke-opacity:1.0000;
stroke-linecap:round; stroke-linejoin:round;"
 transform="translate(0 0) scale(1 1)">
</g>
<g style="fill:none; 
stroke:#000000; stroke-width:0.1500; stroke-opacity:1; 
stroke-linecap:round; stroke-linejoin:round;">
<path d="M299.9890 253.0022
L407.9890 253.0022
L407.9890 285.0022
L299.9890 285.0022
L299.9890 253.0022
" />
</g>
<g style="fill:none; 
stroke:#000000; stroke-width:0.1500; stroke-opacity:1; 
stroke-linecap:round; stroke-linejoin:round;">
<path d="M10.0000 10.0000
L409.9890 10.0000
L409.9890 287.0022
L10.0000 287.0022
L10.0000 10.0000
" />
</g>
<g style="fill:none; 
stroke:#000000; stroke-width:0.1500; stroke-opacity:1; 
stroke-linecap:round; stroke-linejoin:round;">
<path d="M12.0000 12.0000
L407.9890 12.0000
L407.9890 285.0022
L12.0000 285.0022
L12.0000 12.0000
" />
</g>
<g style="fill:none; 
stroke:#000000; stroke-width:0.1500; stroke-opacity:1; 
stroke-linecap:round; stroke-linejoin:round;">
<path d="M60.0000 12.0000
L60.0000 10.0000
" />
</g>
<g style="fill:none; 
stroke:#000000; stroke-width:0.1500; stroke-opacity:1; 
stroke-linecap:round; stroke-linejoin:round;">
<path d="M110.0000 12.0000
L110.0000 10.0000
" />
</g>
<g style="fill:none; 
stroke:#000000; stroke-width:0.1500; stroke-opacity:1; 
stroke-linecap:round; stroke-linejoin:round;">
<path d="M160.0000 12.0000
L160.0000 10.0000
" />
</g>
<g style="fill:none; 
stroke:#000000; stroke-width:0.1500; stroke-opacity:1; 
stroke-linecap:round; stroke-linejoin:round;">
<path d="M210.0000 12.0000
L210.0000 10.0000
" />
</g>
<g style="fill:none; 
stroke:#000000; stroke-width:0.1500; stroke-opacity:1; 
stroke-linecap:round; stroke-linejoin:round;">
<path d="M260.0000 12.0000
L260.0000 10.0000
" />
</g>
<g style="fill:none; 
stroke:#000000; stroke-width:0.1500; stroke-opacity:1; 
stroke-linecap:round; stroke-linejoin:round;">
<path d="M310.0000 12.0000
L310.0000 10.0000
" />
</g>
<g style="fill:none; 
stroke:#000000; stroke-width:0.1500; stroke-opacity:1; 
stroke-linecap:round; stroke-linejoin:round;">
<path d="M360.0000 12.0000
L360.0000 10.0000
" />
</g>
<g style="fill:none; 
stroke:#000000; stroke-width:0.1500; stroke-opacity:1; 
stroke-linecap:round; stroke-linejoin:round;">
<text x="35.0000" y="11.6500"
textLength="1.4281" font-size="1.7333" lengthAdjust="spacingAndGlyphs"
text-anchor="start" opacity="0" stroke-opacity="0">1</text>
<g class="stroked-text"><desc>1</desc>
<path d="M36.0892 11.5936
L35.3463 11.5936
" />
<path d="M35.7177 11.5936
L35.7177 10.2936
" />
<path d="M35.7177 10.2936
L35.5939 10.4793
" />
<path d="M35.5939 10.4793
L35.4701 10.6031
" />
<path d="M35.4701 10.6031
L35.3463 10.6650
" />
</g></g>
<g style="fill:none; 
stroke:#000000; stroke-width:0.1500; stroke-opacity:1; 
stroke-linecap:round; stroke-linejoin:round;">
<text x="85.0000" y="11.6500"
textLength="1.4281" font-size="1.7333" lengthAdjust="spacingAndGlyphs"
text-anchor="start" opacity="0" stroke-opacity="0">2</text>
<g class="stroked-text"><desc>2</desc>
<path d="M85.3463 10.4174
L85.4082 10.3555
" />
<path d="M85.4082 10.3555
L85.5320 10.2936
" />
<path d="M85.5320 10.2936
L85.8415 10.2936
" />
<path d="M85.8415 10.2936
L85.9654 10.3555
" />
<path d="M85.9654 10.3555
L86.0273 10.4174
" />
<path d="M86.0273 10.4174
L86.0892 10.5412
" />
<path d="M86.0892 10.5412
L86.0892 10.6650
" />
<path d="M86.0892 10.6650
L86.0273 10.8507
" />
<path d="M86.0273 10.8507
L85.2844 11.5936
" />
<path d="M85.2844 11.5936
L86.0892 11.5936
" />
</g></g>
<g style="fill:none; 
stroke:#000000; stroke-width:0.1500; stroke-opacity:1; 
stroke-linecap:round; stroke-linejoin:round;">
<text x="135.0000" y="11.6500"
textLength="1.4281" font-size="1.7333" lengthAdjust="spacingAndGlyphs"
text-anchor="start" opacity="0" stroke-opacity="0">3</text>
<g class="stroked-text"><desc>3</desc>
<path d="M135.2844 10.2936
L136.0892 10.2936
" />
<path d="M136.0892 10.2936
L135.6558 10.7888
" />
<path d="M135.6558 10.7888
L135.8415 10.7888
" />
<path d="M135.8415 10.7888
L135.9654 10.8507
" />
<path d="M135.9654 10.8507
L136.0273 10.9127
" />
<path d="M136.0273 10.9127
L136.0892 11.0365
" />
<path d="M136.0892 11.0365
L136.0892 11.3460
" />
<path d="M136.0892 11.3460
L136.0273 11.4698
" />
<path d="M136.0273 11.4698
L135.9654 11.5317
" />
<path d="M135.9654 11.5317
L135.8415 11.5936
" />
<path d="M135.8415 11.5936
L135.4701 11.5936
" />
<path d="M135.4701 11.5936
L135.3463 11.5317
" />
<path d="M135.3463 11.5317
L135.2844 11.4698
" />
</g></g>
<g style="fill:none; 
stroke:#000000; stroke-width:0.1500; stroke-opacity:1; 
stroke-linecap:round; stroke-linejoin:round;">
<text x="185.0000" y="11.6500"
textLength="1.4281" font-size="1.7333" lengthAdjust="spacingAndGlyphs"
text-anchor="start" opacity="0" stroke-opacity="0">4</text>
<g class="stroked-text"><desc>4</desc>
<path d="M185.9654 10.7269
L185.9654 11.5936
" />
<path d="M185.6558 10.2317
L185.3463 11.1603
" />
<path d="M185.3463 11.1603
L186.1511 11.1603
" />
</g></g>
<g style="fill:none; 
stroke:#000000; stroke-width:0.1500; stroke-opacity:1; 
stroke-linecap:round; stroke-linejoin:round;">
<text x="235.0000" y="11.6500"
textLength="1.4281" font-size="1.7333" lengthAdjust="spacingAndGlyphs"
text-anchor="start" opacity="0" stroke-opacity="0">5</text>
<g class="stroked-text"><desc>5</desc>
<path d="M236.0273 10.2936
L235.4082 10.2936
" />
<path d="M235.4082 10.2936
L235.3463 10.9127
" />
<path d="M235.3463 10.9127
L235.4082 10.8507
" />
<path d="M235.4082 10.8507
L235.5320 10.7888
" />
<path d="M235.5320 10.7888
L235.8415 10.7888
" />
<path d="M235.8415 10.7888
L235.9654 10.8507
" />
<path d="M235.9654 10.8507
L236.0273 10.9127
" />
<path d="M236.0273 10.9127
L236.0892 11.0365
" />
<path d="M236.0892 11.0365
L236.0892 11.3460
" />
<path d="M236.0892 11.3460
L236.0273 11.4698
" />
<path d="M236.0273 11.4698
L235.9654 11.5317
" />
<path d="M235.9654 11.5317
L235.8415 11.5936
" />
<path d="M235.8415 11.5936
L235.5320 11.5936
" />
<path d="M235.5320 11.5936
L235.4082 11.5317
" />
<path d="M235.4082 11.5317
L235.3463 11.4698
" />
</g></g>
<g style="fill:none; 
stroke:#000000; stroke-width:0.1500; stroke-opacity:1; 
stroke-linecap:round; stroke-linejoin:round;">
<text x="285.0000" y="11.6500"
textLength="1.4281" font-size="1.7333" lengthAdjust="spacingAndGlyphs"
text-anchor="start" opacity="0" stroke-opacity="0">6</text>
<g class="stroked-text"><desc>6</desc>
<path d="M285.9654 10.2936
L285.7177 10.2936
" />
<path d="M285.7177 10.2936
L285.5939 10.3555
" />
<path d="M285.5939 10.3555
L285.5320 10.4174
" />
<path d="M285.5320 10.4174
L285.4082 10.6031
" />
<path d="M285.4082 10.6031
L285.3463 10.8507
" />
<path d="M285.3463 10.8507
L285.3463 11.3460
" />
<path d="M285.3463 11.3460
L285.4082 11.4698
" />
<path d="M285.4082 11.4698
L285.4701 11.5317
" />
<path d="M285.4701 11.5317
L285.5939 11.5936
" />
<path d="M285.5939 11.5936
L285.8415 11.5936
" />
<path d="M285.8415 11.5936
L285.9654 11.5317
" />
<path d="M285.9654 11.5317
L286.0273 11.4698
" />
<path d="M286.0273 11.4698
L286.0892 11.3460
" />
<path d="M286.0892 11.3460
L286.0892 11.0365
" />
<path d="M286.0892 11.0365
L286.0273 10.9127
" />
<path d="M286.0273 10.9127
L285.9654 10.8507
" />
<path d="M285.9654 10.8507
L285.8415 10.7888
" />
<path d="M285.8415 10.7888
L285.5939 10.7888
" />
<path d="M285.5939 10.7888
L285.4701 10.8507
" />
<path d="M285.4701 10.8507
L285.4082 10.9127
" />
<path d="M285.4082 10.9127
L285.3463 11.0365
" />
</g></g>
<g style="fill:none; 
stroke:#000000; stroke-width:0.1500; stroke-opacity:1; 
stroke-linecap:round; stroke-linejoin:round;">
<text x="335.0000" y="11.6500"
textLength="1.4281" font-size="1.7333" lengthAdjust="spacingAndGlyphs"
text-anchor="start" opacity="0" stroke-opacity="0">7</text>
<g class="stroked-text"><desc>7</desc>
<path d="M335.2844 10.2936
L336.1511 10.2936
" />
<path d="M336.1511 10.2936
L335.5939 11.5936
" />
</g></g>
<g style="fill:none; 
stroke:#000000; stroke-width:0.1500; stroke-opacity:1; 
stroke-linecap:round; stroke-linejoin:round;">
<text x="385.0000" y="11.6500"
textLength="1.4281" font-size="1.7333" lengthAdjust="spacingAndGlyphs"
text-anchor="start" opacity="0" stroke-opacity="0">8</text>
<g class="stroked-text"><desc>8</desc>
<path d="M385.5939 10.8507
L385.4701 10.7888
" />
<path d="M385.4701 10.7888
L385.4082 10.7269
" />
<path d="M385.4082 10.7269
L385.3463 10.6031
" />
<path d="M385.3463 10.6031
L385.3463 10.5412
" />
<path d="M385.3463 10.5412
L385.4082 10.4174
" />
<path d="M385.4082 10.4174
L385.4701 10.3555
" />
<path d="M385.4701 10.3555
L385.5939 10.2936
" />
<path d="M385.5939 10.2936
L385.8415 10.2936
" />
<path d="M385.8415 10.2936
L385.9654 10.3555
" />
<path d="M385.9654 10.3555
L386.0273 10.4174
" />
<path d="M386.0273 10.4174
L386.0892 10.5412
" />
<path d="M386.0892 10.5412
L386.0892 10.6031
" />
<path d="M386.0892 10.6031
L386.0273 10.7269
" />
<path d="M386.0273 10.7269
L385.9654 10.7888
" />
<path d="M385.9654 10.7888
L385.8415 10.8507
" />
<path d="M385.8415 10.8507
L385.5939 10.8507
" />
<path d="M385.5939 10.8507
L385.4701 10.9127
" />
<path d="M385.4701 10.9127
L385.4082 10.9746
" />
<path d="M385.4082 10.9746
L385.3463 11.0984
" />
<path d="M385.3463 11.0984
L385.3463 11.3460
" />
<path d="M385.3463 11.3460
L385.4082 11.4698
" />
<path d="M385.4082 11.4698
L385.4701 11.5317
" />
<path d="M385.4701 11.5317
L385.5939 11.5936
" />
<path d="M385.5939 11.5936
L385.8415 11.5936
" />
<path d="M385.8415 11.5936
L385.9654 11.5317
" />
<path d="M385.9654 11.5317
L386.0273 11.4698
" />
<path d="M386.0273 11.4698
L386.0892 11.3460
" />
<path d="M386.0892 11.3460
L386.0892 11.0984
" />
<path d="M386.0892 11.0984
L386.0273 10.9746
" />
<path d="M386.0273 10.9746
L385.9654 10.9127
" />
<path d="M385.9654 10.9127
L385.8415 10.8507
" />
</g></g>
<g style="fill:none; 
stroke:#000000; stroke-width:0.1500; stroke-opacity:1; 
stroke-linecap:round; stroke-linejoin:round;">
<path d="M60.0000 285.0022
L60.0000 287.0022
" />
</g>
<g style="fill:none; 
stroke:#000000; stroke-width:0.1500; stroke-opacity:1; 
stroke-linecap:round; stroke-linejoin:round;">
<path d="M110.0000 285.0022
L110.0000 287.0022
" />
</g>
<g style="fill:none; 
stroke:#000000; stroke-width:0.1500; stroke-opacity:1; 
stroke-linecap:round; stroke-linejoin:round;">
<path d="M160.0000 285.0022
L160.0000 287.0022
" />
</g>
<g style="fill:none; 
stroke:#000000; stroke-width:0.1500; stroke-opacity:1; 
stroke-linecap:round; stroke-linejoin:round;">
<path d="M210.0000 285.0022
L210.0000 287.0022
" />
</g>
<g style="fill:none; 
stroke:#000000; stroke-width:0.1500; stroke-opacity:1; 
stroke-linecap:round; stroke-linejoin:round;">
<path d="M260.0000 285.0022
L260.0000 287.0022
" />
</g>
<g style="fill:none; 
stroke:#000000; stroke-width:0.1500; stroke-opacity:1; 
stroke-linecap:round; stroke-linejoin:round;">
<path d="M310.0000 285.0022
L310.0000 287.0022
" />
</g>
<g style="fill:none; 
stroke:#000000; stroke-width:0.1500; stroke-opacity:1; 
stroke-linecap:round; stroke-linejoin:round;">
<path d="M360.0000 285.0022
L360.0000 287.0022
" />
</g>
<g style="fill:none; 
stroke:#000000; stroke-width:0.1500; stroke-opacity:1; 
stroke-linecap:round; stroke-linejoin:round;">
<text x="35.0000" y="286.6522"
textLength="1.4281" font-size="1.7333" lengthAdjust="spacingAndGlyphs"
text-anchor="start" opacity="0" stroke-opacity="0">1</text>
<g class="stroked-text"><desc>1</desc>
<path d="M36.0892 286.5958
L35.3463 286.5958
" />
<path d="M35.7177 286.5958
L35.7177 285.2958
" />
<path d="M35.7177 285.2958
L35.5939 285.4815
" />
<path d="M35.5939 285.4815
L35.4701 285.6053
" />
<path d="M35.4701 285.6053
L35.3463 285.6672
" />
</g></g>
<g style="fill:none; 
stroke:#000000; stroke-width:0.1500; stroke-opacity:1; 
stroke-linecap:round; stroke-linejoin:round;">
<text x="85.0000" y="286.6522"
textLength="1.4281" font-size="1.7333" lengthAdjust="spacingAndGlyphs"
text-anchor="start" opacity="0" stroke-opacity="0">2</text>
<g class="stroked-text"><desc>2</desc>
<path d="M85.3463 285.4196
L85.4082 285.3577
" />
<path d="M85.4082 285.3577
L85.5320 285.2958
" />
<path d="M85.5320 285.2958
L85.8415 285.2958
" />
<path d="M85.8415 285.2958
L85.9654 285.3577
" />
<path d="M85.9654 285.3577
L86.0273 285.4196
" />
<path d="M86.0273 285.4196
L86.0892 285.5434
" />
<path d="M86.0892 285.5434
L86.0892 285.6672
" />
<path d="M86.0892 285.6672
L86.0273 285.8529
" />
<path d="M86.0273 285.8529
L85.2844 286.5958
" />
<path d="M85.2844 286.5958
L86.0892 286.5958
" />
</g></g>
<g style="fill:none; 
stroke:#000000; stroke-width:0.1500; stroke-opacity:1; 
stroke-linecap:round; stroke-linejoin:round;">
<text x="135.0000" y="286.6522"
textLength="1.4281" font-size="1.7333" lengthAdjust="spacingAndGlyphs"
text-anchor="start" opacity="0" stroke-opacity="0">3</text>
<g class="stroked-text"><desc>3</desc>
<path d="M135.2844 285.2958
L136.0892 285.2958
" />
<path d="M136.0892 285.2958
L135.6558 285.7910
" />
<path d="M135.6558 285.7910
L135.8415 285.7910
" />
<path d="M135.8415 285.7910
L135.9654 285.8529
" />
<path d="M135.9654 285.8529
L136.0273 285.9149
" />
<path d="M136.0273 285.9149
L136.0892 286.0387
" />
<path d="M136.0892 286.0387
L136.0892 286.3482
" />
<path d="M136.0892 286.3482
L136.0273 286.4720
" />
<path d="M136.0273 286.4720
L135.9654 286.5339
" />
<path d="M135.9654 286.5339
L135.8415 286.5958
" />
<path d="M135.8415 286.5958
L135.4701 286.5958
" />
<path d="M135.4701 286.5958
L135.3463 286.5339
" />
<path d="M135.3463 286.5339
L135.2844 286.4720
" />
</g></g>
<g style="fill:none; 
stroke:#000000; stroke-width:0.1500; stroke-opacity:1; 
stroke-linecap:round; stroke-linejoin:round;">
<text x="185.0000" y="286.6522"
textLength="1.4281" font-size="1.7333" lengthAdjust="spacingAndGlyphs"
text-anchor="start" opacity="0" stroke-opacity="0">4</text>
<g class="stroked-text"><desc>4</desc>
<path d="M185.9654 285.7291
L185.9654 286.5958
" />
<path d="M185.6558 285.2339
L185.3463 286.1625
" />
<path d="M185.3463 286.1625
L186.1511 286.1625
" />
</g></g>
<g style="fill:none; 
stroke:#000000; stroke-width:0.1500; stroke-opacity:1; 
stroke-linecap:round; stroke-linejoin:round;">
<text x="235.0000" y="286.6522"
textLength="1.4281" font-size="1.7333" lengthAdjust="spacingAndGlyphs"
text-anchor="start" opacity="0" stroke-opacity="0">5</text>
<g class="stroked-text"><desc>5</desc>
<path d="M236.0273 285.2958
L235.4082 285.2958
" />
<path d="M235.4082 285.2958
L235.3463 285.9149
" />
<path d="M235.3463 285.9149
L235.4082 285.8529
" />
<path d="M235.4082 285.8529
L235.5320 285.7910
" />
<path d="M235.5320 285.7910
L235.8415 285.7910
" />
<path d="M235.8415 285.7910
L235.9654 285.8529
" />
<path d="M235.9654 285.8529
L236.0273 285.9149
" />
<path d="M236.0273 285.9149
L236.0892 286.0387
" />
<path d="M236.0892 286.0387
L236.0892 286.3482
" />
<path d="M236.0892 286.3482
L236.0273 286.4720
" />
<path d="M236.0273 286.4720
L235.9654 286.5339
" />
<path d="M235.9654 286.5339
L235.8415 286.5958
" />
<path d="M235.8415 286.5958
L235.5320 286.5958
" />
<path d="M235.5320 286.5958
L235.4082 286.5339
" />
<path d="M235.4082 286.5339
L235.3463 286.4720
" />
</g></g>
<g style="fill:none; 
stroke:#000000; stroke-width:0.1500; stroke-opacity:1; 
stroke-linecap:round; stroke-linejoin:round;">
<text x="285.0000" y="286.6522"
textLength="1.4281" font-size="1.7333" lengthAdjust="spacingAndGlyphs"
text-anchor="start" opacity="0" stroke-opacity="0">6</text>
<g class="stroked-text"><desc>6</desc>
<path d="M285.9654 285.2958
L285.7177 285.2958
" />
<path d="M285.7177 285.2958
L285.5939 285.3577
" />
<path d="M285.5939 285.3577
L285.5320 285.4196
" />
<path d="M285.5320 285.4196
L285.4082 285.6053
" />
<path d="M285.4082 285.6053
L285.3463 285.8529
" />
<path d="M285.3463 285.8529
L285.3463 286.3482
" />
<path d="M285.3463 286.3482
L285.4082 286.4720
" />
<path d="M285.4082 286.4720
L285.4701 286.5339
" />
<path d="M285.4701 286.5339
L285.5939 286.5958
" />
<path d="M285.5939 286.5958
L285.8415 286.5958
" />
<path d="M285.8415 286.5958
L285.9654 286.5339
" />
<path d="M285.9654 286.5339
L286.0273 286.4720
" />
<path d="M286.0273 286.4720
L286.0892 286.3482
" />
<path d="M286.0892 286.3482
L286.0892 286.0387
" />
<path d="M286.0892 286.0387
L286.0273 285.9149
" />
<path d="M286.0273 285.9149
L285.9654 285.8529
" />
<path d="M285.9654 285.8529
L285.8415 285.7910
" />
<path d="M285.8415 285.7910
L285.5939 285.7910
" />
<path d="M285.5939 285.7910
L285.4701 285.8529
" />
<path d="M285.4701 285.8529
L285.4082 285.9149
" />
<path d="M285.4082 285.9149
L285.3463 286.0387
" />
</g></g>
<g style="fill:none; 
stroke:#000000; stroke-width:0.1500; stroke-opacity:1; 
stroke-linecap:round; stroke-linejoin:round;">
<text x="335.0000" y="286.6522"
textLength="1.4281" font-size="1.7333" lengthAdjust="spacingAndGlyphs"
text-anchor="start" opacity="0" stroke-opacity="0">7</text>
<g class="stroked-text"><desc>7</desc>
<path d="M335.2844 285.2958
L336.1511 285.2958
" />
<path d="M336.1511 285.2958
L335.5939 286.5958
" />
</g></g>
<g style="fill:none; 
stroke:#000000; stroke-width:0.1500; stroke-opacity:1; 
stroke-linecap:round; stroke-linejoin:round;">
<text x="385.0000" y="286.6522"
textLength="1.4281" font-size="1.7333" lengthAdjust="spacingAndGlyphs"
text-anchor="start" opacity="0" stroke-opacity="0">8</text>
<g class="stroked-text"><desc>8</desc>
<path d="M385.5939 285.8529
L385.4701 285.7910
" />
<path d="M385.4701 285.7910
L385.4082 285.7291
" />
<path d="M385.4082 285.7291
L385.3463 285.6053
" />
<path d="M385.3463 285.6053
L385.3463 285.5434
" />
<path d="M385.3463 285.5434
L385.4082 285.4196
" />
<path d="M385.4082 285.4196
L385.4701 285.3577
" />
<path d="M385.4701 285.3577
L385.5939 285.2958
" />
<path d="M385.5939 285.2958
L385.8415 285.2958
" />
<path d="M385.8415 285.2958
L385.9654 285.3577
" />
<path d="M385.9654 285.3577
L386.0273 285.4196
" />
<path d="M386.0273 285.4196
L386.0892 285.5434
" />
<path d="M386.0892 285.5434
L386.0892 285.6053
" />
<path d="M386.0892 285.6053
L386.0273 285.7291
" />
<path d="M386.0273 285.7291
L385.9654 285.7910
" />
<path d="M385.9654 285.7910
L385.8415 285.8529
" />
<path d="M385.8415 285.8529
L385.5939 285.8529
" />
<path d="M385.5939 285.8529
L385.4701 285.9149
" />
<path d="M385.4701 285.9149
L385.4082 285.9768
" />
<path d="M385.4082 285.9768
L385.3463 286.1006
" />
<path d="M385.3463 286.1006
L385.3463 286.3482
" />
<path d="M385.3463 286.3482
L385.4082 286.4720
" />
<path d="M385.4082 286.4720
L385.4701 286.5339
" />
<path d="M385.4701 286.5339
L385.5939 286.5958
" />
<path d="M385.5939 286.5958
L385.8415 286.5958
" />
<path d="M385.8415 286.5958
L385.9654 286.5339
" />
<path d="M385.9654 286.5339
L386.0273 286.4720
" />
<path d="M386.0273 286.4720
L386.0892 286.3482
" />
<path d="M386.0892 286.3482
L386.0892 286.1006
" />
<path d="M386.0892 286.1006
L386.0273 285.9768
" />
<path d="M386.0273 285.9768
L385.9654 285.9149
" />
<path d="M385.9654 285.9149
L385.8415 285.8529
" />
</g></g>
<g style="fill:none; 
stroke:#000000; stroke-width:0.1500; stroke-opacity:1; 
stroke-linecap:round; stroke-linejoin:round;">
<path d="M10.0000 60.0000
L12.0000 60.0000
" />
</g>
<g style="fill:none; 
stroke:#000000; stroke-width:0.1500; stroke-opacity:1; 
stroke-linecap:round; stroke-linejoin:round;">
<path d="M10.0000 110.0000
L12.0000 110.0000
" />
</g>
<g style="fill:none; 
stroke:#000000; stroke-width:0.1500; stroke-opacity:1; 
stroke-linecap:round; stroke-linejoin:round;">
<path d="M10.0000 160.0000
L12.0000 160.0000
" />
</g>
<g style="fill:none; 
stroke:#000000; stroke-width:0.1500; stroke-opacity:1; 
stroke-linecap:round; stroke-linejoin:round;">
<path d="M10.0000 210.0000
L12.0000 210.0000
" />
</g>
<g style="fill:none; 
stroke:#000000; stroke-width:0.1500; stroke-opacity:1; 
stroke-linecap:round; stroke-linejoin:round;">
<path d="M10.0000 260.0000
L12.0000 260.0000
" />
</g>
<g style="fill:none; 
stroke:#000000; stroke-width:0.1500; stroke-opacity:1; 
stroke-linecap:round; stroke-linejoin:round;">
<text x="11.0000" y="35.6500"
textLength="1.3043" font-size="1.7333" lengthAdjust="spacingAndGlyphs"
text-anchor="middle" opacity="0" stroke-opacity="0">A</text>
<g class="stroked-text"><desc>A</desc>
<path d="M10.6905 35.2222
L11.3095 35.2222
" />
<path d="M10.5667 35.5936
L11.0000 34.2936
" />
<path d="M11.0000 34.2936
L11.4333 35.5936
" />
</g></g>
<g style="fill:none; 
stroke:#000000; stroke-width:0.1500; stroke-opacity:1; 
stroke-linecap:round; stroke-linejoin:round;">
<text x="11.0000" y="85.6500"
textLength="1.4900" font-size="1.7333" lengthAdjust="spacingAndGlyphs"
text-anchor="middle" opacity="0" stroke-opacity="0">B</text>
<g class="stroked-text"><desc>B</desc>
<path d="M11.0929 84.9127
L11.2786 84.9746
" />
<path d="M11.2786 84.9746
L11.3405 85.0365
" />
<path d="M11.3405 85.0365
L11.4024 85.1603
" />
<path d="M11.4024 85.1603
L11.4024 85.3460
" />
<path d="M11.4024 85.3460
L11.3405 85.4698
" />
<path d="M11.3405 85.4698
L11.2786 85.5317
" />
<path d="M11.2786 85.5317
L11.1548 85.5936
" />
<path d="M11.1548 85.5936
L10.6595 85.5936
" />
<path d="M10.6595 85.5936
L10.6595 84.2936
" />
<path d="M10.6595 84.2936
L11.0929 84.2936
" />
<path d="M11.0929 84.2936
L11.2167 84.3555
" />
<path d="M11.2167 84.3555
L11.2786 84.4174
" />
<path d="M11.2786 84.4174
L11.3405 84.5412
" />
<path d="M11.3405 84.5412
L11.3405 84.6650
" />
<path d="M11.3405 84.6650
L11.2786 84.7888
" />
<path d="M11.2786 84.7888
L11.2167 84.8507
" />
<path d="M11.2167 84.8507
L11.0929 84.9127
" />
<path d="M11.0929 84.9127
L10.6595 84.9127
" />
</g></g>
<g style="fill:none; 
stroke:#000000; stroke-width:0.1500; stroke-opacity:1; 
stroke-linecap:round; stroke-linejoin:round;">
<text x="11.0000" y="135.6500"
textLength="1.4900" font-size="1.7333" lengthAdjust="spacingAndGlyphs"
text-anchor="middle" opacity="0" stroke-opacity="0">C</text>
<g class="stroked-text"><desc>C</desc>
<path d="M11.4024 135.4698
L11.3405 135.5317
" />
<path d="M11.3405 135.5317
L11.1548 135.5936
" />
<path d="M11.1548 135.5936
L11.0310 135.5936
" />
<path d="M11.0310 135.5936
L10.8452 135.5317
" />
<path d="M10.8452 135.5317
L10.7214 135.4079
" />
<path d="M10.7214 135.4079
L10.6595 135.2841
" />
<path d="M10.6595 135.2841
L10.5976 135.0365
" />
<path d="M10.5976 135.0365
L10.5976 134.8507
" />
<path d="M10.5976 134.8507
L10.6595 134.6031
" />
<path d="M10.6595 134.6031
L10.7214 134.4793
" />
<path d="M10.7214 134.4793
L10.8452 134.3555
" />
<path d="M10.8452 134.3555
L11.0310 134.2936
" />
<path d="M11.0310 134.2936
L11.1548 134.2936
" />
<path d="M11.1548 134.2936
L11.3405 134.3555
" />
<path d="M11.3405 134.3555
L11.4024 134.4174
" />
</g></g>
<g style="fill:none; 
stroke:#000000; stroke-width:0.1500; stroke-opacity:1; 
stroke-linecap:round; stroke-linejoin:round;">
<text x="11.0000" y="185.6500"
textLength="1.4900" font-size="1.7333" lengthAdjust="spacingAndGlyphs"
text-anchor="middle" opacity="0" stroke-opacity="0">D</text>
<g class="stroked-text"><desc>D</desc>
<path d="M10.6595 185.5936
L10.6595 184.2936
" />
<path d="M10.6595 184.2936
L10.9690 184.2936
" />
<path d="M10.9690 184.2936
L11.1548 184.3555
" />
<path d="M11.1548 184.3555
L11.2786 184.4793
" />
<path d="M11.2786 184.4793
L11.3405 184.6031
" />
<path d="M11.3405 184.6031
L11.4024 184.8507
" />
<path d="M11.4024 184.8507
L11.4024 185.0365
" />
<path d="M11.4024 185.0365
L11.3405 185.2841
" />
<path d="M11.3405 185.2841
L11.2786 185.4079
" />
<path d="M11.2786 185.4079
L11.1548 185.5317
" />
<path d="M11.1548 185.5317
L10.9690 185.5936
" />
<path d="M10.9690 185.5936
L10.6595 185.5936
" />
</g></g>
<g style="fill:none; 
stroke:#000000; stroke-width:0.1500; stroke-opacity:1; 
stroke-linecap:round; stroke-linejoin:round;">
<text x="11.0000" y="235.6500"
textLength="1.3662" font-size="1.7333" lengthAdjust="spacingAndGlyphs"
text-anchor="middle" opacity="0" stroke-opacity="0">E</text>
<g class="stroked-text"><desc>E</desc>
<path d="M10.7214 234.9127
L11.1548 234.9127
" />
<path d="M11.3405 235.5936
L10.7214 235.5936
" />
<path d="M10.7214 235.5936
L10.7214 234.2936
" />
<path d="M10.7214 234.2936
L11.3405 234.2936
" />
</g></g>
<g style="fill:none; 
stroke:#000000; stroke-width:0.1500; stroke-opacity:1; 
stroke-linecap:round; stroke-linejoin:round;">
<text x="11.0000" y="285.6500"
textLength="1.3043" font-size="1.7333" lengthAdjust="spacingAndGlyphs"
text-anchor="middle" opacity="0" stroke-opacity="0">F</text>
<g class="stroked-text"><desc>F</desc>
<path d="M11.1857 284.9127
L10.7524 284.9127
" />
<path d="M10.7524 285.5936
L10.7524 284.2936
" />
<path d="M10.7524 284.2936
L11.3714 284.2936
" />
</g></g>
<g style="fill:none; 
stroke:#000000; stroke-width:0.1500; stroke-opacity:1; 
stroke-linecap:round; stroke-linejoin:round;">
<path d="M409.9890 60.0000
L407.9890 60.0000
" />
</g>
<g style="fill:none; 
stroke:#000000; stroke-width:0.1500; stroke-opacity:1; 
stroke-linecap:round; stroke-linejoin:round;">
<path d="M409.9890 110.0000
L407.9890 110.0000
" />
</g>
<g style="fill:none; 
stroke:#000000; stroke-width:0.1500; stroke-opacity:1; 
stroke-linecap:round; stroke-linejoin:round;">
<path d="M409.9890 160.0000
L407.9890 160.0000
" />
</g>
<g style="fill:none; 
stroke:#000000; stroke-width:0.1500; stroke-opacity:1; 
stroke-linecap:round; stroke-linejoin:round;">
<path d="M409.9890 210.0000
L407.9890 210.0000
" />
</g>
<g style="fill:none; 
stroke:#000000; stroke-width:0.1500; stroke-opacity:1; 
stroke-linecap:round; stroke-linejoin:round;">
<path d="M409.9890 260.0000
L407.9890 260.0000
" />
</g>
<g style="fill:none; 
stroke:#000000; stroke-width:0.1500; stroke-opacity:1; 
stroke-linecap:round; stroke-linejoin:round;">
<text x="408.9890" y="35.6500"
textLength="1.3043" font-size="1.7333" lengthAdjust="spacingAndGlyphs"
text-anchor="middle" opacity="0" stroke-opacity="0">A</text>
<g class="stroked-text"><desc>A</desc>
<path d="M408.6795 35.2222
L409.2985 35.2222
" />
<path d="M408.5557 35.5936
L408.9890 34.2936
" />
<path d="M408.9890 34.2936
L409.4223 35.5936
" />
</g></g>
<g style="fill:none; 
stroke:#000000; stroke-width:0.1500; stroke-opacity:1; 
stroke-linecap:round; stroke-linejoin:round;">
<text x="408.9890" y="85.6500"
textLength="1.4900" font-size="1.7333" lengthAdjust="spacingAndGlyphs"
text-anchor="middle" opacity="0" stroke-opacity="0">B</text>
<g class="stroked-text"><desc>B</desc>
<path d="M409.0819 84.9127
L409.2676 84.9746
" />
<path d="M409.2676 84.9746
L409.3295 85.0365
" />
<path d="M409.3295 85.0365
L409.3914 85.1603
" />
<path d="M409.3914 85.1603
L409.3914 85.3460
" />
<path d="M409.3914 85.3460
L409.3295 85.4698
" />
<path d="M409.3295 85.4698
L409.2676 85.5317
" />
<path d="M409.2676 85.5317
L409.1438 85.5936
" />
<path d="M409.1438 85.5936
L408.6485 85.5936
" />
<path d="M408.6485 85.5936
L408.6485 84.2936
" />
<path d="M408.6485 84.2936
L409.0819 84.2936
" />
<path d="M409.0819 84.2936
L409.2057 84.3555
" />
<path d="M409.2057 84.3555
L409.2676 84.4174
" />
<path d="M409.2676 84.4174
L409.3295 84.5412
" />
<path d="M409.3295 84.5412
L409.3295 84.6650
" />
<path d="M409.3295 84.6650
L409.2676 84.7888
" />
<path d="M409.2676 84.7888
L409.2057 84.8507
" />
<path d="M409.2057 84.8507
L409.0819 84.9127
" />
<path d="M409.0819 84.9127
L408.6485 84.9127
" />
</g></g>
<g style="fill:none; 
stroke:#000000; stroke-width:0.1500; stroke-opacity:1; 
stroke-linecap:round; stroke-linejoin:round;">
<text x="408.9890" y="135.6500"
textLength="1.4900" font-size="1.7333" lengthAdjust="spacingAndGlyphs"
text-anchor="middle" opacity="0" stroke-opacity="0">C</text>
<g class="stroked-text"><desc>C</desc>
<path d="M409.3914 135.4698
L409.3295 135.5317
" />
<path d="M409.3295 135.5317
L409.1438 135.5936
" />
<path d="M409.1438 135.5936
L409.0200 135.5936
" />
<path d="M409.0200 135.5936
L408.8342 135.5317
" />
<path d="M408.8342 135.5317
L408.7104 135.4079
" />
<path d="M408.7104 135.4079
L408.6485 135.2841
" />
<path d="M408.6485 135.2841
L408.5866 135.0365
" />
<path d="M408.5866 135.0365
L408.5866 134.8507
" />
<path d="M408.5866 134.8507
L408.6485 134.6031
" />
<path d="M408.6485 134.6031
L408.7104 134.4793
" />
<path d="M408.7104 134.4793
L408.8342 134.3555
" />
<path d="M408.8342 134.3555
L409.0200 134.2936
" />
<path d="M409.0200 134.2936
L409.1438 134.2936
" />
<path d="M409.1438 134.2936
L409.3295 134.3555
" />
<path d="M409.3295 134.3555
L409.3914 134.4174
" />
</g></g>
<g style="fill:none; 
stroke:#000000; stroke-width:0.1500; stroke-opacity:1; 
stroke-linecap:round; stroke-linejoin:round;">
<text x="408.9890" y="185.6500"
textLength="1.4900" font-size="1.7333" lengthAdjust="spacingAndGlyphs"
text-anchor="middle" opacity="0" stroke-opacity="0">D</text>
<g class="stroked-text"><desc>D</desc>
<path d="M408.6485 185.5936
L408.6485 184.2936
" />
<path d="M408.6485 184.2936
L408.9580 184.2936
" />
<path d="M408.9580 184.2936
L409.1438 184.3555
" />
<path d="M409.1438 184.3555
L409.2676 184.4793
" />
<path d="M409.2676 184.4793
L409.3295 184.6031
" />
<path d="M409.3295 184.6031
L409.3914 184.8507
" />
<path d="M409.3914 184.8507
L409.3914 185.0365
" />
<path d="M409.3914 185.0365
L409.3295 185.2841
" />
<path d="M409.3295 185.2841
L409.2676 185.4079
" />
<path d="M409.2676 185.4079
L409.1438 185.5317
" />
<path d="M409.1438 185.5317
L408.9580 185.5936
" />
<path d="M408.9580 185.5936
L408.6485 185.5936
" />
</g></g>
<g style="fill:none; 
stroke:#000000; stroke-width:0.1500; stroke-opacity:1; 
stroke-linecap:round; stroke-linejoin:round;">
<text x="408.9890" y="235.6500"
textLength="1.3662" font-size="1.7333" lengthAdjust="spacingAndGlyphs"
text-anchor="middle" opacity="0" stroke-opacity="0">E</text>
<g class="stroked-text"><desc>E</desc>
<path d="M408.7104 234.9127
L409.1438 234.9127
" />
<path d="M409.3295 235.5936
L408.7104 235.5936
" />
<path d="M408.7104 235.5936
L408.7104 234.2936
" />
<path d="M408.7104 234.2936
L409.3295 234.2936
" />
</g></g>
<g style="fill:none; 
stroke:#000000; stroke-width:0.1500; stroke-opacity:1; 
stroke-linecap:round; stroke-linejoin:round;">
<text x="408.9890" y="285.6500"
textLength="1.3043" font-size="1.7333" lengthAdjust="spacingAndGlyphs"
text-anchor="middle" opacity="0" stroke-opacity="0">F</text>
<g class="stroked-text"><desc>F</desc>
<path d="M409.1747 284.9127
L408.7414 284.9127
" />
<path d="M408.7414 285.5936
L408.7414 284.2936
" />
<path d="M408.7414 284.2936
L409.3604 284.2936
" />
</g></g>
<g style="fill:none; 
stroke:#000000; stroke-width:0.1500; stroke-opacity:1; 
stroke-linecap:round; stroke-linejoin:round;">
<text x="322.9890" y="280.8522"
textLength="22.1500" font-size="2.0000" lengthAdjust="spacingAndGlyphs"
text-anchor="start" opacity="0" stroke-opacity="0">Date: 2025-07-13</text>
<g class="stroked-text"><desc>Date: 2025-07-13</desc>
<path d="M323.4448 280.7883
L323.4448 279.2883
" />
<path d="M323.4448 279.2883
L323.8020 279.2883
" />
<path d="M323.8020 279.2883
L324.0163 279.3598
" />
<path d="M324.0163 279.3598
L324.1591 279.5026
" />
<path d="M324.1591 279.5026
L324.2305 279.6455
" />
<path d="M324.2305 279.6455
L324.3020 279.9312
" />
<path d="M324.3020 279.9312
L324.3020 280.1455
" />
<path d="M324.3020 280.1455
L324.2305 280.4312
" />
<path d="M324.2305 280.4312
L324.1591 280.5740
" />
<path d="M324.1591 280.5740
L324.0163 280.7169
" />
<path d="M324.0163 280.7169
L323.8020 280.7883
" />
<path d="M323.8020 280.7883
L323.4448 280.7883
" />
<path d="M325.5877 280.7883
L325.5877 280.0026
" />
<path d="M325.5877 280.0026
L325.5163 279.8598
" />
<path d="M325.5163 279.8598
L325.3734 279.7883
" />
<path d="M325.3734 279.7883
L325.0877 279.7883
" />
<path d="M325.0877 279.7883
L324.9448 279.8598
" />
<path d="M325.5877 280.7169
L325.4448 280.7883
" />
<path d="M325.4448 280.7883
L325.0877 280.7883
" />
<path d="M325.0877 280.7883
L324.9448 280.7169
" />
<path d="M324.9448 280.7169
L324.8734 280.5740
" />
<path d="M324.8734 280.5740
L324.8734 280.4312
" />
<path d="M324.8734 280.4312
L324.9448 280.2883
" />
<path d="M324.9448 280.2883
L325.0877 280.2169
" />
<path d="M325.0877 280.2169
L325.4448 280.2169
" />
<path d="M325.4448 280.2169
L325.5877 280.1455
" />
<path d="M326.0877 279.7883
L326.6591 279.7883
" />
<path d="M326.3020 279.2883
L326.3020 280.5740
" />
<path d="M326.3020 280.5740
L326.3734 280.7169
" />
<path d="M326.3734 280.7169
L326.5163 280.7883
" />
<path d="M326.5163 280.7883
L326.6591 280.7883
" />
<path d="M327.7305 280.7169
L327.5877 280.7883
" />
<path d="M327.5877 280.7883
L327.3020 280.7883
" />
<path d="M327.3020 280.7883
L327.1591 280.7169
" />
<path d="M327.1591 280.7169
L327.0877 280.5740
" />
<path d="M327.0877 280.5740
L327.0877 280.0026
" />
<path d="M327.0877 280.0026
L327.1591 279.8598
" />
<path d="M327.1591 279.8598
L327.3020 279.7883
" />
<path d="M327.3020 279.7883
L327.5877 279.7883
" />
<path d="M327.5877 279.7883
L327.7305 279.8598
" />
<path d="M327.7305 279.8598
L327.8020 280.0026
" />
<path d="M327.8020 280.0026
L327.8020 280.1455
" />
<path d="M327.8020 280.1455
L327.0877 280.2883
" />
<path d="M328.4448 280.6455
L328.5163 280.7169
" />
<path d="M328.5163 280.7169
L328.4448 280.7883
" />
<path d="M328.4448 280.7883
L328.3734 280.7169
" />
<path d="M328.3734 280.7169
L328.4448 280.6455
" />
<path d="M328.4448 280.6455
L328.4448 280.7883
" />
<path d="M328.4448 279.8598
L328.5163 279.9312
" />
<path d="M328.5163 279.9312
L328.4448 280.0026
" />
<path d="M328.4448 280.0026
L328.3734 279.9312
" />
<path d="M328.3734 279.9312
L328.4448 279.8598
" />
<path d="M328.4448 279.8598
L328.4448 280.0026
" />
<path d="M330.2305 279.4312
L330.3020 279.3598
" />
<path d="M330.3020 279.3598
L330.4448 279.2883
" />
<path d="M330.4448 279.2883
L330.8020 279.2883
" />
<path d="M330.8020 279.2883
L330.9448 279.3598
" />
<path d="M330.9448 279.3598
L331.0163 279.4312
" />
<path d="M331.0163 279.4312
L331.0877 279.5740
" />
<path d="M331.0877 279.5740
L331.0877 279.7169
" />
<path d="M331.0877 279.7169
L331.0163 279.9312
" />
<path d="M331.0163 279.9312
L330.1591 280.7883
" />
<path d="M330.1591 280.7883
L331.0877 280.7883
" />
<path d="M332.0163 279.2883
L332.1591 279.2883
" />
<path d="M332.1591 279.2883
L332.3020 279.3598
" />
<path d="M332.3020 279.3598
L332.3734 279.4312
" />
<path d="M332.3734 279.4312
L332.4448 279.5740
" />
<path d="M332.4448 279.5740
L332.5163 279.8598
" />
<path d="M332.5163 279.8598
L332.5163 280.2169
" />
<path d="M332.5163 280.2169
L332.4448 280.5026
" />
<path d="M332.4448 280.5026
L332.3734 280.6455
" />
<path d="M332.3734 280.6455
L332.3020 280.7169
" />
<path d="M332.3020 280.7169
L332.1591 280.7883
" />
<path d="M332.1591 280.7883
L332.0163 280.7883
" />
<path d="M332.0163 280.7883
L331.8734 280.7169
" />
<path d="M331.8734 280.7169
L331.8020 280.6455
" />
<path d="M331.8020 280.6455
L331.7305 280.5026
" />
<path d="M331.7305 280.5026
L331.6591 280.2169
" />
<path d="M331.6591 280.2169
L331.6591 279.8598
" />
<path d="M331.6591 279.8598
L331.7305 279.5740
" />
<path d="M331.7305 279.5740
L331.8020 279.4312
" />
<path d="M331.8020 279.4312
L331.8734 279.3598
" />
<path d="M331.8734 279.3598
L332.0163 279.2883
" />
<path d="M333.0877 279.4312
L333.1591 279.3598
" />
<path d="M333.1591 279.3598
L333.3020 279.2883
" />
<path d="M333.3020 279.2883
L333.6591 279.2883
" />
<path d="M333.6591 279.2883
L333.8020 279.3598
" />
<path d="M333.8020 279.3598
L333.8734 279.4312
" />
<path d="M333.8734 279.4312
L333.9448 279.5740
" />
<path d="M333.9448 279.5740
L333.9448 279.7169
" />
<path d="M333.9448 279.7169
L333.8734 279.9312
" />
<path d="M333.8734 279.9312
L333.0163 280.7883
" />
<path d="M333.0163 280.7883
L333.9448 280.7883
" />
<path d="M335.3020 279.2883
L334.5877 279.2883
" />
<path d="M334.5877 279.2883
L334.5163 280.0026
" />
<path d="M334.5163 280.0026
L334.5877 279.9312
" />
<path d="M334.5877 279.9312
L334.7305 279.8598
" />
<path d="M334.7305 279.8598
L335.0877 279.8598
" />
<path d="M335.0877 279.8598
L335.2305 279.9312
" />
<path d="M335.2305 279.9312
L335.3020 280.0026
" />
<path d="M335.3020 280.0026
L335.3734 280.1455
" />
<path d="M335.3734 280.1455
L335.3734 280.5026
" />
<path d="M335.3734 280.5026
L335.3020 280.6455
" />
<path d="M335.3020 280.6455
L335.2305 280.7169
" />
<path d="M335.2305 280.7169
L335.0877 280.7883
" />
<path d="M335.0877 280.7883
L334.7305 280.7883
" />
<path d="M334.7305 280.7883
L334.5877 280.7169
" />
<path d="M334.5877 280.7169
L334.5163 280.6455
" />
<path d="M336.0163 280.2169
L337.1591 280.2169
" />
<path d="M338.1591 279.2883
L338.3020 279.2883
" />
<path d="M338.3020 279.2883
L338.4448 279.3598
" />
<path d="M338.4448 279.3598
L338.5163 279.4312
" />
<path d="M338.5163 279.4312
L338.5877 279.5740
" />
<path d="M338.5877 279.5740
L338.6591 279.8598
" />
<path d="M338.6591 279.8598
L338.6591 280.2169
" />
<path d="M338.6591 280.2169
L338.5877 280.5026
" />
<path d="M338.5877 280.5026
L338.5163 280.6455
" />
<path d="M338.5163 280.6455
L338.4448 280.7169
" />
<path d="M338.4448 280.7169
L338.3020 280.7883
" />
<path d="M338.3020 280.7883
L338.1591 280.7883
" />
<path d="M338.1591 280.7883
L338.0163 280.7169
" />
<path d="M338.0163 280.7169
L337.9448 280.6455
" />
<path d="M337.9448 280.6455
L337.8734 280.5026
" />
<path d="M337.8734 280.5026
L337.8020 280.2169
" />
<path d="M337.8020 280.2169
L337.8020 279.8598
" />
<path d="M337.8020 279.8598
L337.8734 279.5740
" />
<path d="M337.8734 279.5740
L337.9448 279.4312
" />
<path d="M337.9448 279.4312
L338.0163 279.3598
" />
<path d="M338.0163 279.3598
L338.1591 279.2883
" />
<path d="M339.1591 279.2883
L340.1591 279.2883
" />
<path d="M340.1591 279.2883
L339.5163 280.7883
" />
<path d="M340.7305 280.2169
L341.8734 280.2169
" />
<path d="M343.3734 280.7883
L342.5163 280.7883
" />
<path d="M342.9448 280.7883
L342.9448 279.2883
" />
<path d="M342.9448 279.2883
L342.8020 279.5026
" />
<path d="M342.8020 279.5026
L342.6591 279.6455
" />
<path d="M342.6591 279.6455
L342.5163 279.7169
" />
<path d="M343.8734 279.2883
L344.8020 279.2883
" />
<path d="M344.8020 279.2883
L344.3020 279.8598
" />
<path d="M344.3020 279.8598
L344.5163 279.8598
" />
<path d="M344.5163 279.8598
L344.6591 279.9312
" />
<path d="M344.6591 279.9312
L344.7305 280.0026
" />
<path d="M344.7305 280.0026
L344.8020 280.1455
" />
<path d="M344.8020 280.1455
L344.8020 280.5026
" />
<path d="M344.8020 280.5026
L344.7305 280.6455
" />
<path d="M344.7305 280.6455
L344.6591 280.7169
" />
<path d="M344.6591 280.7169
L344.5163 280.7883
" />
<path d="M344.5163 280.7883
L344.0877 280.7883
" />
<path d="M344.0877 280.7883
L343.9448 280.7169
" />
<path d="M343.9448 280.7169
L343.8734 280.6455
" />
</g></g>
<g style="fill:none; 
stroke:#000000; stroke-width:0.1500; stroke-opacity:1; 
stroke-linecap:round; stroke-linejoin:round;">
<path d="M299.9890 281.5022
L407.9890 281.5022
" />
</g>
<g style="fill:none; 
stroke:#000000; stroke-width:0.1500; stroke-opacity:1; 
stroke-linecap:round; stroke-linejoin:round;">
<text x="300.9890" y="283.6522"
textLength="20.6500" font-size="2.0000" lengthAdjust="spacingAndGlyphs"
text-anchor="start" opacity="0" stroke-opacity="0">${KICAD_VERSION}</text>
<g class="stroked-text"><desc>${KICAD_VERSION}</desc>
<path d="M301.3734 283.5169
L301.5877 283.5883
" />
<path d="M301.5877 283.5883
L301.9448 283.5883
" />
<path d="M301.9448 283.5883
L302.0877 283.5169
" />
<path d="M302.0877 283.5169
L302.1591 283.4455
" />
<path d="M302.1591 283.4455
L302.2305 283.3026
" />
<path d="M302.2305 283.3026
L302.2305 283.1598
" />
<path d="M302.2305 283.1598
L302.1591 283.0169
" />
<path d="M302.1591 283.0169
L302.0877 282.9455
" />
<path d="M302.0877 282.9455
L301.9448 282.8740
" />
<path d="M301.9448 282.8740
L301.6591 282.8026
" />
<path d="M301.6591 282.8026
L301.5163 282.7312
" />
<path d="M301.5163 282.7312
L301.4448 282.6598
" />
<path d="M301.4448 282.6598
L301.3734 282.5169
" />
<path d="M301.3734 282.5169
L301.3734 282.3740
" />
<path d="M301.3734 282.3740
L301.4448 282.2312
" />
<path d="M301.4448 282.2312
L301.5163 282.1598
" />
<path d="M301.5163 282.1598
L301.6591 282.0883
" />
<path d="M301.6591 282.0883
L302.0163 282.0883
" />
<path d="M302.0163 282.0883
L302.2305 282.1598
" />
<path d="M301.8020 281.8740
L301.8020 283.8026
" />
<path d="M303.3020 284.1598
L303.2305 284.1598
" />
<path d="M303.2305 284.1598
L303.0877 284.0883
" />
<path d="M303.0877 284.0883
L303.0163 283.9455
" />
<path d="M303.0163 283.9455
L303.0163 283.2312
" />
<path d="M303.0163 283.2312
L302.9448 283.0883
" />
<path d="M302.9448 283.0883
L302.8020 283.0169
" />
<path d="M302.8020 283.0169
L302.9448 282.9455
" />
<path d="M302.9448 282.9455
L303.0163 282.8026
" />
<path d="M303.0163 282.8026
L303.0163 282.0883
" />
<path d="M303.0163 282.0883
L303.0877 281.9455
" />
<path d="M303.0877 281.9455
L303.2305 281.8740
" />
<path d="M303.2305 281.8740
L303.3020 281.8740
" />
<path d="M303.8734 283.5883
L303.8734 282.0883
" />
<path d="M304.7305 283.5883
L304.0877 282.7312
" />
<path d="M304.7305 282.0883
L303.8734 282.9455
" />
<path d="M305.3734 283.5883
L305.3734 282.0883
" />
<path d="M306.9448 283.4455
L306.8734 283.5169
" />
<path d="M306.8734 283.5169
L306.6591 283.5883
" />
<path d="M306.6591 283.5883
L306.5163 283.5883
" />
<path d="M306.5163 283.5883
L306.3020 283.5169
" />
<path d="M306.3020 283.5169
L306.1591 283.3740
" />
<path d="M306.1591 283.3740
L306.0877 283.2312
" />
<path d="M306.0877 283.2312
L306.0163 282.9455
" />
<path d="M306.0163 282.9455
L306.0163 282.7312
" />
<path d="M306.0163 282.7312
L306.0877 282.4455
" />
<path d="M306.0877 282.4455
L306.1591 282.3026
" />
<path d="M306.1591 282.3026
L306.3020 282.1598
" />
<path d="M306.3020 282.1598
L306.5163 282.0883
" />
<path d="M306.5163 282.0883
L306.6591 282.0883
" />
<path d="M306.6591 282.0883
L306.8734 282.1598
" />
<path d="M306.8734 282.1598
L306.9448 282.2312
" />
<path d="M307.5163 283.1598
L308.2305 283.1598
" />
<path d="M307.3734 283.5883
L307.8734 282.0883
" />
<path d="M307.8734 282.0883
L308.3734 283.5883
" />
<path d="M308.8734 283.5883
L308.8734 282.0883
" />
<path d="M308.8734 282.0883
L309.2305 282.0883
" />
<path d="M309.2305 282.0883
L309.4448 282.1598
" />
<path d="M309.4448 282.1598
L309.5877 282.3026
" />
<path d="M309.5877 282.3026
L309.6591 282.4455
" />
<path d="M309.6591 282.4455
L309.7305 282.7312
" />
<path d="M309.7305 282.7312
L309.7305 282.9455
" />
<path d="M309.7305 282.9455
L309.6591 283.2312
" />
<path d="M309.6591 283.2312
L309.5877 283.3740
" />
<path d="M309.5877 283.3740
L309.4448 283.5169
" />
<path d="M309.4448 283.5169
L309.2305 283.5883
" />
<path d="M309.2305 283.5883
L308.8734 283.5883
" />
<path d="M310.0163 283.7312
L311.1591 283.7312
" />
<path d="M311.3020 282.0883
L311.8020 283.5883
" />
<path d="M311.8020 283.5883
L312.3020 282.0883
" />
<path d="M312.8020 282.8026
L313.3020 282.8026
" />
<path d="M313.5163 283.5883
L312.8020 283.5883
" />
<path d="M312.8020 283.5883
L312.8020 282.0883
" />
<path d="M312.8020 282.0883
L313.5163 282.0883
" />
<path d="M315.0163 283.5883
L314.5163 282.8740
" />
<path d="M314.1591 283.5883
L314.1591 282.0883
" />
<path d="M314.1591 282.0883
L314.7305 282.0883
" />
<path d="M314.7305 282.0883
L314.8734 282.1598
" />
<path d="M314.8734 282.1598
L314.9448 282.2312
" />
<path d="M314.9448 282.2312
L315.0163 282.3740
" />
<path d="M315.0163 282.3740
L315.0163 282.5883
" />
<path d="M315.0163 282.5883
L314.9448 282.7312
" />
<path d="M314.9448 282.7312
L314.8734 282.8026
" />
<path d="M314.8734 282.8026
L314.7305 282.8740
" />
<path d="M314.7305 282.8740
L314.1591 282.8740
" />
<path d="M315.5877 283.5169
L315.8020 283.5883
" />
<path d="M315.8020 283.5883
L316.1591 283.5883
" />
<path d="M316.1591 283.5883
L316.3020 283.5169
" />
<path d="M316.3020 283.5169
L316.3734 283.4455
" />
<path d="M316.3734 283.4455
L316.4448 283.3026
" />
<path d="M316.4448 283.3026
L316.4448 283.1598
" />
<path d="M316.4448 283.1598
L316.3734 283.0169
" />
<path d="M316.3734 283.0169
L316.3020 282.9455
" />
<path d="M316.3020 282.9455
L316.1591 282.8740
" />
<path d="M316.1591 282.8740
L315.8734 282.8026
" />
<path d="M315.8734 282.8026
L315.7305 282.7312
" />
<path d="M315.7305 282.7312
L315.6591 282.6598
" />
<path d="M315.6591 282.6598
L315.5877 282.5169
" />
<path d="M315.5877 282.5169
L315.5877 282.3740
" />
<path d="M315.5877 282.3740
L315.6591 282.2312
" />
<path d="M315.6591 282.2312
L315.7305 282.1598
" />
<path d="M315.7305 282.1598
L315.8734 282.0883
" />
<path d="M315.8734 282.0883
L316.2305 282.0883
" />
<path d="M316.2305 282.0883
L316.4448 282.1598
" />
<path d="M317.0877 283.5883
L317.0877 282.0883
" />
<path d="M318.0877 282.0883
L318.3734 282.0883
" />
<path d="M318.3734 282.0883
L318.5163 282.1598
" />
<path d="M318.5163 282.1598
L318.6591 282.3026
" />
<path d="M318.6591 282.3026
L318.7305 282.5883
" />
<path d="M318.7305 282.5883
L318.7305 283.0883
" />
<path d="M318.7305 283.0883
L318.6591 283.3740
" />
<path d="M318.6591 283.3740
L318.5163 283.5169
" />
<path d="M318.5163 283.5169
L318.3734 283.5883
" />
<path d="M318.3734 283.5883
L318.0877 283.5883
" />
<path d="M318.0877 283.5883
L317.9448 283.5169
" />
<path d="M317.9448 283.5169
L317.8020 283.3740
" />
<path d="M317.8020 283.3740
L317.7305 283.0883
" />
<path d="M317.7305 283.0883
L317.7305 282.5883
" />
<path d="M317.7305 282.5883
L317.8020 282.3026
" />
<path d="M317.8020 282.3026
L317.9448 282.1598
" />
<path d="M317.9448 282.1598
L318.0877 282.0883
" />
<path d="M319.3734 283.5883
L319.3734 282.0883
" />
<path d="M319.3734 282.0883
L320.2305 283.5883
" />
<path d="M320.2305 283.5883
L320.2305 282.0883
" />
<path d="M320.8020 284.1598
L320.8734 284.1598
" />
<path d="M320.8734 284.1598
L321.0163 284.0883
" />
<path d="M321.0163 284.0883
L321.0877 283.9455
" />
<path d="M321.0877 283.9455
L321.0877 283.2312
" />
<path d="M321.0877 283.2312
L321.1591 283.0883
" />
<path d="M321.1591 283.0883
L321.3020 283.0169
" />
<path d="M321.3020 283.0169
L321.1591 282.9455
" />
<path d="M321.1591 282.9455
L321.0877 282.8026
" />
<path d="M321.0877 282.8026
L321.0877 282.0883
" />
<path d="M321.0877 282.0883
L321.0163 281.9455
" />
<path d="M321.0163 281.9455
L320.8734 281.8740
" />
<path d="M320.8734 281.8740
L320.8020 281.8740
" />
</g></g>
<g style="fill:none; 
stroke:#000000; stroke-width:0.1500; stroke-opacity:1; 
stroke-linecap:round; stroke-linejoin:round;">
<path d="M299.9890 278.5022
L407.9890 278.5022
" />
</g>
<g style="fill:none; 
stroke:#000000; stroke-width:0.3000; stroke-opacity:1; 
stroke-linecap:round; stroke-linejoin:round;">
<text x="385.9890" y="280.8522"
textLength="6.3857" font-size="2.0000" lengthAdjust="spacingAndGlyphs"
text-anchor="start" opacity="0" stroke-opacity="0">Rev: </text>
<g class="stroked-text"><desc>Rev: </desc>
<path d="M387.4007 280.7805
L386.9007 280.0662
" />
<path d="M386.5435 280.7805
L386.5435 279.2805
" />
<path d="M386.5435 279.2805
L387.1149 279.2805
" />
<path d="M387.1149 279.2805
L387.2578 279.3520
" />
<path d="M387.2578 279.3520
L387.3292 279.4234
" />
<path d="M387.3292 279.4234
L387.4007 279.5662
" />
<path d="M387.4007 279.5662
L387.4007 279.7805
" />
<path d="M387.4007 279.7805
L387.3292 279.9234
" />
<path d="M387.3292 279.9234
L387.2578 279.9948
" />
<path d="M387.2578 279.9948
L387.1149 280.0662
" />
<path d="M387.1149 280.0662
L386.5435 280.0662
" />
<path d="M388.6149 280.7091
L388.4721 280.7805
" />
<path d="M388.4721 280.7805
L388.1864 280.7805
" />
<path d="M388.1864 280.7805
L388.0435 280.7091
" />
<path d="M388.0435 280.7091
L387.9721 280.5662
" />
<path d="M387.9721 280.5662
L387.9721 279.9948
" />
<path d="M387.9721 279.9948
L388.0435 279.8520
" />
<path d="M388.0435 279.8520
L388.1864 279.7805
" />
<path d="M388.1864 279.7805
L388.4721 279.7805
" />
<path d="M388.4721 279.7805
L388.6149 279.8520
" />
<path d="M388.6149 279.8520
L388.6864 279.9948
" />
<path d="M388.6864 279.9948
L388.6864 280.1377
" />
<path d="M388.6864 280.1377
L387.9721 280.2805
" />
<path d="M389.1864 279.7805
L389.5435 280.7805
" />
<path d="M389.5435 280.7805
L389.9007 279.7805
" />
<path d="M390.4721 280.6377
L390.5435 280.7091
" />
<path d="M390.5435 280.7091
L390.4721 280.7805
" />
<path d="M390.4721 280.7805
L390.4007 280.7091
" />
<path d="M390.4007 280.7091
L390.4721 280.6377
" />
<path d="M390.4721 280.6377
L390.4721 280.7805
" />
<path d="M390.4721 279.8520
L390.5435 279.9234
" />
<path d="M390.5435 279.9234
L390.4721 279.9948
" />
<path d="M390.4721 279.9948
L390.4007 279.9234
" />
<path d="M390.4007 279.9234
L390.4721 279.8520
" />
<path d="M390.4721 279.8520
L390.4721 279.9948
" />
</g></g>
<g style="fill:none; 
stroke:#000000; stroke-width:0.1500; stroke-opacity:1; 
stroke-linecap:round; stroke-linejoin:round;">
<text x="300.9890" y="280.8522"
textLength="9.3643" font-size="2.0000" lengthAdjust="spacingAndGlyphs"
text-anchor="start" opacity="0" stroke-opacity="0">Size: A3</text>
<g class="stroked-text"><desc>Size: A3</desc>
<path d="M301.3734 280.7169
L301.5877 280.7883
" />
<path d="M301.5877 280.7883
L301.9448 280.7883
" />
<path d="M301.9448 280.7883
L302.0877 280.7169
" />
<path d="M302.0877 280.7169
L302.1591 280.6455
" />
<path d="M302.1591 280.6455
L302.2305 280.5026
" />
<path d="M302.2305 280.5026
L302.2305 280.3598
" />
<path d="M302.2305 280.3598
L302.1591 280.2169
" />
<path d="M302.1591 280.2169
L302.0877 280.1455
" />
<path d="M302.0877 280.1455
L301.9448 280.0740
" />
<path d="M301.9448 280.0740
L301.6591 280.0026
" />
<path d="M301.6591 280.0026
L301.5163 279.9312
" />
<path d="M301.5163 279.9312
L301.4448 279.8598
" />
<path d="M301.4448 279.8598
L301.3734 279.7169
" />
<path d="M301.3734 279.7169
L301.3734 279.5740
" />
<path d="M301.3734 279.5740
L301.4448 279.4312
" />
<path d="M301.4448 279.4312
L301.5163 279.3598
" />
<path d="M301.5163 279.3598
L301.6591 279.2883
" />
<path d="M301.6591 279.2883
L302.0163 279.2883
" />
<path d="M302.0163 279.2883
L302.2305 279.3598
" />
<path d="M302.8734 280.7883
L302.8734 279.7883
" />
<path d="M302.8734 279.2883
L302.8020 279.3598
" />
<path d="M302.8020 279.3598
L302.8734 279.4312
" />
<path d="M302.8734 279.4312
L302.9448 279.3598
" />
<path d="M302.9448 279.3598
L302.8734 279.2883
" />
<path d="M302.8734 279.2883
L302.8734 279.4312
" />
<path d="M303.4448 279.7883
L304.2305 279.7883
" />
<path d="M304.2305 279.7883
L303.4448 280.7883
" />
<path d="M303.4448 280.7883
L304.2305 280.7883
" />
<path d="M305.3734 280.7169
L305.2305 280.7883
" />
<path d="M305.2305 280.7883
L304.9448 280.7883
" />
<path d="M304.9448 280.7883
L304.8020 280.7169
" />
<path d="M304.8020 280.7169
L304.7305 280.5740
" />
<path d="M304.7305 280.5740
L304.7305 280.0026
" />
<path d="M304.7305 280.0026
L304.8020 279.8598
" />
<path d="M304.8020 279.8598
L304.9448 279.7883
" />
<path d="M304.9448 279.7883
L305.2305 279.7883
" />
<path d="M305.2305 279.7883
L305.3734 279.8598
" />
<path d="M305.3734 279.8598
L305.4448 280.0026
" />
<path d="M305.4448 280.0026
L305.4448 280.1455
" />
<path d="M305.4448 280.1455
L304.7305 280.2883
" />
<path d="M306.0877 280.6455
L306.1591 280.7169
" />
<path d="M306.1591 280.7169
L306.0877 280.7883
" />
<path d="M306.0877 280.7883
L306.0163 280.7169
" />
<path d="M306.0163 280.7169
L306.0877 280.6455
" />
<path d="M306.0877 280.6455
L306.0877 280.7883
" />
<path d="M306.0877 279.8598
L306.1591 279.9312
" />
<path d="M306.1591 279.9312
L306.0877 280.0026
" />
<path d="M306.0877 280.0026
L306.0163 279.9312
" />
<path d="M306.0163 279.9312
L306.0877 279.8598
" />
<path d="M306.0877 279.8598
L306.0877 280.0026
" />
<path d="M307.8734 280.3598
L308.5877 280.3598
" />
<path d="M307.7305 280.7883
L308.2305 279.2883
" />
<path d="M308.2305 279.2883
L308.7305 280.7883
" />
<path d="M309.0877 279.2883
L310.0163 279.2883
" />
<path d="M310.0163 279.2883
L309.5163 279.8598
" />
<path d="M309.5163 279.8598
L309.7305 279.8598
" />
<path d="M309.7305 279.8598
L309.8734 279.9312
" />
<path d="M309.8734 279.9312
L309.9448 280.0026
" />
<path d="M309.9448 280.0026
L310.0163 280.1455
" />
<path d="M310.0163 280.1455
L310.0163 280.5026
" />
<path d="M310.0163 280.5026
L309.9448 280.6455
" />
<path d="M309.9448 280.6455
L309.8734 280.7169
" />
<path d="M309.8734 280.7169
L309.7305 280.7883
" />
<path d="M309.7305 280.7883
L309.3020 280.7883
" />
<path d="M309.3020 280.7883
L309.1591 280.7169
" />
<path d="M309.1591 280.7169
L309.0877 280.6455
" />
</g></g>
<g style="fill:none; 
stroke:#000000; stroke-width:0.1500; stroke-opacity:1; 
stroke-linecap:round; stroke-linejoin:round;">
<text x="385.9890" y="283.6522"
textLength="7.0786" font-size="2.0000" lengthAdjust="spacingAndGlyphs"
text-anchor="start" opacity="0" stroke-opacity="0">Id: /1</text>
<g class="stroked-text"><desc>Id: /1</desc>
<path d="M386.4448 283.5883
L386.4448 282.0883
" />
<path d="M387.8020 283.5883
L387.8020 282.0883
" />
<path d="M387.8020 283.5169
L387.6591 283.5883
" />
<path d="M387.6591 283.5883
L387.3734 283.5883
" />
<path d="M387.3734 283.5883
L387.2305 283.5169
" />
<path d="M387.2305 283.5169
L387.1591 283.4455
" />
<path d="M387.1591 283.4455
L387.0877 283.3026
" />
<path d="M387.0877 283.3026
L387.0877 282.8740
" />
<path d="M387.0877 282.8740
L387.1591 282.7312
" />
<path d="M387.1591 282.7312
L387.2305 282.6598
" />
<path d="M387.2305 282.6598
L387.3734 282.5883
" />
<path d="M387.3734 282.5883
L387.6591 282.5883
" />
<path d="M387.6591 282.5883
L387.8020 282.6598
" />
<path d="M388.5163 283.4455
L388.5877 283.5169
" />
<path d="M388.5877 283.5169
L388.5163 283.5883
" />
<path d="M388.5163 283.5883
L388.4448 283.5169
" />
<path d="M388.4448 283.5169
L388.5163 283.4455
" />
<path d="M388.5163 283.4455
L388.5163 283.5883
" />
<path d="M388.5163 282.6598
L388.5877 282.7312
" />
<path d="M388.5877 282.7312
L388.5163 282.8026
" />
<path d="M388.5163 282.8026
L388.4448 282.7312
" />
<path d="M388.4448 282.7312
L388.5163 282.6598
" />
<path d="M388.5163 282.6598
L388.5163 282.8026
" />
<path d="M391.4448 282.0169
L390.1591 283.9455
" />
<path d="M392.7305 283.5883
L391.8734 283.5883
" />
<path d="M392.3020 283.5883
L392.3020 282.0883
" />
<path d="M392.3020 282.0883
L392.1591 282.3026
" />
<path d="M392.1591 282.3026
L392.0163 282.4455
" />
<path d="M392.0163 282.4455
L391.8734 282.5169
" />
</g></g>
<g style="fill:none; 
stroke:#000000; stroke-width:0.1500; stroke-opacity:1; 
stroke-linecap:round; stroke-linejoin:round;">
<path d="M299.9890 274.5022
L407.9890 274.5022
" />
</g>
<g style="fill:none; 
stroke:#000000; stroke-width:0.4000; stroke-opacity:1; 
stroke-linecap:round; stroke-linejoin:round;">
<text x="300.9890" y="277.3022"
textLength="30.2286" font-size="2.6667" lengthAdjust="spacingAndGlyphs"
text-anchor="start" opacity="0" stroke-opacity="0">Title: Watch-DevKit</text>
<g class="stroked-text"><desc>Title: Watch-DevKit</desc>
<path d="M301.6807 275.2066
L302.8236 275.2066
" />
<path d="M302.0022 277.2066
L302.2522 275.2066
" />
<path d="M303.2403 277.2066
L303.4069 275.8733
" />
<path d="M303.4903 275.2066
L303.3831 275.3019
" />
<path d="M303.3831 275.3019
L303.4664 275.3971
" />
<path d="M303.4664 275.3971
L303.5736 275.3019
" />
<path d="M303.5736 275.3019
L303.4903 275.2066
" />
<path d="M303.4903 275.2066
L303.4664 275.3971
" />
<path d="M304.0736 275.8733
L304.8355 275.8733
" />
<path d="M304.4426 275.2066
L304.2283 276.9209
" />
<path d="M304.2283 276.9209
L304.2998 277.1114
" />
<path d="M304.2998 277.1114
L304.4783 277.2066
" />
<path d="M304.4783 277.2066
L304.6688 277.2066
" />
<path d="M305.6212 277.2066
L305.4426 277.1114
" />
<path d="M305.4426 277.1114
L305.3712 276.9209
" />
<path d="M305.3712 276.9209
L305.5855 275.2066
" />
<path d="M307.1569 277.1114
L306.9545 277.2066
" />
<path d="M306.9545 277.2066
L306.5736 277.2066
" />
<path d="M306.5736 277.2066
L306.3950 277.1114
" />
<path d="M306.3950 277.1114
L306.3236 276.9209
" />
<path d="M306.3236 276.9209
L306.4188 276.1590
" />
<path d="M306.4188 276.1590
L306.5379 275.9685
" />
<path d="M306.5379 275.9685
L306.7403 275.8733
" />
<path d="M306.7403 275.8733
L307.1212 275.8733
" />
<path d="M307.1212 275.8733
L307.2998 275.9685
" />
<path d="M307.2998 275.9685
L307.3712 276.1590
" />
<path d="M307.3712 276.1590
L307.3474 276.3495
" />
<path d="M307.3474 276.3495
L306.3712 276.5400
" />
<path d="M308.1212 277.0162
L308.2045 277.1114
" />
<path d="M308.2045 277.1114
L308.0974 277.2066
" />
<path d="M308.0974 277.2066
L308.0141 277.1114
" />
<path d="M308.0141 277.1114
L308.1212 277.0162
" />
<path d="M308.1212 277.0162
L308.0974 277.2066
" />
<path d="M308.2522 275.9685
L308.3355 276.0638
" />
<path d="M308.3355 276.0638
L308.2283 276.1590
" />
<path d="M308.2283 276.1590
L308.1450 276.0638
" />
<path d="M308.1450 276.0638
L308.2522 275.9685
" />
<path d="M308.2522 275.9685
L308.2283 276.1590
" />
<path d="M310.6331 275.2066
L310.8593 277.2066
" />
<path d="M310.8593 277.2066
L311.4188 275.7781
" />
<path d="M311.4188 275.7781
L311.6212 277.2066
" />
<path d="M311.6212 277.2066
L312.3474 275.2066
" />
<path d="M313.7164 277.2066
L313.8474 276.1590
" />
<path d="M313.8474 276.1590
L313.7760 275.9685
" />
<path d="M313.7760 275.9685
L313.5974 275.8733
" />
<path d="M313.5974 275.8733
L313.2164 275.8733
" />
<path d="M313.2164 275.8733
L313.0141 275.9685
" />
<path d="M313.7283 277.1114
L313.5260 277.2066
" />
<path d="M313.5260 277.2066
L313.0498 277.2066
" />
<path d="M313.0498 277.2066
L312.8712 277.1114
" />
<path d="M312.8712 277.1114
L312.7998 276.9209
" />
<path d="M312.7998 276.9209
L312.8236 276.7304
" />
<path d="M312.8236 276.7304
L312.9426 276.5400
" />
<path d="M312.9426 276.5400
L313.1450 276.4447
" />
<path d="M313.1450 276.4447
L313.6212 276.4447
" />
<path d="M313.6212 276.4447
L313.8236 276.3495
" />
<path d="M314.5498 275.8733
L315.3117 275.8733
" />
<path d="M314.9188 275.2066
L314.7045 276.9209
" />
<path d="M314.7045 276.9209
L314.7760 277.1114
" />
<path d="M314.7760 277.1114
L314.9545 277.2066
" />
<path d="M314.9545 277.2066
L315.1450 277.2066
" />
<path d="M316.6807 277.1114
L316.4783 277.2066
" />
<path d="M316.4783 277.2066
L316.0974 277.2066
" />
<path d="M316.0974 277.2066
L315.9188 277.1114
" />
<path d="M315.9188 277.1114
L315.8355 277.0162
" />
<path d="M315.8355 277.0162
L315.7641 276.8257
" />
<path d="M315.7641 276.8257
L315.8355 276.2543
" />
<path d="M315.8355 276.2543
L315.9545 276.0638
" />
<path d="M315.9545 276.0638
L316.0617 275.9685
" />
<path d="M316.0617 275.9685
L316.2641 275.8733
" />
<path d="M316.2641 275.8733
L316.6450 275.8733
" />
<path d="M316.6450 275.8733
L316.8236 275.9685
" />
<path d="M317.5260 277.2066
L317.7760 275.2066
" />
<path d="M318.3831 277.2066
L318.5141 276.1590
" />
<path d="M318.5141 276.1590
L318.4426 275.9685
" />
<path d="M318.4426 275.9685
L318.2641 275.8733
" />
<path d="M318.2641 275.8733
L317.9783 275.8733
" />
<path d="M317.9783 275.8733
L317.7760 275.9685
" />
<path d="M317.7760 275.9685
L317.6688 276.0638
" />
<path d="M319.4307 276.4447
L320.9545 276.4447
" />
<path d="M321.8117 277.2066
L322.0617 275.2066
" />
<path d="M322.0617 275.2066
L322.5379 275.2066
" />
<path d="M322.5379 275.2066
L322.8117 275.3019
" />
<path d="M322.8117 275.3019
L322.9783 275.4924
" />
<path d="M322.9783 275.4924
L323.0498 275.6828
" />
<path d="M323.0498 275.6828
L323.0974 276.0638
" />
<path d="M323.0974 276.0638
L323.0617 276.3495
" />
<path d="M323.0617 276.3495
L322.9188 276.7304
" />
<path d="M322.9188 276.7304
L322.7998 276.9209
" />
<path d="M322.7998 276.9209
L322.5855 277.1114
" />
<path d="M322.5855 277.1114
L322.2879 277.2066
" />
<path d="M322.2879 277.2066
L321.8117 277.2066
" />
<path d="M324.5855 277.1114
L324.3831 277.2066
" />
<path d="M324.3831 277.2066
L324.0022 277.2066
" />
<path d="M324.0022 277.2066
L323.8236 277.1114
" />
<path d="M323.8236 277.1114
L323.7522 276.9209
" />
<path d="M323.7522 276.9209
L323.8474 276.1590
" />
<path d="M323.8474 276.1590
L323.9664 275.9685
" />
<path d="M323.9664 275.9685
L324.1688 275.8733
" />
<path d="M324.1688 275.8733
L324.5498 275.8733
" />
<path d="M324.5498 275.8733
L324.7283 275.9685
" />
<path d="M324.7283 275.9685
L324.7998 276.1590
" />
<path d="M324.7998 276.1590
L324.7760 276.3495
" />
<path d="M324.7760 276.3495
L323.7998 276.5400
" />
<path d="M325.5022 275.8733
L325.8117 277.2066
" />
<path d="M325.8117 277.2066
L326.4545 275.8733
" />
<path d="M327.0498 277.2066
L327.2998 275.2066
" />
<path d="M328.1926 277.2066
L327.4783 276.0638
" />
<path d="M328.4426 275.2066
L327.1569 276.3495
" />
<path d="M329.0498 277.2066
L329.2164 275.8733
" />
<path d="M329.2998 275.2066
L329.1926 275.3019
" />
<path d="M329.1926 275.3019
L329.2760 275.3971
" />
<path d="M329.2760 275.3971
L329.3831 275.3019
" />
<path d="M329.3831 275.3019
L329.2998 275.2066
" />
<path d="M329.2998 275.2066
L329.2760 275.3971
" />
<path d="M329.8831 275.8733
L330.6450 275.8733
" />
<path d="M330.2522 275.2066
L330.0379 276.9209
" />
<path d="M330.0379 276.9209
L330.1093 277.1114
" />
<path d="M330.1093 277.1114
L330.2879 277.2066
" />
<path d="M330.2879 277.2066
L330.4783 277.2066
" />
</g></g>
<g style="fill:none; 
stroke:#000000; stroke-width:0.1500; stroke-opacity:1; 
stroke-linecap:round; stroke-linejoin:round;">
<text x="300.9890" y="273.4522"
textLength="34.5071" font-size="2.0000" lengthAdjust="spacingAndGlyphs"
text-anchor="start" opacity="0" stroke-opacity="0">File: ZSWatch-Dock.kicad_pcb</text>
<g class="stroked-text"><desc>File: ZSWatch-Dock.kicad_pcb</desc>
<path d="M301.9448 272.6026
L301.4448 272.6026
" />
<path d="M301.4448 273.3883
L301.4448 271.8883
" />
<path d="M301.4448 271.8883
L302.1591 271.8883
" />
<path d="M302.7305 273.3883
L302.7305 272.3883
" />
<path d="M302.7305 271.8883
L302.6591 271.9598
" />
<path d="M302.6591 271.9598
L302.7305 272.0312
" />
<path d="M302.7305 272.0312
L302.8020 271.9598
" />
<path d="M302.8020 271.9598
L302.7305 271.8883
" />
<path d="M302.7305 271.8883
L302.7305 272.0312
" />
<path d="M303.6591 273.3883
L303.5163 273.3169
" />
<path d="M303.5163 273.3169
L303.4448 273.1740
" />
<path d="M303.4448 273.1740
L303.4448 271.8883
" />
<path d="M304.8020 273.3169
L304.6591 273.3883
" />
<path d="M304.6591 273.3883
L304.3734 273.3883
" />
<path d="M304.3734 273.3883
L304.2305 273.3169
" />
<path d="M304.2305 273.3169
L304.1591 273.1740
" />
<path d="M304.1591 273.1740
L304.1591 272.6026
" />
<path d="M304.1591 272.6026
L304.2305 272.4598
" />
<path d="M304.2305 272.4598
L304.3734 272.3883
" />
<path d="M304.3734 272.3883
L304.6591 272.3883
" />
<path d="M304.6591 272.3883
L304.8020 272.4598
" />
<path d="M304.8020 272.4598
L304.8734 272.6026
" />
<path d="M304.8734 272.6026
L304.8734 272.7455
" />
<path d="M304.8734 272.7455
L304.1591 272.8883
" />
<path d="M305.5163 273.2455
L305.5877 273.3169
" />
<path d="M305.5877 273.3169
L305.5163 273.3883
" />
<path d="M305.5163 273.3883
L305.4448 273.3169
" />
<path d="M305.4448 273.3169
L305.5163 273.2455
" />
<path d="M305.5163 273.2455
L305.5163 273.3883
" />
<path d="M305.5163 272.4598
L305.5877 272.5312
" />
<path d="M305.5877 272.5312
L305.5163 272.6026
" />
<path d="M305.5163 272.6026
L305.4448 272.5312
" />
<path d="M305.4448 272.5312
L305.5163 272.4598
" />
<path d="M305.5163 272.4598
L305.5163 272.6026
" />
<path d="M307.2305 271.8883
L308.2305 271.8883
" />
<path d="M308.2305 271.8883
L307.2305 273.3883
" />
<path d="M307.2305 273.3883
L308.2305 273.3883
" />
<path d="M308.7305 273.3169
L308.9448 273.3883
" />
<path d="M308.9448 273.3883
L309.3020 273.3883
" />
<path d="M309.3020 273.3883
L309.4448 273.3169
" />
<path d="M309.4448 273.3169
L309.5163 273.2455
" />
<path d="M309.5163 273.2455
L309.5877 273.1026
" />
<path d="M309.5877 273.1026
L309.5877 272.9598
" />
<path d="M309.5877 272.9598
L309.5163 272.8169
" />
<path d="M309.5163 272.8169
L309.4448 272.7455
" />
<path d="M309.4448 272.7455
L309.3020 272.6740
" />
<path d="M309.3020 272.6740
L309.0163 272.6026
" />
<path d="M309.0163 272.6026
L308.8734 272.5312
" />
<path d="M308.8734 272.5312
L308.8020 272.4598
" />
<path d="M308.8020 272.4598
L308.7305 272.3169
" />
<path d="M308.7305 272.3169
L308.7305 272.1740
" />
<path d="M308.7305 272.1740
L308.8020 272.0312
" />
<path d="M308.8020 272.0312
L308.8734 271.9598
" />
<path d="M308.8734 271.9598
L309.0163 271.8883
" />
<path d="M309.0163 271.8883
L309.3734 271.8883
" />
<path d="M309.3734 271.8883
L309.5877 271.9598
" />
<path d="M310.0877 271.8883
L310.4448 273.3883
" />
<path d="M310.4448 273.3883
L310.7305 272.3169
" />
<path d="M310.7305 272.3169
L311.0163 273.3883
" />
<path d="M311.0163 273.3883
L311.3734 271.8883
" />
<path d="M312.5877 273.3883
L312.5877 272.6026
" />
<path d="M312.5877 272.6026
L312.5163 272.4598
" />
<path d="M312.5163 272.4598
L312.3734 272.3883
" />
<path d="M312.3734 272.3883
L312.0877 272.3883
" />
<path d="M312.0877 272.3883
L311.9448 272.4598
" />
<path d="M312.5877 273.3169
L312.4448 273.3883
" />
<path d="M312.4448 273.3883
L312.0877 273.3883
" />
<path d="M312.0877 273.3883
L311.9448 273.3169
" />
<path d="M311.9448 273.3169
L311.8734 273.1740
" />
<path d="M311.8734 273.1740
L311.8734 273.0312
" />
<path d="M311.8734 273.0312
L311.9448 272.8883
" />
<path d="M311.9448 272.8883
L312.0877 272.8169
" />
<path d="M312.0877 272.8169
L312.4448 272.8169
" />
<path d="M312.4448 272.8169
L312.5877 272.7455
" />
<path d="M313.0877 272.3883
L313.6591 272.3883
" />
<path d="M313.3020 271.8883
L313.3020 273.1740
" />
<path d="M313.3020 273.1740
L313.3734 273.3169
" />
<path d="M313.3734 273.3169
L313.5163 273.3883
" />
<path d="M313.5163 273.3883
L313.6591 273.3883
" />
<path d="M314.8020 273.3169
L314.6591 273.3883
" />
<path d="M314.6591 273.3883
L314.3734 273.3883
" />
<path d="M314.3734 273.3883
L314.2305 273.3169
" />
<path d="M314.2305 273.3169
L314.1591 273.2455
" />
<path d="M314.1591 273.2455
L314.0877 273.1026
" />
<path d="M314.0877 273.1026
L314.0877 272.6740
" />
<path d="M314.0877 272.6740
L314.1591 272.5312
" />
<path d="M314.1591 272.5312
L314.2305 272.4598
" />
<path d="M314.2305 272.4598
L314.3734 272.3883
" />
<path d="M314.3734 272.3883
L314.6591 272.3883
" />
<path d="M314.6591 272.3883
L314.8020 272.4598
" />
<path d="M315.4448 273.3883
L315.4448 271.8883
" />
<path d="M316.0877 273.3883
L316.0877 272.6026
" />
<path d="M316.0877 272.6026
L316.0163 272.4598
" />
<path d="M316.0163 272.4598
L315.8734 272.3883
" />
<path d="M315.8734 272.3883
L315.6591 272.3883
" />
<path d="M315.6591 272.3883
L315.5163 272.4598
" />
<path d="M315.5163 272.4598
L315.4448 272.5312
" />
<path d="M316.8020 272.8169
L317.9448 272.8169
" />
<path d="M318.6591 273.3883
L318.6591 271.8883
" />
<path d="M318.6591 271.8883
L319.0163 271.8883
" />
<path d="M319.0163 271.8883
L319.2305 271.9598
" />
<path d="M319.2305 271.9598
L319.3734 272.1026
" />
<path d="M319.3734 272.1026
L319.4448 272.2455
" />
<path d="M319.4448 272.2455
L319.5163 272.5312
" />
<path d="M319.5163 272.5312
L319.5163 272.7455
" />
<path d="M319.5163 272.7455
L319.4448 273.0312
" />
<path d="M319.4448 273.0312
L319.3734 273.1740
" />
<path d="M319.3734 273.1740
L319.2305 273.3169
" />
<path d="M319.2305 273.3169
L319.0163 273.3883
" />
<path d="M319.0163 273.3883
L318.6591 273.3883
" />
<path d="M320.3734 273.3883
L320.2305 273.3169
" />
<path d="M320.2305 273.3169
L320.1591 273.2455
" />
<path d="M320.1591 273.2455
L320.0877 273.1026
" />
<path d="M320.0877 273.1026
L320.0877 272.6740
" />
<path d="M320.0877 272.6740
L320.1591 272.5312
" />
<path d="M320.1591 272.5312
L320.2305 272.4598
" />
<path d="M320.2305 272.4598
L320.3734 272.3883
" />
<path d="M320.3734 272.3883
L320.5877 272.3883
" />
<path d="M320.5877 272.3883
L320.7305 272.4598
" />
<path d="M320.7305 272.4598
L320.8020 272.5312
" />
<path d="M320.8020 272.5312
L320.8734 272.6740
" />
<path d="M320.8734 272.6740
L320.8734 273.1026
" />
<path d="M320.8734 273.1026
L320.8020 273.2455
" />
<path d="M320.8020 273.2455
L320.7305 273.3169
" />
<path d="M320.7305 273.3169
L320.5877 273.3883
" />
<path d="M320.5877 273.3883
L320.3734 273.3883
" />
<path d="M322.1591 273.3169
L322.0163 273.3883
" />
<path d="M322.0163 273.3883
L321.7305 273.3883
" />
<path d="M321.7305 273.3883
L321.5877 273.3169
" />
<path d="M321.5877 273.3169
L321.5163 273.2455
" />
<path d="M321.5163 273.2455
L321.4448 273.1026
" />
<path d="M321.4448 273.1026
L321.4448 272.6740
" />
<path d="M321.4448 272.6740
L321.5163 272.5312
" />
<path d="M321.5163 272.5312
L321.5877 272.4598
" />
<path d="M321.5877 272.4598
L321.7305 272.3883
" />
<path d="M321.7305 272.3883
L322.0163 272.3883
" />
<path d="M322.0163 272.3883
L322.1591 272.4598
" />
<path d="M322.8020 273.3883
L322.8020 271.8883
" />
<path d="M322.9448 272.8169
L323.3734 273.3883
" />
<path d="M323.3734 272.3883
L322.8020 272.9598
" />
<path d="M324.0163 273.2455
L324.0877 273.3169
" />
<path d="M324.0877 273.3169
L324.0163 273.3883
" />
<path d="M324.0163 273.3883
L323.9448 273.3169
" />
<path d="M323.9448 273.3169
L324.0163 273.2455
" />
<path d="M324.0163 273.2455
L324.0163 273.3883
" />
<path d="M324.7305 273.3883
L324.7305 271.8883
" />
<path d="M324.8734 272.8169
L325.3020 273.3883
" />
<path d="M325.3020 272.3883
L324.7305 272.9598
" />
<path d="M325.9448 273.3883
L325.9448 272.3883
" />
<path d="M325.9448 271.8883
L325.8734 271.9598
" />
<path d="M325.8734 271.9598
L325.9448 272.0312
" />
<path d="M325.9448 272.0312
L326.0163 271.9598
" />
<path d="M326.0163 271.9598
L325.9448 271.8883
" />
<path d="M325.9448 271.8883
L325.9448 272.0312
" />
<path d="M327.3020 273.3169
L327.1591 273.3883
" />
<path d="M327.1591 273.3883
L326.8734 273.3883
" />
<path d="M326.8734 273.3883
L326.7305 273.3169
" />
<path d="M326.7305 273.3169
L326.6591 273.2455
" />
<path d="M326.6591 273.2455
L326.5877 273.1026
" />
<path d="M326.5877 273.1026
L326.5877 272.6740
" />
<path d="M326.5877 272.6740
L326.6591 272.5312
" />
<path d="M326.6591 272.5312
L326.7305 272.4598
" />
<path d="M326.7305 272.4598
L326.8734 272.3883
" />
<path d="M326.8734 272.3883
L327.1591 272.3883
" />
<path d="M327.1591 272.3883
L327.3020 272.4598
" />
<path d="M328.5877 273.3883
L328.5877 272.6026
" />
<path d="M328.5877 272.6026
L328.5163 272.4598
" />
<path d="M328.5163 272.4598
L328.3734 272.3883
" />
<path d="M328.3734 272.3883
L328.0877 272.3883
" />
<path d="M328.0877 272.3883
L327.9448 272.4598
" />
<path d="M328.5877 273.3169
L328.4448 273.3883
" />
<path d="M328.4448 273.3883
L328.0877 273.3883
" />
<path d="M328.0877 273.3883
L327.9448 273.3169
" />
<path d="M327.9448 273.3169
L327.8734 273.1740
" />
<path d="M327.8734 273.1740
L327.8734 273.0312
" />
<path d="M327.8734 273.0312
L327.9448 272.8883
" />
<path d="M327.9448 272.8883
L328.0877 272.8169
" />
<path d="M328.0877 272.8169
L328.4448 272.8169
" />
<path d="M328.4448 272.8169
L328.5877 272.7455
" />
<path d="M329.9448 273.3883
L329.9448 271.8883
" />
<path d="M329.9448 273.3169
L329.8020 273.3883
" />
<path d="M329.8020 273.3883
L329.5163 273.3883
" />
<path d="M329.5163 273.3883
L329.3734 273.3169
" />
<path d="M329.3734 273.3169
L329.3020 273.2455
" />
<path d="M329.3020 273.2455
L329.2305 273.1026
" />
<path d="M329.2305 273.1026
L329.2305 272.6740
" />
<path d="M329.2305 272.6740
L329.3020 272.5312
" />
<path d="M329.3020 272.5312
L329.3734 272.4598
" />
<path d="M329.3734 272.4598
L329.5163 272.3883
" />
<path d="M329.5163 272.3883
L329.8020 272.3883
" />
<path d="M329.8020 272.3883
L329.9448 272.4598
" />
<path d="M330.3020 273.5312
L331.4448 273.5312
" />
<path d="M331.8020 272.3883
L331.8020 273.8883
" />
<path d="M331.8020 272.4598
L331.9448 272.3883
" />
<path d="M331.9448 272.3883
L332.2305 272.3883
" />
<path d="M332.2305 272.3883
L332.3734 272.4598
" />
<path d="M332.3734 272.4598
L332.4448 272.5312
" />
<path d="M332.4448 272.5312
L332.5163 272.6740
" />
<path d="M332.5163 272.6740
L332.5163 273.1026
" />
<path d="M332.5163 273.1026
L332.4448 273.2455
" />
<path d="M332.4448 273.2455
L332.3734 273.3169
" />
<path d="M332.3734 273.3169
L332.2305 273.3883
" />
<path d="M332.2305 273.3883
L331.9448 273.3883
" />
<path d="M331.9448 273.3883
L331.8020 273.3169
" />
<path d="M333.8020 273.3169
L333.6591 273.3883
" />
<path d="M333.6591 273.3883
L333.3734 273.3883
" />
<path d="M333.3734 273.3883
L333.2305 273.3169
" />
<path d="M333.2305 273.3169
L333.1591 273.2455
" />
<path d="M333.1591 273.2455
L333.0877 273.1026
" />
<path d="M333.0877 273.1026
L333.0877 272.6740
" />
<path d="M333.0877 272.6740
L333.1591 272.5312
" />
<path d="M333.1591 272.5312
L333.2305 272.4598
" />
<path d="M333.2305 272.4598
L333.3734 272.3883
" />
<path d="M333.3734 272.3883
L333.6591 272.3883
" />
<path d="M333.6591 272.3883
L333.8020 272.4598
" />
<path d="M334.4448 273.3883
L334.4448 271.8883
" />
<path d="M334.4448 272.4598
L334.5877 272.3883
" />
<path d="M334.5877 272.3883
L334.8734 272.3883
" />
<path d="M334.8734 272.3883
L335.0163 272.4598
" />
<path d="M335.0163 272.4598
L335.0877 272.5312
" />
<path d="M335.0877 272.5312
L335.1591 272.6740
" />
<path d="M335.1591 272.6740
L335.1591 273.1026
" />
<path d="M335.1591 273.1026
L335.0877 273.2455
" />
<path d="M335.0877 273.2455
L335.0163 273.3169
" />
<path d="M335.0163 273.3169
L334.8734 273.3883
" />
<path d="M334.8734 273.3883
L334.5877 273.3883
" />
<path d="M334.5877 273.3883
L334.4448 273.3169
" />
</g></g>
<g style="fill:none; 
stroke:#000000; stroke-width:0.1500; stroke-opacity:1; 
stroke-linecap:round; stroke-linejoin:round;">
<path d="M299.9890 268.5022
L407.9890 268.5022
" />
</g>
<g style="fill:none; 
stroke:#000000; stroke-width:0.1500; stroke-opacity:1; 
stroke-linecap:round; stroke-linejoin:round;">
<text x="300.9890" y="270.7522"
textLength="8.2214" font-size="2.0000" lengthAdjust="spacingAndGlyphs"
text-anchor="start" opacity="0" stroke-opacity="0">Sheet: </text>
<g class="stroked-text"><desc>Sheet: </desc>
<path d="M301.3734 270.6169
L301.5877 270.6883
" />
<path d="M301.5877 270.6883
L301.9448 270.6883
" />
<path d="M301.9448 270.6883
L302.0877 270.6169
" />
<path d="M302.0877 270.6169
L302.1591 270.5455
" />
<path d="M302.1591 270.5455
L302.2305 270.4026
" />
<path d="M302.2305 270.4026
L302.2305 270.2598
" />
<path d="M302.2305 270.2598
L302.1591 270.1169
" />
<path d="M302.1591 270.1169
L302.0877 270.0455
" />
<path d="M302.0877 270.0455
L301.9448 269.9740
" />
<path d="M301.9448 269.9740
L301.6591 269.9026
" />
<path d="M301.6591 269.9026
L301.5163 269.8312
" />
<path d="M301.5163 269.8312
L301.4448 269.7598
" />
<path d="M301.4448 269.7598
L301.3734 269.6169
" />
<path d="M301.3734 269.6169
L301.3734 269.4740
" />
<path d="M301.3734 269.4740
L301.4448 269.3312
" />
<path d="M301.4448 269.3312
L301.5163 269.2598
" />
<path d="M301.5163 269.2598
L301.6591 269.1883
" />
<path d="M301.6591 269.1883
L302.0163 269.1883
" />
<path d="M302.0163 269.1883
L302.2305 269.2598
" />
<path d="M302.8734 270.6883
L302.8734 269.1883
" />
<path d="M303.5163 270.6883
L303.5163 269.9026
" />
<path d="M303.5163 269.9026
L303.4448 269.7598
" />
<path d="M303.4448 269.7598
L303.3020 269.6883
" />
<path d="M303.3020 269.6883
L303.0877 269.6883
" />
<path d="M303.0877 269.6883
L302.9448 269.7598
" />
<path d="M302.9448 269.7598
L302.8734 269.8312
" />
<path d="M304.8020 270.6169
L304.6591 270.6883
" />
<path d="M304.6591 270.6883
L304.3734 270.6883
" />
<path d="M304.3734 270.6883
L304.2305 270.6169
" />
<path d="M304.2305 270.6169
L304.1591 270.4740
" />
<path d="M304.1591 270.4740
L304.1591 269.9026
" />
<path d="M304.1591 269.9026
L304.2305 269.7598
" />
<path d="M304.2305 269.7598
L304.3734 269.6883
" />
<path d="M304.3734 269.6883
L304.6591 269.6883
" />
<path d="M304.6591 269.6883
L304.8020 269.7598
" />
<path d="M304.8020 269.7598
L304.8734 269.9026
" />
<path d="M304.8734 269.9026
L304.8734 270.0455
" />
<path d="M304.8734 270.0455
L304.1591 270.1883
" />
<path d="M306.0877 270.6169
L305.9448 270.6883
" />
<path d="M305.9448 270.6883
L305.6591 270.6883
" />
<path d="M305.6591 270.6883
L305.5163 270.6169
" />
<path d="M305.5163 270.6169
L305.4448 270.4740
" />
<path d="M305.4448 270.4740
L305.4448 269.9026
" />
<path d="M305.4448 269.9026
L305.5163 269.7598
" />
<path d="M305.5163 269.7598
L305.6591 269.6883
" />
<path d="M305.6591 269.6883
L305.9448 269.6883
" />
<path d="M305.9448 269.6883
L306.0877 269.7598
" />
<path d="M306.0877 269.7598
L306.1591 269.9026
" />
<path d="M306.1591 269.9026
L306.1591 270.0455
" />
<path d="M306.1591 270.0455
L305.4448 270.1883
" />
<path d="M306.5877 269.6883
L307.1591 269.6883
" />
<path d="M306.8020 269.1883
L306.8020 270.4740
" />
<path d="M306.8020 270.4740
L306.8734 270.6169
" />
<path d="M306.8734 270.6169
L307.0163 270.6883
" />
<path d="M307.0163 270.6883
L307.1591 270.6883
" />
<path d="M307.6591 270.5455
L307.7305 270.6169
" />
<path d="M307.7305 270.6169
L307.6591 270.6883
" />
<path d="M307.6591 270.6883
L307.5877 270.6169
" />
<path d="M307.5877 270.6169
L307.6591 270.5455
" />
<path d="M307.6591 270.5455
L307.6591 270.6883
" />
<path d="M307.6591 269.7598
L307.7305 269.8312
" />
<path d="M307.7305 269.8312
L307.6591 269.9026
" />
<path d="M307.6591 269.9026
L307.5877 269.8312
" />
<path d="M307.5877 269.8312
L307.6591 269.7598
" />
<path d="M307.6591 269.7598
L307.6591 269.9026
" />
</g></g>
<g style="fill:none; 
stroke:#000000; stroke-width:0.3000; stroke-opacity:1; 
stroke-linecap:round; stroke-linejoin:round;">
<text x="300.9890" y="267.7522"
textLength="0.9000" font-size="2.0000" lengthAdjust="spacingAndGlyphs"
text-anchor="start" opacity="0" stroke-opacity="0"></text>
<g class="stroked-text"><desc></desc>
</g></g>
<g style="fill:none; 
stroke:#000000; stroke-width:0.1500; stroke-opacity:1; 
stroke-linecap:round; stroke-linejoin:round;">
<text x="300.9890" y="264.7522"
textLength="9.5786" font-size="2.0000" lengthAdjust="spacingAndGlyphs"
text-anchor="start" opacity="0" stroke-opacity="0">ZSWatch</text>
<g class="stroked-text"><desc>ZSWatch</desc>
<path d="M301.3020 263.1883
L302.3020 263.1883
" />
<path d="M302.3020 263.1883
L301.3020 264.6883
" />
<path d="M301.3020 264.6883
L302.3020 264.6883
" />
<path d="M302.8020 264.6169
L303.0163 264.6883
" />
<path d="M303.0163 264.6883
L303.3734 264.6883
" />
<path d="M303.3734 264.6883
L303.5163 264.6169
" />
<path d="M303.5163 264.6169
L303.5877 264.5455
" />
<path d="M303.5877 264.5455
L303.6591 264.4026
" />
<path d="M303.6591 264.4026
L303.6591 264.2598
" />
<path d="M303.6591 264.2598
L303.5877 264.1169
" />
<path d="M303.5877 264.1169
L303.5163 264.0455
" />
<path d="M303.5163 264.0455
L303.3734 263.9740
" />
<path d="M303.3734 263.9740
L303.0877 263.9026
" />
<path d="M303.0877 263.9026
L302.9448 263.8312
" />
<path d="M302.9448 263.8312
L302.8734 263.7598
" />
<path d="M302.8734 263.7598
L302.8020 263.6169
" />
<path d="M302.8020 263.6169
L302.8020 263.4740
" />
<path d="M302.8020 263.4740
L302.8734 263.3312
" />
<path d="M302.8734 263.3312
L302.9448 263.2598
" />
<path d="M302.9448 263.2598
L303.0877 263.1883
" />
<path d="M303.0877 263.1883
L303.4448 263.1883
" />
<path d="M303.4448 263.1883
L303.6591 263.2598
" />
<path d="M304.1591 263.1883
L304.5163 264.6883
" />
<path d="M304.5163 264.6883
L304.8020 263.6169
" />
<path d="M304.8020 263.6169
L305.0877 264.6883
" />
<path d="M305.0877 264.6883
L305.4448 263.1883
" />
<path d="M306.6591 264.6883
L306.6591 263.9026
" />
<path d="M306.6591 263.9026
L306.5877 263.7598
" />
<path d="M306.5877 263.7598
L306.4448 263.6883
" />
<path d="M306.4448 263.6883
L306.1591 263.6883
" />
<path d="M306.1591 263.6883
L306.0163 263.7598
" />
<path d="M306.6591 264.6169
L306.5163 264.6883
" />
<path d="M306.5163 264.6883
L306.1591 264.6883
" />
<path d="M306.1591 264.6883
L306.0163 264.6169
" />
<path d="M306.0163 264.6169
L305.9448 264.4740
" />
<path d="M305.9448 264.4740
L305.9448 264.3312
" />
<path d="M305.9448 264.3312
L306.0163 264.1883
" />
<path d="M306.0163 264.1883
L306.1591 264.1169
" />
<path d="M306.1591 264.1169
L306.5163 264.1169
" />
<path d="M306.5163 264.1169
L306.6591 264.0455
" />
<path d="M307.1591 263.6883
L307.7305 263.6883
" />
<path d="M307.3734 263.1883
L307.3734 264.4740
" />
<path d="M307.3734 264.4740
L307.4448 264.6169
" />
<path d="M307.4448 264.6169
L307.5877 264.6883
" />
<path d="M307.5877 264.6883
L307.7305 264.6883
" />
<path d="M308.8734 264.6169
L308.7305 264.6883
" />
<path d="M308.7305 264.6883
L308.4448 264.6883
" />
<path d="M308.4448 264.6883
L308.3020 264.6169
" />
<path d="M308.3020 264.6169
L308.2305 264.5455
" />
<path d="M308.2305 264.5455
L308.1591 264.4026
" />
<path d="M308.1591 264.4026
L308.1591 263.9740
" />
<path d="M308.1591 263.9740
L308.2305 263.8312
" />
<path d="M308.2305 263.8312
L308.3020 263.7598
" />
<path d="M308.3020 263.7598
L308.4448 263.6883
" />
<path d="M308.4448 263.6883
L308.7305 263.6883
" />
<path d="M308.7305 263.6883
L308.8734 263.7598
" />
<path d="M309.5163 264.6883
L309.5163 263.1883
" />
<path d="M310.1591 264.6883
L310.1591 263.9026
" />
<path d="M310.1591 263.9026
L310.0877 263.7598
" />
<path d="M310.0877 263.7598
L309.9448 263.6883
" />
<path d="M309.9448 263.6883
L309.7305 263.6883
" />
<path d="M309.7305 263.6883
L309.5877 263.7598
" />
<path d="M309.5877 263.7598
L309.5163 263.8312
" />
</g></g>
<g style="fill:none; 
stroke:#000000; stroke-width:0.1500; stroke-opacity:1; 
stroke-linecap:round; stroke-linejoin:round;">
<text x="300.9890" y="261.7522"
textLength="0.4500" font-size="2.0000" lengthAdjust="spacingAndGlyphs"
text-anchor="start" opacity="0" stroke-opacity="0"></text>
<g class="stroked-text"><desc></desc>
</g></g>
<g style="fill:none; 
stroke:#000000; stroke-width:0.1500; stroke-opacity:1; 
stroke-linecap:round; stroke-linejoin:round;">
<text x="300.9890" y="258.7522"
textLength="0.4500" font-size="2.0000" lengthAdjust="spacingAndGlyphs"
text-anchor="start" opacity="0" stroke-opacity="0"></text>
<g class="stroked-text"><desc></desc>
</g></g>
<g style="fill:none; 
stroke:#000000; stroke-width:0.1500; stroke-opacity:1; 
stroke-linecap:round; stroke-linejoin:round;">
<text x="300.9890" y="255.7522"
textLength="0.4500" font-size="2.0000" lengthAdjust="spacingAndGlyphs"
text-anchor="start" opacity="0" stroke-opacity="0"></text>
<g class="stroked-text"><desc></desc>
</g></g>
<g style="fill:none; 
stroke:#000000; stroke-width:0.1500; stroke-opacity:1; 
stroke-linecap:round; stroke-linejoin:round;">
<path d="M319.9890 278.5022
L319.9890 281.5022
" />
</g>
<g style="fill:none; 
stroke:#000000; stroke-width:0.1500; stroke-opacity:1; 
stroke-linecap:round; stroke-linejoin:round;">
<path d="M383.9890 278.5022
L383.9890 285.0022
" />
</g>
<g style="fill:none; 
stroke:#000000; stroke-width:0.0500; stroke-opacity:1; 
stroke-linecap:round; stroke-linejoin:round;">
<path d="M169.7000 123.1000 A2.0000 2.0000 0.0 0 0 167.7000 125.1000" />
<path d="M167.7000 169.1000
L167.7000 125.1000
" />
<path d="M167.7000 169.1000 A2.0000 2.0000 0.0 0 0 169.7000 171.1000" />
<path d="M247.7000 125.1000 A2.0000 2.0000 0.0 0 0 245.7000 123.1000" />
<path d="M245.7000 171.1000
L169.7000 171.1000
" />
<path d="M247.7000 125.1000
L247.7000 169.1000
" />
<path d="M169.7000 123.1000
L245.7000 123.1000
" />
<path d="M245.7000 171.1000 A2.0000 2.0000 0.0 0 0 247.7000 169.1000" />
<path style="fill:none; 
stroke:#000000; stroke-width:0.1500; stroke-opacity:1; 
stroke-linecap:round; stroke-linejoin:round;fill:none"
d="M 266.0000,97.0000
392.0000,97.0000
392.0000,201.0000
266.0000,201.0000
Z" /> 
<path style="fill:none; 
stroke:#000000; stroke-width:0.4000; stroke-opacity:1; 
stroke-linecap:round; stroke-linejoin:round;fill:none"
d="M 30.1000,224.2000
93.7874,224.2000
93.7874,253.3050
30.1000,253.3050
Z" /> 
<path style="fill:#000000; fill-opacity:1.0000; stroke:none;fill-rule:evenodd;"
d="M 32.4014,217.1079
32.4014,218.0692
32.3215,218.0692
32.2638,217.8825
32.1880,217.7258
32.0953,217.5948
31.9854,217.4863
31.8128,217.3730
31.6285,217.3063
31.4280,217.2837
31.2592,217.3005
31.1011,217.3503
30.9506,217.4343
30.8183,217.5453
30.7131,217.6758
30.6330,217.8280
30.5623,218.0391
30.5188,218.2691
30.5038,218.5208
30.5148,218.7696
30.5467,218.9966
30.5980,219.2042
30.6764,219.4003
30.7751,219.5532
30.8931,219.6700
31.0348,219.7553
31.2059,219.8087
31.4137,219.8278
31.5857,219.8147
31.7451,219.7762
31.8942,219.7127
32.0317,219.6253
32.1843,219.4961
32.3543,219.3158
32.3543,219.5556
32.1911,219.7027
32.0292,219.8154
31.8676,219.8976
31.6957,219.9549
31.4999,219.9910
31.2763,220.0036
30.9842,219.9829
30.7225,219.9230
30.4862,219.8259
30.3222,219.7265
30.1798,219.6089
30.0572,219.4724
29.9534,219.3154
29.8488,219.0876
29.7868,218.8525
29.7660,218.6069
29.7889,218.3482
29.8576,218.0989
29.9739,217.8553
30.0880,217.6863
30.2190,217.5391
30.3677,217.4120
30.5355,217.3039
30.7773,217.1945
31.0266,217.1296
31.2866,217.1079
31.4801,217.1204
31.6858,217.1591
31.9055,217.2266
32.0787,217.2835
32.1453,217.2955
32.2065,217.2842
32.2591,217.2506
32.2971,217.1961
32.3215,217.1079
Z" /> 
<path style="fill:#000000; fill-opacity:1.0000; stroke:none;fill-rule:evenodd;"
d="M 33.8388,217.9898
33.9931,218.0326
34.1409,218.1044
34.2724,218.2019
34.3808,218.3231
34.4677,218.4707
34.5293,218.6323
34.5667,218.8049
34.5794,218.9906
34.5655,219.1932
34.5254,219.3719
34.4610,219.5306
34.3724,219.6721
34.2352,219.8174
34.0775,219.9194
33.8952,219.9818
33.6818,220.0036
33.4709,219.9832
33.2938,219.9254
33.1435,219.8321
33.0158,219.7008
32.9137,219.5435
32.8413,219.3757
32.7973,219.1950
32.7942,219.1548
33.3827,219.1548
33.3901,219.3706
33.4115,219.5653
33.4489,219.6984
33.5076,219.7871
33.5878,219.8445
33.6758,219.8629
33.7617,219.8496
33.8295,219.8116
33.8947,219.7303
33.9359,219.6166
33.9638,219.3724
33.9770,218.8283
33.9648,218.5065
33.9379,218.3491
33.8873,218.2322
33.8233,218.1592
33.7638,218.1275
33.6839,218.1161
33.5873,218.1357
33.5045,218.1952
33.4656,218.2537
33.4315,218.3522
33.4062,218.5072
33.3894,218.7632
33.3827,219.1548
32.7942,219.1548
32.7822,218.9987
32.7977,218.7962
32.8428,218.6111
32.9169,218.4404
33.0209,218.2815
33.1514,218.1477
33.3011,218.0534
33.4739,217.9956
33.6758,217.9754
Z" /> 
<path style="fill:#000000; fill-opacity:1.0000; stroke:none;fill-rule:evenodd;"
d="M 35.6657,218.0340
35.6657,218.2975
35.8263,218.1378
35.9577,218.0469
36.0975,217.9935
36.2517,217.9754
36.3719,217.9860
36.4739,218.0161
36.5611,218.0645
36.6355,218.1312
36.6998,218.2203
36.7538,218.3359
36.9222,218.1648
37.0683,218.0602
37.2234,217.9963
37.3830,217.9754
37.5127,217.9867
37.6164,218.0179
37.6996,218.0668
37.7996,218.1707
37.8635,218.2991
37.8959,218.4608
37.9097,218.7479
37.9097,219.5347
37.9230,219.7319
37.9496,219.8060
38.0040,219.8463
38.1167,219.8747
38.1167,219.9450
37.1268,219.9450
37.1268,219.8747
37.2305,219.8462
37.2990,219.7856
37.3239,219.7128
37.3360,219.5347
37.3360,218.7166
37.3291,218.4850
37.3154,218.3933
37.2879,218.3312
37.2508,218.2905
37.2034,218.2654
37.1473,218.2568
37.0613,218.2719
36.9690,218.3207
36.8827,218.3962
36.7866,218.5125
36.7866,219.5347
36.7982,219.7198
36.8214,219.7917
36.8592,219.8319
36.9169,219.8601
37.0018,219.8747
37.0018,219.9450
36.0099,219.9450
36.0099,219.8747
36.0839,219.8620
36.1359,219.8353
36.1749,219.7956
36.1975,219.7503
36.2079,219.6863
36.2129,219.5347
36.2129,218.7180
36.2060,218.4834
36.1924,218.3949
36.1644,218.3363
36.1237,218.2934
36.0731,218.2657
36.0202,218.2568
35.9416,218.2674
35.8707,218.2991
35.7778,218.3770
35.6657,218.5125
35.6657,219.5347
35.6784,219.7173
35.7056,219.7988
35.7614,219.8468
35.8727,219.8747
35.8727,219.9450
34.8848,219.9450
34.8848,219.8747
34.9927,219.8474
35.0570,219.7977
35.0798,219.7313
35.0918,219.5347
35.0918,218.4444
35.0785,218.2484
35.0519,218.1740
34.9974,218.1331
34.8848,218.1044
34.8848,218.0340
Z" /> 
<path style="fill:#000000; fill-opacity:1.0000; stroke:none;fill-rule:evenodd;"
d="M 39.7761,217.9901
39.9032,218.0340
40.0240,218.1084
40.1283,218.2061
40.2160,218.3274
40.2874,218.4759
40.3370,218.6343
40.3672,218.8020
40.3775,218.9804
40.3667,219.1723
40.3353,219.3486
40.2843,219.5114
40.2102,219.6633
40.1200,219.7839
40.0137,219.8778
39.8907,219.9479
39.7602,219.9895
39.6193,220.0036
39.4661,219.9861
39.3242,219.9340
39.2247,219.8664
39.1090,219.7516
39.1090,220.4726
39.1163,220.6090
39.1324,220.6744
39.1627,220.7210
39.2052,220.7526
39.2664,220.7696
39.3979,220.7774
39.3979,220.8477
38.3055,220.8477
38.3055,220.7774
38.4203,220.7558
38.4940,220.7054
38.5215,220.6383
38.5351,220.4608
38.5351,218.5206
39.1090,218.5206
39.1090,219.5427
39.2078,219.6613
39.3023,219.7371
39.3941,219.7791
39.4862,219.7926
39.5537,219.7804
39.6136,219.7432
39.6684,219.6759
39.7203,219.5534
39.7592,219.3467
39.7750,219.0205
39.7579,218.6866
39.7154,218.4721
39.6582,218.3425
39.5987,218.2740
39.5301,218.2349
39.4492,218.2216
39.3573,218.2376
39.2719,218.2869
39.1893,218.3767
39.1090,218.5206
38.5351,218.5206
38.5351,218.4326
38.5198,218.2469
38.4878,218.1698
38.4260,218.1276
38.3055,218.1044
38.3055,218.0340
39.1090,218.0340
39.1090,218.2861
39.2154,218.1539
39.3140,218.0729
39.4171,218.0185
39.5251,217.9863
39.6398,217.9754
Z" /> 
<path style="fill:#000000; fill-opacity:1.0000; stroke:none;fill-rule:evenodd;"
d="M 41.7670,217.9898
41.9212,218.0326
42.0690,218.1044
42.2005,218.2019
42.3089,218.3231
42.3958,218.4707
42.4574,218.6323
42.4948,218.8049
42.5076,218.9906
42.4936,219.1932
42.4536,219.3719
42.3891,219.5306
42.3006,219.6721
42.1633,219.8174
42.0056,219.9194
41.8233,219.9818
41.6100,220.0036
41.3990,219.9832
41.2219,219.9254
41.0717,219.8321
40.9439,219.7008
40.8419,219.5435
40.7694,219.3757
40.7254,219.1950
40.7223,219.1548
41.3108,219.1548
41.3183,219.3706
41.3396,219.5653
41.3770,219.6984
41.4358,219.7871
41.5160,219.8445
41.6039,219.8629
41.6898,219.8496
41.7576,219.8116
41.8229,219.7303
41.8640,219.6166
41.8919,219.3724
41.9051,218.8283
41.8929,218.5065
41.8661,218.3491
41.8154,218.2322
41.7514,218.1592
41.6919,218.1275
41.6120,218.1161
41.5154,218.1357
41.4326,218.1952
41.3937,218.2537
41.3597,218.3522
41.3343,218.5072
41.3175,218.7632
41.3108,219.1548
40.7223,219.1548
40.7104,218.9987
40.7258,218.7962
40.7709,218.6111
40.8450,218.4404
40.9490,218.2815
41.0795,218.1477
41.2292,218.0534
41.4020,217.9956
41.6039,217.9754
Z" /> 
<path style="fill:#000000; fill-opacity:1.0000; stroke:none;fill-rule:evenodd;"
d="M 43.5816,218.0340
43.5816,218.2920
43.7327,218.1431
43.8642,218.0509
44.0046,217.9943
44.1553,217.9754
44.2758,217.9877
44.3776,218.0225
44.4647,218.0793
44.5378,218.1544
44.5921,218.2397
44.6286,218.3370
44.6510,218.4808
44.6614,218.7869
44.6614,219.5347
44.6747,219.7320
44.7014,219.8069
44.7559,219.8476
44.8684,219.8747
44.8684,219.9450
43.8992,219.9450
43.8992,219.8747
43.9946,219.8441
44.0549,219.7856
44.0768,219.7161
44.0877,219.5347
44.0877,218.6827
44.0815,218.4685
44.0692,218.3859
44.0438,218.3305
44.0067,218.2907
43.9602,218.2652
43.9095,218.2568
43.8307,218.2701
43.7516,218.3121
43.6690,218.3898
43.5816,218.5147
43.5816,219.5347
43.5947,219.7271
43.6215,219.8039
43.6741,219.8477
43.7701,219.8747
43.7701,219.9450
42.8007,219.9450
42.8007,219.8747
42.9085,219.8474
42.9728,219.7977
42.9957,219.7313
43.0076,219.5347
43.0076,218.4444
42.9943,218.2484
42.9677,218.1740
42.9132,218.1331
42.8007,218.1044
42.8007,218.0340
Z" /> 
<path style="fill:#000000; fill-opacity:1.0000; stroke:none;fill-rule:evenodd;"
d="M 46.1585,217.9901
46.2874,218.0337
46.4086,218.1074
46.5240,218.2148
46.6132,218.3391
46.6829,218.4944
46.7313,218.6870
46.7546,218.9250
45.7034,218.9250
45.7248,219.1132
45.7670,219.2721
45.8278,219.4062
45.9063,219.5193
46.0096,219.6143
46.1216,219.6688
46.2465,219.6871
46.3639,219.6698
46.4698,219.6182
46.5659,219.5309
46.6850,219.3705
46.7546,219.4174
46.6384,219.6233
46.5237,219.7704
46.4103,219.8704
46.2792,219.9439
46.1349,219.9884
45.9739,220.0036
45.8061,219.9895
45.6612,219.9493
45.5351,219.8845
45.4247,219.7943
45.3284,219.6761
45.2330,219.4925
45.1733,219.2766
45.1522,219.0212
45.1701,218.7830
45.1875,218.7135
45.6931,218.7135
45.6931,218.7844
46.2505,218.7844
46.2393,218.4837
46.2146,218.3368
46.1670,218.2271
46.1031,218.1526
46.0546,218.1258
45.9882,218.1161
45.9225,218.1272
45.8653,218.1604
45.8140,218.2194
45.7501,218.3454
45.7084,218.5070
45.6931,218.7135
45.1875,218.7135
45.2207,218.5804
45.3013,218.4073
45.4114,218.2590
45.5508,218.1318
45.6967,218.0445
45.8517,217.9929
46.0190,217.9754
Z" /> 
<path style="fill:#000000; fill-opacity:1.0000; stroke:none;fill-rule:evenodd;"
d="M 47.7786,218.0340
47.7786,218.2920
47.9297,218.1431
48.0613,218.0509
48.2017,217.9943
48.3524,217.9754
48.4729,217.9877
48.5747,218.0225
48.6617,218.0793
48.7349,218.1544
48.7892,218.2397
48.8257,218.3370
48.8481,218.4808
48.8585,218.7869
48.8585,219.5347
48.8718,219.7320
48.8984,219.8069
48.9529,219.8476
49.0655,219.8747
49.0655,219.9450
48.0963,219.9450
48.0963,219.8747
48.1917,219.8441
48.2520,219.7856
48.2738,219.7161
48.2848,219.5347
48.2848,218.6827
48.2786,218.4685
48.2663,218.3859
48.2409,218.3305
48.2038,218.2907
48.1572,218.2652
48.1065,218.2568
48.0278,218.2701
47.9486,218.3121
47.8661,218.3898
47.7786,218.5147
47.7786,219.5347
47.7917,219.7271
47.8186,219.8039
47.8711,219.8477
47.9671,219.8747
47.9671,219.9450
46.9977,219.9450
46.9977,219.8747
47.1056,219.8474
47.1699,219.7977
47.1927,219.7313
47.2047,219.5347
47.2047,218.4444
47.1914,218.2484
47.1648,218.1740
47.1103,218.1331
46.9977,218.1044
46.9977,218.0340
Z" /> 
<path style="fill:#000000; fill-opacity:1.0000; stroke:none;fill-rule:evenodd;"
d="M 50.0891,217.3306
50.0891,218.0340
50.5439,218.0340
50.5439,218.2333
50.0891,218.2333
50.0891,219.4130
50.0942,219.5642
50.1045,219.6266
50.1258,219.6702
50.1587,219.7043
50.1981,219.7273
50.2305,219.7340
50.3105,219.7165
50.3931,219.6591
50.4826,219.5464
50.5439,219.5898
50.4650,219.7323
50.3731,219.8366
50.2679,219.9091
50.1467,219.9531
50.0050,219.9684
49.8870,219.9566
49.7853,219.9228
49.6965,219.8673
49.5910,219.7570
49.5357,219.6415
49.5222,219.5434
49.5152,219.2654
49.5152,218.2333
49.2652,218.2333
49.2652,218.1617
49.5086,217.9711
49.7048,217.7789
49.8738,217.5677
50.0215,217.3306
Z" /> 
<path style="fill:#000000; fill-opacity:1.0000; stroke:none;fill-rule:evenodd;"
d="M 51.9380,217.9871
51.9687,218.6437
51.8989,218.6437
51.8048,218.4440
51.7186,218.3108
51.6397,218.2277
51.5458,218.1632
51.4575,218.1275
51.3723,218.1161
51.2942,218.1304
51.2287,218.1729
51.1838,218.2347
51.1693,218.3037
51.1791,218.3570
51.2104,218.4108
51.3087,218.5044
51.5771,218.7003
51.7752,218.8462
51.9010,218.9602
51.9737,219.0485
52.0266,219.1476
52.0583,219.2537
52.0691,219.3689
52.0495,219.5266
51.9891,219.6843
51.9279,219.7801
51.8531,219.8585
51.7638,219.9212
51.6117,219.9827
51.4421,220.0036
51.2955,219.9858
51.0752,219.9201
50.9911,219.8981
50.9326,219.9188
50.8784,219.9919
50.8108,219.9919
50.7781,219.3002
50.8477,219.3002
50.9213,219.4813
51.0060,219.6195
51.1006,219.7223
51.2138,219.8050
51.3140,219.8493
51.4051,219.8629
51.4957,219.8473
51.5659,219.8021
51.6128,219.7348
51.6284,219.6548
51.6128,219.5622
51.5668,219.4837
51.4839,219.4063
51.2922,219.2654
51.0108,219.0532
50.8865,218.9315
50.8106,218.8133
50.7662,218.6899
50.7513,218.5585
50.7681,218.4157
50.8181,218.2826
50.9039,218.1559
50.9862,218.0788
51.0849,218.0230
51.2031,217.9879
51.3456,217.9754
51.4978,217.9940
51.6469,218.0505
51.7006,218.0745
51.7370,218.0809
51.7964,218.0668
51.8682,217.9871
Z" /> 
</g> 
</svg>
