%TF.GenerationSoftware,KiCad,Pcbnew,9.0.1+1*%
%TF.CreationDate,2025-09-18T10:25:19+00:00*%
%TF.ProjectId,ZSWatch-Dock,5a535761-7463-4682-9d44-6f636b2e6b69,2.2.0*%
%TF.SameCoordinates,Original*%
%TF.FileFunction,Copper,L2,Inr*%
%TF.FilePolarity,Positive*%
%FSLAX46Y46*%
G04 Gerber Fmt 4.6, Leading zero omitted, Abs format (unit mm)*
G04 Created by KiCad (PCBNEW 9.0.1+1) date 2025-09-18 10:25:19*
%MOMM*%
%LPD*%
G01*
G04 APERTURE LIST*
%TA.AperFunction,ComponentPad*%
%ADD10C,0.800000*%
%TD*%
%TA.AperFunction,ComponentPad*%
%ADD11C,6.400000*%
%TD*%
%TA.AperFunction,HeatsinkPad*%
%ADD12O,1.400000X0.800000*%
%TD*%
%TA.AperFunction,ComponentPad*%
%ADD13R,1.700000X1.700000*%
%TD*%
%TA.AperFunction,ComponentPad*%
%ADD14C,1.700000*%
%TD*%
%TA.AperFunction,ViaPad*%
%ADD15C,0.450000*%
%TD*%
%TA.AperFunction,ViaPad*%
%ADD16C,0.800000*%
%TD*%
G04 APERTURE END LIST*
D10*
%TO.N,N/C*%
%TO.C,REF\u002A\u002A*%
X241300000Y-167100000D03*
X242002944Y-165402944D03*
X242002944Y-168797056D03*
X243700000Y-164700000D03*
D11*
X243700000Y-167100000D03*
D10*
X243700000Y-169500000D03*
X245397056Y-165402944D03*
X245397056Y-168797056D03*
X246100000Y-167100000D03*
%TD*%
D12*
%TO.N,GND*%
%TO.C,X403*%
X246565000Y-152810000D03*
X240615000Y-152450000D03*
X240615000Y-144190000D03*
X246565000Y-143830000D03*
%TD*%
D13*
%TO.N,Net-(X405-Pin_1)*%
%TO.C,X405*%
X178925000Y-130285000D03*
D14*
%TO.N,Net-(Q401-D)*%
X181465000Y-130285000D03*
%TD*%
D13*
%TO.N,RxD_{LV}*%
%TO.C,X402*%
X213900000Y-168200000D03*
D14*
%TO.N,GND*%
X211360000Y-168200000D03*
%TO.N,TxD_{LV}*%
X208820000Y-168200000D03*
%TD*%
D10*
%TO.N,N/C*%
%TO.C,REF\u002A\u002A*%
X241300000Y-127100000D03*
X242002944Y-125402944D03*
X242002944Y-128797056D03*
X243700000Y-124700000D03*
D11*
X243700000Y-127100000D03*
D10*
X243700000Y-129500000D03*
X245397056Y-125402944D03*
X245397056Y-128797056D03*
X246100000Y-127100000D03*
%TD*%
%TO.N,N/C*%
%TO.C,REF\u002A\u002A*%
X169300000Y-167100000D03*
X170002944Y-165402944D03*
X170002944Y-168797056D03*
X171700000Y-164700000D03*
D11*
X171700000Y-167100000D03*
D10*
X171700000Y-169500000D03*
X173397056Y-165402944D03*
X173397056Y-168797056D03*
X174100000Y-167100000D03*
%TD*%
D13*
%TO.N,+3V3*%
%TO.C,J402*%
X213500000Y-125900000D03*
D14*
%TO.N,Net-(D401-K)*%
X213500000Y-128440000D03*
%TO.N,+1V8*%
X213500000Y-130980000D03*
%TD*%
D10*
%TO.N,N/C*%
%TO.C,REF\u002A\u002A*%
X169300000Y-127100000D03*
X170002944Y-125402944D03*
X170002944Y-128797056D03*
X171700000Y-124700000D03*
D11*
X171700000Y-127100000D03*
D10*
X171700000Y-129500000D03*
X173397056Y-125402944D03*
X173397056Y-128797056D03*
X174100000Y-127100000D03*
%TD*%
D15*
%TO.N,GND*%
X227375000Y-140925000D03*
X237000000Y-142800000D03*
X232865000Y-143300000D03*
X235562500Y-148462500D03*
X196600000Y-127200000D03*
X222200000Y-153000000D03*
X178700000Y-146500000D03*
X198600000Y-146850000D03*
X207640000Y-128000000D03*
X223925000Y-135775000D03*
X178125000Y-167525000D03*
X225800000Y-146725000D03*
X196175000Y-150700000D03*
X218825000Y-150900000D03*
X196412500Y-125200000D03*
X223125000Y-141475000D03*
X198150000Y-130950000D03*
X230000000Y-140700000D03*
X217450000Y-135925000D03*
X203300000Y-126300000D03*
X222450000Y-135725000D03*
X226600000Y-139700000D03*
X212175000Y-144900000D03*
X226600000Y-138200000D03*
X192287500Y-130000000D03*
X229200000Y-144600000D03*
X216050000Y-142725000D03*
X213725000Y-150300000D03*
X169750000Y-145150000D03*
X224150000Y-150900000D03*
X239520000Y-145820000D03*
X204700000Y-150475000D03*
X221600000Y-141500000D03*
X188000000Y-127200000D03*
X219700000Y-168412500D03*
X241400000Y-142100000D03*
X169800000Y-151500000D03*
X226475000Y-133300000D03*
X177000000Y-150200000D03*
X178605000Y-148337500D03*
X239325000Y-154600000D03*
X227500000Y-144525000D03*
X195500000Y-148250000D03*
X239570000Y-151070000D03*
X194850000Y-166700000D03*
%TO.N,+1V8*%
X189650000Y-138100000D03*
X189650000Y-130300000D03*
X189650000Y-127200000D03*
X213500000Y-138100000D03*
X208975000Y-152025000D03*
%TO.N,RESETn*%
X195200000Y-133200000D03*
X195200000Y-128642500D03*
X193200000Y-150900000D03*
X193200000Y-139900000D03*
%TO.N,USB-D-*%
X233325000Y-148900000D03*
X234300000Y-147925000D03*
%TO.N,SWDIO_{LV}*%
X187650000Y-129650000D03*
X171400000Y-145200000D03*
X171400000Y-150070000D03*
%TO.N,SWDCLK_{LV}*%
X170900000Y-144700000D03*
X190600000Y-129042500D03*
X170900000Y-150570000D03*
X187600000Y-129042500D03*
%TO.N,V_{Watch}*%
X187300000Y-132175000D03*
X201500000Y-164575000D03*
D16*
X235405000Y-146105000D03*
D15*
%TO.N,V_{BUS}*%
X237300000Y-147070000D03*
X237300000Y-148462500D03*
X220800000Y-150037500D03*
X237300000Y-149570000D03*
%TO.N,RESETn_{LV}*%
X172200000Y-149070000D03*
X172200000Y-147570000D03*
X183000000Y-131100000D03*
X185900000Y-128200000D03*
X183000000Y-139500000D03*
%TO.N,USB-2-D+*%
X220288842Y-142473658D03*
X219662500Y-143100000D03*
%TO.N,EN_{OC1}*%
X213700000Y-144300000D03*
X235400000Y-141400000D03*
%TO.N,TxD_{LV}*%
X173100000Y-146570000D03*
X181800000Y-157850000D03*
%TO.N,RxD_{LV}*%
X180800000Y-156600000D03*
X201900000Y-159700000D03*
X180800000Y-159700000D03*
X173700000Y-146070000D03*
X205425000Y-151175000D03*
%TO.N,Net-(D401-K)*%
X198600000Y-126300000D03*
X198600000Y-129500000D03*
%TO.N,Net-(D404-K)*%
X195600000Y-165540000D03*
X185100000Y-134000000D03*
X200700000Y-168412500D03*
%TO.N,Net-(IC405-B3)*%
X194400000Y-129200000D03*
%TO.N,Net-(IC405-B4)*%
X193900000Y-129700000D03*
%TO.N,Net-(IC407-OCS_{N1})*%
X234135000Y-142300000D03*
X214400000Y-146600000D03*
%TO.N,Net-(X401-SWCLK{slash}TCK)*%
X203500000Y-130125000D03*
X208910000Y-128800000D03*
%TO.N,Net-(X403-CC1)*%
X238500000Y-153600000D03*
X239370000Y-149070000D03*
%TO.N,Net-(X404-CC2)*%
X176150000Y-144600000D03*
%TO.N,Net-(X405-Pin_1)*%
X170200000Y-133100000D03*
X170200000Y-147070000D03*
X169900000Y-149570000D03*
%TO.N,/Project Architecture/Main/D+*%
X238000000Y-148570000D03*
X241100000Y-148320000D03*
%TO.N,/Project Architecture/Main/D_{2}+*%
X174622407Y-148507592D03*
X175262499Y-147800000D03*
%TO.N,/Project Architecture/Main/D_{2}-*%
X174007223Y-148507592D03*
%TD*%
%TA.AperFunction,Conductor*%
%TO.N,GND*%
G36*
X245702013Y-123200631D02*
G01*
X245943916Y-123216486D01*
X245951883Y-123217535D01*
X246187671Y-123264437D01*
X246195441Y-123266518D01*
X246423090Y-123343795D01*
X246430515Y-123346870D01*
X246646147Y-123453208D01*
X246653096Y-123457221D01*
X246852990Y-123590785D01*
X246859372Y-123595682D01*
X247040118Y-123754193D01*
X247045806Y-123759881D01*
X247204317Y-123940627D01*
X247209214Y-123947009D01*
X247342773Y-124146894D01*
X247346796Y-124153861D01*
X247453127Y-124369480D01*
X247456205Y-124376912D01*
X247533480Y-124604557D01*
X247535562Y-124612328D01*
X247582463Y-124848111D01*
X247583513Y-124856087D01*
X247599368Y-125097986D01*
X247599500Y-125102008D01*
X247599500Y-169097991D01*
X247599368Y-169102013D01*
X247583513Y-169343912D01*
X247582463Y-169351888D01*
X247535562Y-169587671D01*
X247533480Y-169595442D01*
X247456205Y-169823087D01*
X247453127Y-169830519D01*
X247346796Y-170046138D01*
X247342773Y-170053105D01*
X247209214Y-170252990D01*
X247204317Y-170259372D01*
X247045806Y-170440118D01*
X247040118Y-170445806D01*
X246859372Y-170604317D01*
X246852990Y-170609214D01*
X246653105Y-170742773D01*
X246646138Y-170746796D01*
X246430519Y-170853127D01*
X246423087Y-170856205D01*
X246195442Y-170933480D01*
X246187671Y-170935562D01*
X245951888Y-170982463D01*
X245943912Y-170983513D01*
X245702014Y-170999368D01*
X245697992Y-170999500D01*
X169702008Y-170999500D01*
X169697986Y-170999368D01*
X169456087Y-170983513D01*
X169448111Y-170982463D01*
X169212328Y-170935562D01*
X169204557Y-170933480D01*
X168976912Y-170856205D01*
X168969480Y-170853127D01*
X168858815Y-170798553D01*
X168753858Y-170746794D01*
X168746898Y-170742775D01*
X168547009Y-170609214D01*
X168540627Y-170604317D01*
X168359881Y-170445806D01*
X168354193Y-170440118D01*
X168300889Y-170379337D01*
X168195680Y-170259369D01*
X168190785Y-170252990D01*
X168057221Y-170053096D01*
X168053208Y-170046147D01*
X167946870Y-169830515D01*
X167943794Y-169823087D01*
X167927229Y-169774289D01*
X167866518Y-169595441D01*
X167864437Y-169587671D01*
X167860326Y-169567005D01*
X167817535Y-169351883D01*
X167816486Y-169343912D01*
X167805415Y-169174999D01*
X167800632Y-169102013D01*
X167800500Y-169097991D01*
X167800500Y-166936628D01*
X168374500Y-166936628D01*
X168374500Y-167263371D01*
X168406525Y-167588536D01*
X168406528Y-167588554D01*
X168470267Y-167908996D01*
X168565116Y-168221670D01*
X168565118Y-168221675D01*
X168565119Y-168221678D01*
X168595938Y-168296081D01*
X168690158Y-168523550D01*
X168844174Y-168811696D01*
X168844185Y-168811714D01*
X169025710Y-169083385D01*
X169232992Y-169335960D01*
X169464039Y-169567007D01*
X169716614Y-169774289D01*
X169800768Y-169830519D01*
X169988289Y-169955817D01*
X169988296Y-169955820D01*
X169988303Y-169955825D01*
X170164026Y-170049750D01*
X170276451Y-170109842D01*
X170578322Y-170234881D01*
X170890995Y-170329730D01*
X170890999Y-170329730D01*
X170891003Y-170329732D01*
X171100904Y-170371483D01*
X171211459Y-170393474D01*
X171471595Y-170419094D01*
X171536628Y-170425500D01*
X171536629Y-170425500D01*
X171863372Y-170425500D01*
X171917566Y-170420162D01*
X172188541Y-170393474D01*
X172401250Y-170351163D01*
X172508996Y-170329732D01*
X172508998Y-170329731D01*
X172509005Y-170329730D01*
X172821678Y-170234881D01*
X173123549Y-170109842D01*
X173411711Y-169955817D01*
X173683387Y-169774288D01*
X173935963Y-169567005D01*
X174167005Y-169335963D01*
X174374288Y-169083387D01*
X174555817Y-168811711D01*
X174709842Y-168523549D01*
X174774955Y-168366353D01*
X200349500Y-168366353D01*
X200349500Y-168458646D01*
X200373384Y-168547783D01*
X200373388Y-168547793D01*
X200419526Y-168627705D01*
X200419529Y-168627709D01*
X200419531Y-168627712D01*
X200484788Y-168692969D01*
X200484791Y-168692971D01*
X200484794Y-168692973D01*
X200564706Y-168739111D01*
X200564708Y-168739112D01*
X200564712Y-168739114D01*
X200564716Y-168739115D01*
X200653854Y-168763000D01*
X200653856Y-168763000D01*
X200746145Y-168763000D01*
X200785448Y-168752468D01*
X200835288Y-168739114D01*
X200915212Y-168692969D01*
X200980469Y-168627712D01*
X201026614Y-168547788D01*
X201043560Y-168484544D01*
X201050500Y-168458646D01*
X201050500Y-168366353D01*
X201026615Y-168277216D01*
X201026614Y-168277212D01*
X201026611Y-168277206D01*
X200980473Y-168197294D01*
X200980471Y-168197291D01*
X200980469Y-168197288D01*
X200915212Y-168132031D01*
X200915209Y-168132029D01*
X200915205Y-168132026D01*
X200866521Y-168103918D01*
X207844500Y-168103918D01*
X207844500Y-168296081D01*
X207881986Y-168484537D01*
X207881988Y-168484543D01*
X207955523Y-168662073D01*
X207955525Y-168662076D01*
X207955526Y-168662078D01*
X208062277Y-168821842D01*
X208198157Y-168957722D01*
X208354759Y-169062360D01*
X208357927Y-169064477D01*
X208535457Y-169138012D01*
X208723918Y-169175499D01*
X208723919Y-169175500D01*
X208723922Y-169175500D01*
X208916081Y-169175500D01*
X208916081Y-169175499D01*
X209104543Y-169138012D01*
X209282073Y-169064477D01*
X209441845Y-168957720D01*
X209577720Y-168821845D01*
X209684477Y-168662073D01*
X209758012Y-168484543D01*
X209795499Y-168296081D01*
X209795500Y-168296081D01*
X209795500Y-168103967D01*
X210385000Y-168103967D01*
X210385000Y-168296032D01*
X210422466Y-168484391D01*
X210422471Y-168484407D01*
X210495963Y-168661829D01*
X210495971Y-168661845D01*
X210602662Y-168821520D01*
X210602667Y-168821526D01*
X210626376Y-168845235D01*
X210962252Y-168509358D01*
X211050640Y-168597746D01*
X210714764Y-168933623D01*
X210738473Y-168957332D01*
X210738479Y-168957337D01*
X210898154Y-169064028D01*
X210898170Y-169064036D01*
X211075592Y-169137528D01*
X211075608Y-169137533D01*
X211263967Y-169174999D01*
X211263968Y-169175000D01*
X211456032Y-169175000D01*
X211456032Y-169174999D01*
X211644391Y-169137533D01*
X211644407Y-169137528D01*
X211821829Y-169064036D01*
X211821845Y-169064028D01*
X211981520Y-168957337D01*
X211981525Y-168957333D01*
X212005234Y-168933622D01*
X211669359Y-168597747D01*
X211757747Y-168509359D01*
X212093622Y-168845234D01*
X212117333Y-168821525D01*
X212117337Y-168821520D01*
X212224028Y-168661845D01*
X212224036Y-168661829D01*
X212297528Y-168484407D01*
X212297533Y-168484391D01*
X212334999Y-168296032D01*
X212335000Y-168296032D01*
X212335000Y-168103968D01*
X212334999Y-168103967D01*
X212297533Y-167915608D01*
X212297528Y-167915592D01*
X212224036Y-167738170D01*
X212224028Y-167738154D01*
X212117337Y-167578479D01*
X212117332Y-167578473D01*
X212093623Y-167554764D01*
X211757746Y-167890640D01*
X211669358Y-167802252D01*
X212005235Y-167466376D01*
X211981526Y-167442667D01*
X211981520Y-167442662D01*
X211896348Y-167385752D01*
X211896346Y-167385752D01*
X211824330Y-167337633D01*
X212924500Y-167337633D01*
X212924500Y-169062360D01*
X212931781Y-169098969D01*
X212931782Y-169098970D01*
X212941069Y-169112869D01*
X212959519Y-169140481D01*
X213001032Y-169168219D01*
X213037637Y-169175500D01*
X214762362Y-169175499D01*
X214798968Y-169168219D01*
X214840481Y-169140481D01*
X214868219Y-169098968D01*
X214875500Y-169062363D01*
X214875499Y-167337638D01*
X214868219Y-167301032D01*
X214840481Y-167259519D01*
X214812742Y-167240984D01*
X214798967Y-167231780D01*
X214762366Y-167224500D01*
X213037639Y-167224500D01*
X213001030Y-167231781D01*
X213001029Y-167231782D01*
X212959519Y-167259519D01*
X212931780Y-167301032D01*
X212924500Y-167337633D01*
X211824330Y-167337633D01*
X211821837Y-167335967D01*
X211821829Y-167335963D01*
X211644407Y-167262471D01*
X211644391Y-167262466D01*
X211456032Y-167225000D01*
X211263968Y-167225000D01*
X211075608Y-167262466D01*
X211075592Y-167262471D01*
X210898170Y-167335963D01*
X210898160Y-167335968D01*
X210738473Y-167442667D01*
X210738470Y-167442669D01*
X210714764Y-167466375D01*
X210714764Y-167466376D01*
X211050641Y-167802253D01*
X210962253Y-167890641D01*
X210626376Y-167554764D01*
X210602669Y-167578470D01*
X210602667Y-167578473D01*
X210495968Y-167738160D01*
X210495963Y-167738170D01*
X210422471Y-167915592D01*
X210422466Y-167915608D01*
X210385000Y-168103967D01*
X209795500Y-168103967D01*
X209795500Y-168103919D01*
X209795499Y-168103918D01*
X209758013Y-167915462D01*
X209758011Y-167915455D01*
X209684477Y-167737927D01*
X209659135Y-167700000D01*
X209577722Y-167578157D01*
X209441842Y-167442277D01*
X209282078Y-167335526D01*
X209282076Y-167335525D01*
X209282073Y-167335523D01*
X209159293Y-167284666D01*
X209104544Y-167261988D01*
X209104537Y-167261986D01*
X208916081Y-167224500D01*
X208916078Y-167224500D01*
X208723922Y-167224500D01*
X208723919Y-167224500D01*
X208535462Y-167261986D01*
X208535455Y-167261988D01*
X208441203Y-167301029D01*
X208357927Y-167335523D01*
X208357924Y-167335524D01*
X208357921Y-167335526D01*
X208198157Y-167442277D01*
X208062277Y-167578157D01*
X207955526Y-167737921D01*
X207955524Y-167737924D01*
X207955523Y-167737927D01*
X207954454Y-167740509D01*
X207881988Y-167915455D01*
X207881986Y-167915462D01*
X207844500Y-168103918D01*
X200866521Y-168103918D01*
X200835293Y-168085888D01*
X200835283Y-168085884D01*
X200746146Y-168062000D01*
X200746144Y-168062000D01*
X200653856Y-168062000D01*
X200653854Y-168062000D01*
X200564716Y-168085884D01*
X200564706Y-168085888D01*
X200484794Y-168132026D01*
X200484784Y-168132034D01*
X200419534Y-168197284D01*
X200419526Y-168197294D01*
X200373388Y-168277206D01*
X200373384Y-168277216D01*
X200349500Y-168366353D01*
X174774955Y-168366353D01*
X174834881Y-168221678D01*
X174929730Y-167909005D01*
X174948830Y-167812985D01*
X174963246Y-167740509D01*
X174993474Y-167588541D01*
X175025500Y-167263371D01*
X175025500Y-167227522D01*
X192049500Y-167227522D01*
X192049500Y-167372477D01*
X192087014Y-167512480D01*
X192087015Y-167512482D01*
X192087016Y-167512485D01*
X192159491Y-167638015D01*
X192261985Y-167740509D01*
X192387515Y-167812984D01*
X192387519Y-167812985D01*
X192527523Y-167850500D01*
X192527525Y-167850500D01*
X192672476Y-167850500D01*
X192734206Y-167833958D01*
X192812485Y-167812984D01*
X192938015Y-167740509D01*
X193040509Y-167638015D01*
X193112984Y-167512485D01*
X193131796Y-167442277D01*
X193150500Y-167372477D01*
X193150500Y-167227522D01*
X195049500Y-167227522D01*
X195049500Y-167372477D01*
X195087014Y-167512480D01*
X195087015Y-167512482D01*
X195087016Y-167512485D01*
X195159491Y-167638015D01*
X195261985Y-167740509D01*
X195387515Y-167812984D01*
X195387519Y-167812985D01*
X195527523Y-167850500D01*
X195527525Y-167850500D01*
X195672476Y-167850500D01*
X195734206Y-167833958D01*
X195812485Y-167812984D01*
X195938015Y-167740509D01*
X196040509Y-167638015D01*
X196112984Y-167512485D01*
X196131796Y-167442277D01*
X196150500Y-167372477D01*
X196150500Y-167227522D01*
X196112985Y-167087519D01*
X196112984Y-167087515D01*
X196042750Y-166965866D01*
X196040513Y-166961991D01*
X196040511Y-166961988D01*
X196040509Y-166961985D01*
X196015152Y-166936628D01*
X240374500Y-166936628D01*
X240374500Y-167263371D01*
X240406525Y-167588536D01*
X240406528Y-167588554D01*
X240470267Y-167908996D01*
X240565116Y-168221670D01*
X240565118Y-168221675D01*
X240565119Y-168221678D01*
X240595938Y-168296081D01*
X240690158Y-168523550D01*
X240844174Y-168811696D01*
X240844185Y-168811714D01*
X241025710Y-169083385D01*
X241232992Y-169335960D01*
X241464039Y-169567007D01*
X241716614Y-169774289D01*
X241800768Y-169830519D01*
X241988289Y-169955817D01*
X241988296Y-169955820D01*
X241988303Y-169955825D01*
X242164026Y-170049750D01*
X242276451Y-170109842D01*
X242578322Y-170234881D01*
X242890995Y-170329730D01*
X242890999Y-170329730D01*
X242891003Y-170329732D01*
X243100904Y-170371483D01*
X243211459Y-170393474D01*
X243471595Y-170419094D01*
X243536628Y-170425500D01*
X243536629Y-170425500D01*
X243863372Y-170425500D01*
X243917566Y-170420162D01*
X244188541Y-170393474D01*
X244401250Y-170351163D01*
X244508996Y-170329732D01*
X244508998Y-170329731D01*
X244509005Y-170329730D01*
X244821678Y-170234881D01*
X245123549Y-170109842D01*
X245411711Y-169955817D01*
X245683387Y-169774288D01*
X245935963Y-169567005D01*
X246167005Y-169335963D01*
X246374288Y-169083387D01*
X246555817Y-168811711D01*
X246709842Y-168523549D01*
X246834881Y-168221678D01*
X246929730Y-167909005D01*
X246948830Y-167812985D01*
X246963246Y-167740509D01*
X246993474Y-167588541D01*
X247025500Y-167263371D01*
X247025500Y-166936629D01*
X246993474Y-166611459D01*
X246929730Y-166290995D01*
X246834881Y-165978322D01*
X246709842Y-165676451D01*
X246625585Y-165518816D01*
X246555825Y-165388303D01*
X246555820Y-165388296D01*
X246555817Y-165388289D01*
X246374288Y-165116613D01*
X246167007Y-164864039D01*
X245935960Y-164632992D01*
X245683385Y-164425710D01*
X245411714Y-164244185D01*
X245411696Y-164244174D01*
X245123550Y-164090158D01*
X244951769Y-164019004D01*
X244821678Y-163965119D01*
X244821675Y-163965118D01*
X244821670Y-163965116D01*
X244508996Y-163870267D01*
X244188554Y-163806528D01*
X244188536Y-163806525D01*
X243863372Y-163774500D01*
X243863371Y-163774500D01*
X243536629Y-163774500D01*
X243536628Y-163774500D01*
X243211463Y-163806525D01*
X243211445Y-163806528D01*
X242891003Y-163870267D01*
X242578329Y-163965116D01*
X242276449Y-164090158D01*
X241988303Y-164244174D01*
X241988285Y-164244185D01*
X241716614Y-164425710D01*
X241464039Y-164632992D01*
X241232992Y-164864039D01*
X241025710Y-165116614D01*
X240844185Y-165388285D01*
X240844174Y-165388303D01*
X240690158Y-165676449D01*
X240565116Y-165978329D01*
X240470267Y-166291003D01*
X240406528Y-166611445D01*
X240406525Y-166611463D01*
X240374500Y-166936628D01*
X196015152Y-166936628D01*
X195938015Y-166859491D01*
X195812485Y-166787016D01*
X195812482Y-166787015D01*
X195812480Y-166787014D01*
X195672477Y-166749500D01*
X195672475Y-166749500D01*
X195527525Y-166749500D01*
X195527523Y-166749500D01*
X195387519Y-166787014D01*
X195387515Y-166787016D01*
X195261986Y-166859490D01*
X195261981Y-166859494D01*
X195159494Y-166961981D01*
X195159490Y-166961986D01*
X195087016Y-167087515D01*
X195087014Y-167087519D01*
X195049500Y-167227522D01*
X193150500Y-167227522D01*
X193112985Y-167087519D01*
X193112984Y-167087515D01*
X193040509Y-166961985D01*
X192938015Y-166859491D01*
X192812485Y-166787016D01*
X192812482Y-166787015D01*
X192812480Y-166787014D01*
X192672477Y-166749500D01*
X192672475Y-166749500D01*
X192527525Y-166749500D01*
X192527523Y-166749500D01*
X192387519Y-166787014D01*
X192387515Y-166787016D01*
X192261986Y-166859490D01*
X192261981Y-166859494D01*
X192159494Y-166961981D01*
X192159490Y-166961986D01*
X192087016Y-167087515D01*
X192087014Y-167087519D01*
X192049500Y-167227522D01*
X175025500Y-167227522D01*
X175025500Y-166936629D01*
X174993474Y-166611459D01*
X174929730Y-166290995D01*
X174834881Y-165978322D01*
X174709842Y-165676451D01*
X174625585Y-165518816D01*
X174612242Y-165493853D01*
X195249500Y-165493853D01*
X195249500Y-165586146D01*
X195273384Y-165675283D01*
X195273388Y-165675293D01*
X195319526Y-165755205D01*
X195319529Y-165755209D01*
X195319531Y-165755212D01*
X195384788Y-165820469D01*
X195384791Y-165820471D01*
X195384794Y-165820473D01*
X195464706Y-165866611D01*
X195464708Y-165866612D01*
X195464712Y-165866614D01*
X195464716Y-165866615D01*
X195553854Y-165890500D01*
X195553856Y-165890500D01*
X195646145Y-165890500D01*
X195685448Y-165879968D01*
X195735288Y-165866614D01*
X195815212Y-165820469D01*
X195880469Y-165755212D01*
X195926614Y-165675288D01*
X195935882Y-165640698D01*
X195950500Y-165586146D01*
X195950500Y-165493853D01*
X195926615Y-165404716D01*
X195926614Y-165404712D01*
X195926611Y-165404706D01*
X195880473Y-165324794D01*
X195880471Y-165324791D01*
X195880469Y-165324788D01*
X195815212Y-165259531D01*
X195815209Y-165259529D01*
X195815205Y-165259526D01*
X195735293Y-165213388D01*
X195735283Y-165213384D01*
X195646146Y-165189500D01*
X195646144Y-165189500D01*
X195553856Y-165189500D01*
X195553854Y-165189500D01*
X195464716Y-165213384D01*
X195464706Y-165213388D01*
X195384794Y-165259526D01*
X195384784Y-165259534D01*
X195319534Y-165324784D01*
X195319526Y-165324794D01*
X195273388Y-165404706D01*
X195273384Y-165404716D01*
X195249500Y-165493853D01*
X174612242Y-165493853D01*
X174555825Y-165388303D01*
X174555820Y-165388296D01*
X174555817Y-165388289D01*
X174374288Y-165116613D01*
X174167007Y-164864039D01*
X173935960Y-164632992D01*
X173862085Y-164572365D01*
X173809065Y-164528853D01*
X201149500Y-164528853D01*
X201149500Y-164621146D01*
X201173384Y-164710283D01*
X201173388Y-164710293D01*
X201219526Y-164790205D01*
X201219529Y-164790209D01*
X201219531Y-164790212D01*
X201284788Y-164855469D01*
X201284791Y-164855471D01*
X201284794Y-164855473D01*
X201364706Y-164901611D01*
X201364708Y-164901612D01*
X201364712Y-164901614D01*
X201364716Y-164901615D01*
X201453854Y-164925500D01*
X201453856Y-164925500D01*
X201546145Y-164925500D01*
X201585448Y-164914968D01*
X201635288Y-164901614D01*
X201715212Y-164855469D01*
X201780469Y-164790212D01*
X201826614Y-164710288D01*
X201847325Y-164632995D01*
X201850500Y-164621146D01*
X201850500Y-164528853D01*
X201826615Y-164439716D01*
X201826614Y-164439712D01*
X201818530Y-164425710D01*
X201780473Y-164359794D01*
X201780471Y-164359791D01*
X201780469Y-164359788D01*
X201715212Y-164294531D01*
X201715209Y-164294529D01*
X201715205Y-164294526D01*
X201635293Y-164248388D01*
X201635283Y-164248384D01*
X201546146Y-164224500D01*
X201546144Y-164224500D01*
X201453856Y-164224500D01*
X201453854Y-164224500D01*
X201364716Y-164248384D01*
X201364706Y-164248388D01*
X201284794Y-164294526D01*
X201284784Y-164294534D01*
X201219534Y-164359784D01*
X201219526Y-164359794D01*
X201173388Y-164439706D01*
X201173384Y-164439716D01*
X201149500Y-164528853D01*
X173809065Y-164528853D01*
X173683385Y-164425710D01*
X173411714Y-164244185D01*
X173411696Y-164244174D01*
X173123550Y-164090158D01*
X172951769Y-164019004D01*
X172821678Y-163965119D01*
X172821675Y-163965118D01*
X172821670Y-163965116D01*
X172508996Y-163870267D01*
X172188554Y-163806528D01*
X172188536Y-163806525D01*
X171863372Y-163774500D01*
X171863371Y-163774500D01*
X171536629Y-163774500D01*
X171536628Y-163774500D01*
X171211463Y-163806525D01*
X171211445Y-163806528D01*
X170891003Y-163870267D01*
X170578329Y-163965116D01*
X170276449Y-164090158D01*
X169988303Y-164244174D01*
X169988285Y-164244185D01*
X169716614Y-164425710D01*
X169464039Y-164632992D01*
X169232992Y-164864039D01*
X169025710Y-165116614D01*
X168844185Y-165388285D01*
X168844174Y-165388303D01*
X168690158Y-165676449D01*
X168565116Y-165978329D01*
X168470267Y-166291003D01*
X168406528Y-166611445D01*
X168406525Y-166611463D01*
X168374500Y-166936628D01*
X167800500Y-166936628D01*
X167800500Y-159653853D01*
X180449500Y-159653853D01*
X180449500Y-159746146D01*
X180473384Y-159835283D01*
X180473388Y-159835293D01*
X180519526Y-159915205D01*
X180519529Y-159915209D01*
X180519531Y-159915212D01*
X180584788Y-159980469D01*
X180584791Y-159980471D01*
X180584794Y-159980473D01*
X180664706Y-160026611D01*
X180664708Y-160026612D01*
X180664712Y-160026614D01*
X180664716Y-160026615D01*
X180753854Y-160050500D01*
X180753856Y-160050500D01*
X180846145Y-160050500D01*
X180885448Y-160039968D01*
X180935288Y-160026614D01*
X181015212Y-159980469D01*
X181080469Y-159915212D01*
X181126614Y-159835288D01*
X181135882Y-159800698D01*
X181150500Y-159746146D01*
X181150500Y-159653853D01*
X201549500Y-159653853D01*
X201549500Y-159746146D01*
X201573384Y-159835283D01*
X201573388Y-159835293D01*
X201619526Y-159915205D01*
X201619529Y-159915209D01*
X201619531Y-159915212D01*
X201684788Y-159980469D01*
X201684791Y-159980471D01*
X201684794Y-159980473D01*
X201764706Y-160026611D01*
X201764708Y-160026612D01*
X201764712Y-160026614D01*
X201764716Y-160026615D01*
X201853854Y-160050500D01*
X201853856Y-160050500D01*
X201946145Y-160050500D01*
X201985448Y-160039968D01*
X202035288Y-160026614D01*
X202115212Y-159980469D01*
X202180469Y-159915212D01*
X202226614Y-159835288D01*
X202235882Y-159800698D01*
X202250500Y-159746146D01*
X202250500Y-159653853D01*
X202226615Y-159564716D01*
X202226614Y-159564712D01*
X202226611Y-159564706D01*
X202180473Y-159484794D01*
X202180471Y-159484791D01*
X202180469Y-159484788D01*
X202115212Y-159419531D01*
X202115209Y-159419529D01*
X202115205Y-159419526D01*
X202035293Y-159373388D01*
X202035283Y-159373384D01*
X201946146Y-159349500D01*
X201946144Y-159349500D01*
X201853856Y-159349500D01*
X201853854Y-159349500D01*
X201764716Y-159373384D01*
X201764706Y-159373388D01*
X201684794Y-159419526D01*
X201684784Y-159419534D01*
X201619534Y-159484784D01*
X201619526Y-159484794D01*
X201573388Y-159564706D01*
X201573384Y-159564716D01*
X201549500Y-159653853D01*
X181150500Y-159653853D01*
X181126615Y-159564716D01*
X181126614Y-159564712D01*
X181126611Y-159564706D01*
X181080473Y-159484794D01*
X181080471Y-159484791D01*
X181080469Y-159484788D01*
X181015212Y-159419531D01*
X181015209Y-159419529D01*
X181015205Y-159419526D01*
X180935293Y-159373388D01*
X180935283Y-159373384D01*
X180846146Y-159349500D01*
X180846144Y-159349500D01*
X180753856Y-159349500D01*
X180753854Y-159349500D01*
X180664716Y-159373384D01*
X180664706Y-159373388D01*
X180584794Y-159419526D01*
X180584784Y-159419534D01*
X180519534Y-159484784D01*
X180519526Y-159484794D01*
X180473388Y-159564706D01*
X180473384Y-159564716D01*
X180449500Y-159653853D01*
X167800500Y-159653853D01*
X167800500Y-157803853D01*
X181449500Y-157803853D01*
X181449500Y-157896146D01*
X181473384Y-157985283D01*
X181473388Y-157985293D01*
X181519526Y-158065205D01*
X181519529Y-158065209D01*
X181519531Y-158065212D01*
X181584788Y-158130469D01*
X181584791Y-158130471D01*
X181584794Y-158130473D01*
X181664706Y-158176611D01*
X181664708Y-158176612D01*
X181664712Y-158176614D01*
X181664716Y-158176615D01*
X181753854Y-158200500D01*
X181753856Y-158200500D01*
X181846145Y-158200500D01*
X181885448Y-158189968D01*
X181935288Y-158176614D01*
X182015212Y-158130469D01*
X182080469Y-158065212D01*
X182126614Y-157985288D01*
X182135882Y-157950698D01*
X182150500Y-157896146D01*
X182150500Y-157803853D01*
X182126615Y-157714716D01*
X182126614Y-157714712D01*
X182126611Y-157714706D01*
X182080473Y-157634794D01*
X182080471Y-157634791D01*
X182080469Y-157634788D01*
X182015212Y-157569531D01*
X182015209Y-157569529D01*
X182015205Y-157569526D01*
X181935293Y-157523388D01*
X181935283Y-157523384D01*
X181846146Y-157499500D01*
X181846144Y-157499500D01*
X181753856Y-157499500D01*
X181753854Y-157499500D01*
X181664716Y-157523384D01*
X181664706Y-157523388D01*
X181584794Y-157569526D01*
X181584784Y-157569534D01*
X181519534Y-157634784D01*
X181519526Y-157634794D01*
X181473388Y-157714706D01*
X181473384Y-157714716D01*
X181449500Y-157803853D01*
X167800500Y-157803853D01*
X167800500Y-156553853D01*
X180449500Y-156553853D01*
X180449500Y-156646146D01*
X180473384Y-156735283D01*
X180473388Y-156735293D01*
X180519526Y-156815205D01*
X180519529Y-156815209D01*
X180519531Y-156815212D01*
X180584788Y-156880469D01*
X180584791Y-156880471D01*
X180584794Y-156880473D01*
X180664706Y-156926611D01*
X180664708Y-156926612D01*
X180664712Y-156926614D01*
X180664716Y-156926615D01*
X180753854Y-156950500D01*
X180753856Y-156950500D01*
X180846145Y-156950500D01*
X180885448Y-156939968D01*
X180935288Y-156926614D01*
X181015212Y-156880469D01*
X181080469Y-156815212D01*
X181126614Y-156735288D01*
X181135882Y-156700698D01*
X181150500Y-156646146D01*
X181150500Y-156553853D01*
X181126615Y-156464716D01*
X181126614Y-156464712D01*
X181126611Y-156464706D01*
X181080473Y-156384794D01*
X181080471Y-156384791D01*
X181080469Y-156384788D01*
X181015212Y-156319531D01*
X181015209Y-156319529D01*
X181015205Y-156319526D01*
X180935293Y-156273388D01*
X180935283Y-156273384D01*
X180846146Y-156249500D01*
X180846144Y-156249500D01*
X180753856Y-156249500D01*
X180753854Y-156249500D01*
X180664716Y-156273384D01*
X180664706Y-156273388D01*
X180584794Y-156319526D01*
X180584784Y-156319534D01*
X180519534Y-156384784D01*
X180519526Y-156384794D01*
X180473388Y-156464706D01*
X180473384Y-156464716D01*
X180449500Y-156553853D01*
X167800500Y-156553853D01*
X167800500Y-153553853D01*
X238149500Y-153553853D01*
X238149500Y-153646146D01*
X238173384Y-153735283D01*
X238173388Y-153735293D01*
X238219526Y-153815205D01*
X238219529Y-153815209D01*
X238219531Y-153815212D01*
X238284788Y-153880469D01*
X238284791Y-153880471D01*
X238284794Y-153880473D01*
X238364706Y-153926611D01*
X238364708Y-153926612D01*
X238364712Y-153926614D01*
X238364716Y-153926615D01*
X238453854Y-153950500D01*
X238453856Y-153950500D01*
X238546145Y-153950500D01*
X238585448Y-153939968D01*
X238635288Y-153926614D01*
X238715212Y-153880469D01*
X238780469Y-153815212D01*
X238826614Y-153735288D01*
X238835882Y-153700698D01*
X238850500Y-153646146D01*
X238850500Y-153553853D01*
X238826615Y-153464716D01*
X238826614Y-153464712D01*
X238826611Y-153464706D01*
X238780473Y-153384794D01*
X238780471Y-153384791D01*
X238780469Y-153384788D01*
X238715212Y-153319531D01*
X238715209Y-153319529D01*
X238715205Y-153319526D01*
X238635293Y-153273388D01*
X238635283Y-153273384D01*
X238546146Y-153249500D01*
X238546144Y-153249500D01*
X238453856Y-153249500D01*
X238453854Y-153249500D01*
X238364716Y-153273384D01*
X238364706Y-153273388D01*
X238284794Y-153319526D01*
X238284784Y-153319534D01*
X238219534Y-153384784D01*
X238219526Y-153384794D01*
X238173388Y-153464706D01*
X238173384Y-153464716D01*
X238149500Y-153553853D01*
X167800500Y-153553853D01*
X167800500Y-152882000D01*
X167818513Y-152838513D01*
X167862000Y-152820500D01*
X169319990Y-152820500D01*
X169319991Y-152820500D01*
X169356929Y-152805200D01*
X169385200Y-152776929D01*
X169400500Y-152739991D01*
X169400500Y-152380879D01*
X239790000Y-152380879D01*
X239790000Y-152387500D01*
X240070290Y-152387500D01*
X240065000Y-152400272D01*
X240065000Y-152499728D01*
X240070290Y-152512500D01*
X239790000Y-152512500D01*
X239790000Y-152519120D01*
X239825776Y-152652637D01*
X239825780Y-152652647D01*
X239894891Y-152772350D01*
X239894899Y-152772360D01*
X239992639Y-152870100D01*
X239992649Y-152870108D01*
X240112352Y-152939219D01*
X240112362Y-152939223D01*
X240245880Y-152975000D01*
X240552500Y-152975000D01*
X240552500Y-152700000D01*
X240677500Y-152700000D01*
X240677500Y-152975000D01*
X240984119Y-152975000D01*
X241117637Y-152939223D01*
X241117647Y-152939219D01*
X241237350Y-152870108D01*
X241237360Y-152870100D01*
X241303922Y-152803539D01*
X241335100Y-152772360D01*
X241335108Y-152772350D01*
X241353278Y-152740879D01*
X245740000Y-152740879D01*
X245740000Y-152747500D01*
X246020290Y-152747500D01*
X246015000Y-152760272D01*
X246015000Y-152859728D01*
X246020290Y-152872500D01*
X245740000Y-152872500D01*
X245740000Y-152879120D01*
X245775776Y-153012637D01*
X245775780Y-153012647D01*
X245844891Y-153132350D01*
X245844899Y-153132360D01*
X245942639Y-153230100D01*
X245942649Y-153230108D01*
X246062352Y-153299219D01*
X246062362Y-153299223D01*
X246195880Y-153335000D01*
X246502500Y-153335000D01*
X246502500Y-153060000D01*
X246627500Y-153060000D01*
X246627500Y-153335000D01*
X246934119Y-153335000D01*
X247067637Y-153299223D01*
X247067647Y-153299219D01*
X247187350Y-153230108D01*
X247187360Y-153230100D01*
X247285100Y-153132360D01*
X247285108Y-153132350D01*
X247354219Y-153012647D01*
X247354223Y-153012637D01*
X247390000Y-152879120D01*
X247390000Y-152872500D01*
X247109710Y-152872500D01*
X247115000Y-152859728D01*
X247115000Y-152760272D01*
X247109710Y-152747500D01*
X247390000Y-152747500D01*
X247390000Y-152740879D01*
X247354223Y-152607362D01*
X247354219Y-152607352D01*
X247285108Y-152487649D01*
X247285100Y-152487639D01*
X247187360Y-152389899D01*
X247187350Y-152389891D01*
X247067647Y-152320780D01*
X247067637Y-152320776D01*
X246934120Y-152285000D01*
X246627500Y-152285000D01*
X246627500Y-152560000D01*
X246502500Y-152560000D01*
X246502500Y-152285000D01*
X246195880Y-152285000D01*
X246062362Y-152320776D01*
X246062352Y-152320780D01*
X245942649Y-152389891D01*
X245942639Y-152389899D01*
X245844899Y-152487639D01*
X245844891Y-152487649D01*
X245775780Y-152607352D01*
X245775776Y-152607362D01*
X245740000Y-152740879D01*
X241353278Y-152740879D01*
X241373356Y-152706104D01*
X241373357Y-152706101D01*
X241404221Y-152652641D01*
X241404223Y-152652637D01*
X241440000Y-152519120D01*
X241440000Y-152512500D01*
X241159710Y-152512500D01*
X241165000Y-152499728D01*
X241165000Y-152400272D01*
X241159710Y-152387500D01*
X241440000Y-152387500D01*
X241440000Y-152380879D01*
X241404223Y-152247362D01*
X241404219Y-152247352D01*
X241335108Y-152127649D01*
X241335100Y-152127639D01*
X241237360Y-152029899D01*
X241237350Y-152029891D01*
X241117647Y-151960780D01*
X241117637Y-151960776D01*
X240984120Y-151925000D01*
X240677500Y-151925000D01*
X240677500Y-152200000D01*
X240552500Y-152200000D01*
X240552500Y-151925000D01*
X240245880Y-151925000D01*
X240112362Y-151960776D01*
X240112352Y-151960780D01*
X239992649Y-152029891D01*
X239992639Y-152029899D01*
X239894899Y-152127639D01*
X239894891Y-152127649D01*
X239825780Y-152247352D01*
X239825776Y-152247362D01*
X239790000Y-152380879D01*
X169400500Y-152380879D01*
X169400500Y-152055009D01*
X169385200Y-152018071D01*
X169356929Y-151989800D01*
X169330500Y-151978853D01*
X208624500Y-151978853D01*
X208624500Y-152071146D01*
X208648384Y-152160283D01*
X208648388Y-152160293D01*
X208694526Y-152240205D01*
X208694529Y-152240209D01*
X208694531Y-152240212D01*
X208759788Y-152305469D01*
X208759791Y-152305471D01*
X208759794Y-152305473D01*
X208839706Y-152351611D01*
X208839708Y-152351612D01*
X208839712Y-152351614D01*
X208839716Y-152351615D01*
X208928854Y-152375500D01*
X208928856Y-152375500D01*
X209021145Y-152375500D01*
X209060448Y-152364968D01*
X209110288Y-152351614D01*
X209190212Y-152305469D01*
X209255469Y-152240212D01*
X209301614Y-152160288D01*
X209321993Y-152084232D01*
X209325500Y-152071146D01*
X209325500Y-151978853D01*
X209303573Y-151897024D01*
X209301614Y-151889712D01*
X209297252Y-151882157D01*
X209286757Y-151863979D01*
X238939500Y-151863979D01*
X238939500Y-151976020D01*
X238968495Y-152084232D01*
X238968496Y-152084234D01*
X238968497Y-152084237D01*
X239024515Y-152181263D01*
X239103737Y-152260485D01*
X239200763Y-152316503D01*
X239204286Y-152317447D01*
X239308980Y-152345500D01*
X239308982Y-152345500D01*
X239421019Y-152345500D01*
X239456866Y-152335894D01*
X239529237Y-152316503D01*
X239626263Y-152260485D01*
X239705485Y-152181263D01*
X239761503Y-152084237D01*
X239779232Y-152018070D01*
X239790500Y-151976020D01*
X239790500Y-151863979D01*
X239761504Y-151755767D01*
X239761503Y-151755763D01*
X239705485Y-151658737D01*
X239626263Y-151579515D01*
X239529237Y-151523497D01*
X239529234Y-151523496D01*
X239529232Y-151523495D01*
X239421020Y-151494500D01*
X239421018Y-151494500D01*
X239308982Y-151494500D01*
X239308980Y-151494500D01*
X239200767Y-151523495D01*
X239200763Y-151523497D01*
X239103738Y-151579514D01*
X239103733Y-151579518D01*
X239024518Y-151658733D01*
X239024514Y-151658738D01*
X238968497Y-151755763D01*
X238968495Y-151755767D01*
X238939500Y-151863979D01*
X209286757Y-151863979D01*
X209255473Y-151809794D01*
X209255471Y-151809791D01*
X209255469Y-151809788D01*
X209190212Y-151744531D01*
X209190209Y-151744529D01*
X209190205Y-151744526D01*
X209110293Y-151698388D01*
X209110283Y-151698384D01*
X209021146Y-151674500D01*
X209021144Y-151674500D01*
X208928856Y-151674500D01*
X208928854Y-151674500D01*
X208839716Y-151698384D01*
X208839706Y-151698388D01*
X208759794Y-151744526D01*
X208759784Y-151744534D01*
X208694534Y-151809784D01*
X208694526Y-151809794D01*
X208648388Y-151889706D01*
X208648384Y-151889716D01*
X208624500Y-151978853D01*
X169330500Y-151978853D01*
X169319991Y-151974500D01*
X168093022Y-151974500D01*
X168062509Y-151966397D01*
X167831487Y-151834383D01*
X167802667Y-151797167D01*
X167800500Y-151780986D01*
X167800500Y-150523853D01*
X170549500Y-150523853D01*
X170549500Y-150616146D01*
X170573384Y-150705283D01*
X170573388Y-150705293D01*
X170619526Y-150785205D01*
X170619529Y-150785209D01*
X170619531Y-150785212D01*
X170684788Y-150850469D01*
X170684791Y-150850471D01*
X170684794Y-150850473D01*
X170764706Y-150896611D01*
X170764708Y-150896612D01*
X170764712Y-150896614D01*
X170764716Y-150896615D01*
X170853854Y-150920500D01*
X170853856Y-150920500D01*
X170946145Y-150920500D01*
X170985448Y-150909968D01*
X171035288Y-150896614D01*
X171109351Y-150853853D01*
X192849500Y-150853853D01*
X192849500Y-150946146D01*
X192873384Y-151035283D01*
X192873388Y-151035293D01*
X192919526Y-151115205D01*
X192919529Y-151115209D01*
X192919531Y-151115212D01*
X192984788Y-151180469D01*
X192984791Y-151180471D01*
X192984794Y-151180473D01*
X193064706Y-151226611D01*
X193064708Y-151226612D01*
X193064712Y-151226614D01*
X193064716Y-151226615D01*
X193153854Y-151250500D01*
X193153856Y-151250500D01*
X193246145Y-151250500D01*
X193285448Y-151239968D01*
X193335288Y-151226614D01*
X193415212Y-151180469D01*
X193466828Y-151128853D01*
X205074500Y-151128853D01*
X205074500Y-151221146D01*
X205098384Y-151310283D01*
X205098388Y-151310293D01*
X205144526Y-151390205D01*
X205144529Y-151390209D01*
X205144531Y-151390212D01*
X205209788Y-151455469D01*
X205209791Y-151455471D01*
X205209794Y-151455473D01*
X205289706Y-151501611D01*
X205289708Y-151501612D01*
X205289712Y-151501614D01*
X205289716Y-151501615D01*
X205378854Y-151525500D01*
X205378856Y-151525500D01*
X205471145Y-151525500D01*
X205510448Y-151514968D01*
X205560288Y-151501614D01*
X205640212Y-151455469D01*
X205705469Y-151390212D01*
X205751614Y-151310288D01*
X205767634Y-151250500D01*
X205775500Y-151221146D01*
X205775500Y-151128853D01*
X205751615Y-151039716D01*
X205751614Y-151039712D01*
X205749057Y-151035283D01*
X205705473Y-150959794D01*
X205705471Y-150959791D01*
X205705469Y-150959788D01*
X205640212Y-150894531D01*
X205640209Y-150894529D01*
X205640205Y-150894526D01*
X205560293Y-150848388D01*
X205560283Y-150848384D01*
X205471146Y-150824500D01*
X205471144Y-150824500D01*
X205378856Y-150824500D01*
X205378854Y-150824500D01*
X205289716Y-150848384D01*
X205289706Y-150848388D01*
X205209794Y-150894526D01*
X205209784Y-150894534D01*
X205144534Y-150959784D01*
X205144526Y-150959794D01*
X205098388Y-151039706D01*
X205098384Y-151039716D01*
X205074500Y-151128853D01*
X193466828Y-151128853D01*
X193480469Y-151115212D01*
X193526614Y-151035288D01*
X193546843Y-150959794D01*
X193550500Y-150946146D01*
X193550500Y-150853853D01*
X193526615Y-150764716D01*
X193526614Y-150764712D01*
X193492305Y-150705288D01*
X193480473Y-150684794D01*
X193480471Y-150684791D01*
X193480469Y-150684788D01*
X193415212Y-150619531D01*
X193415209Y-150619529D01*
X193415205Y-150619526D01*
X193335293Y-150573388D01*
X193335283Y-150573384D01*
X193246146Y-150549500D01*
X193246144Y-150549500D01*
X193153856Y-150549500D01*
X193153854Y-150549500D01*
X193064716Y-150573384D01*
X193064706Y-150573388D01*
X192984794Y-150619526D01*
X192984784Y-150619534D01*
X192919534Y-150684784D01*
X192919526Y-150684794D01*
X192873388Y-150764706D01*
X192873384Y-150764716D01*
X192849500Y-150853853D01*
X171109351Y-150853853D01*
X171115212Y-150850469D01*
X171180469Y-150785212D01*
X171226614Y-150705288D01*
X171249592Y-150619534D01*
X171250500Y-150616146D01*
X171250500Y-150523853D01*
X171240239Y-150485561D01*
X171246382Y-150438894D01*
X171283725Y-150410239D01*
X171315561Y-150410239D01*
X171353854Y-150420500D01*
X171353856Y-150420500D01*
X171446145Y-150420500D01*
X171485448Y-150409968D01*
X171535288Y-150396614D01*
X171615212Y-150350469D01*
X171680469Y-150285212D01*
X171726614Y-150205288D01*
X171740239Y-150154439D01*
X171750500Y-150116146D01*
X171750500Y-150023853D01*
X171744977Y-150003243D01*
X171744977Y-150003242D01*
X171741791Y-149991353D01*
X220449500Y-149991353D01*
X220449500Y-150083646D01*
X220473384Y-150172783D01*
X220473388Y-150172793D01*
X220519526Y-150252705D01*
X220519529Y-150252709D01*
X220519531Y-150252712D01*
X220584788Y-150317969D01*
X220584791Y-150317971D01*
X220584794Y-150317973D01*
X220664706Y-150364111D01*
X220664708Y-150364112D01*
X220664712Y-150364114D01*
X220664716Y-150364115D01*
X220753854Y-150388000D01*
X220753856Y-150388000D01*
X220846145Y-150388000D01*
X220885448Y-150377468D01*
X220935288Y-150364114D01*
X221015212Y-150317969D01*
X221080469Y-150252712D01*
X221126614Y-150172788D01*
X221141792Y-150116143D01*
X221150500Y-150083646D01*
X221150500Y-149991353D01*
X221126615Y-149902216D01*
X221126614Y-149902212D01*
X221123382Y-149896614D01*
X221080473Y-149822294D01*
X221080471Y-149822291D01*
X221080469Y-149822288D01*
X221015212Y-149757031D01*
X221015209Y-149757029D01*
X221015205Y-149757026D01*
X220935293Y-149710888D01*
X220935283Y-149710884D01*
X220846146Y-149687000D01*
X220846144Y-149687000D01*
X220753856Y-149687000D01*
X220753854Y-149687000D01*
X220664716Y-149710884D01*
X220664706Y-149710888D01*
X220584794Y-149757026D01*
X220584784Y-149757034D01*
X220519534Y-149822284D01*
X220519526Y-149822294D01*
X220473388Y-149902206D01*
X220473384Y-149902216D01*
X220449500Y-149991353D01*
X171741791Y-149991353D01*
X171726616Y-149934718D01*
X171726611Y-149934706D01*
X171680473Y-149854794D01*
X171680471Y-149854791D01*
X171680469Y-149854788D01*
X171615212Y-149789531D01*
X171615209Y-149789529D01*
X171615205Y-149789526D01*
X171535293Y-149743388D01*
X171535283Y-149743384D01*
X171446146Y-149719500D01*
X171446144Y-149719500D01*
X171353856Y-149719500D01*
X171353854Y-149719500D01*
X171264716Y-149743384D01*
X171264706Y-149743388D01*
X171184794Y-149789526D01*
X171184784Y-149789534D01*
X171119534Y-149854784D01*
X171119526Y-149854794D01*
X171073388Y-149934706D01*
X171073384Y-149934716D01*
X171049500Y-150023853D01*
X171049500Y-150116143D01*
X171059761Y-150154439D01*
X171053616Y-150201106D01*
X171016273Y-150229761D01*
X170984439Y-150229761D01*
X170946144Y-150219500D01*
X170853856Y-150219500D01*
X170853854Y-150219500D01*
X170764716Y-150243384D01*
X170764706Y-150243388D01*
X170684794Y-150289526D01*
X170684784Y-150289534D01*
X170619534Y-150354784D01*
X170619526Y-150354794D01*
X170573388Y-150434706D01*
X170573384Y-150434716D01*
X170549500Y-150523853D01*
X167800500Y-150523853D01*
X167800500Y-149523853D01*
X169549500Y-149523853D01*
X169549500Y-149616146D01*
X169573384Y-149705283D01*
X169573388Y-149705293D01*
X169619526Y-149785205D01*
X169619529Y-149785209D01*
X169619531Y-149785212D01*
X169684788Y-149850469D01*
X169684791Y-149850471D01*
X169684794Y-149850473D01*
X169764706Y-149896611D01*
X169764708Y-149896612D01*
X169764712Y-149896614D01*
X169764716Y-149896615D01*
X169853854Y-149920500D01*
X169853856Y-149920500D01*
X169946145Y-149920500D01*
X169985448Y-149909968D01*
X170035288Y-149896614D01*
X170115212Y-149850469D01*
X170180469Y-149785212D01*
X170226614Y-149705288D01*
X170235882Y-149670698D01*
X170250500Y-149616146D01*
X170250500Y-149523853D01*
X236949500Y-149523853D01*
X236949500Y-149616146D01*
X236973384Y-149705283D01*
X236973388Y-149705293D01*
X237019526Y-149785205D01*
X237019529Y-149785209D01*
X237019531Y-149785212D01*
X237084788Y-149850469D01*
X237084791Y-149850471D01*
X237084794Y-149850473D01*
X237164706Y-149896611D01*
X237164708Y-149896612D01*
X237164712Y-149896614D01*
X237164716Y-149896615D01*
X237253854Y-149920500D01*
X237253856Y-149920500D01*
X237346145Y-149920500D01*
X237385448Y-149909968D01*
X237435288Y-149896614D01*
X237515212Y-149850469D01*
X237580469Y-149785212D01*
X237626614Y-149705288D01*
X237635882Y-149670698D01*
X237650500Y-149616146D01*
X237650500Y-149523853D01*
X237626615Y-149434716D01*
X237626614Y-149434712D01*
X237618409Y-149420500D01*
X237580473Y-149354794D01*
X237580471Y-149354791D01*
X237580469Y-149354788D01*
X237515212Y-149289531D01*
X237515209Y-149289529D01*
X237515205Y-149289526D01*
X237435293Y-149243388D01*
X237435283Y-149243384D01*
X237346146Y-149219500D01*
X237346144Y-149219500D01*
X237253856Y-149219500D01*
X237253854Y-149219500D01*
X237164716Y-149243384D01*
X237164706Y-149243388D01*
X237084794Y-149289526D01*
X237084784Y-149289534D01*
X237019534Y-149354784D01*
X237019526Y-149354794D01*
X236973388Y-149434706D01*
X236973384Y-149434716D01*
X236949500Y-149523853D01*
X170250500Y-149523853D01*
X170226615Y-149434716D01*
X170226614Y-149434712D01*
X170218409Y-149420500D01*
X170180473Y-149354794D01*
X170180471Y-149354791D01*
X170180469Y-149354788D01*
X170115212Y-149289531D01*
X170115209Y-149289529D01*
X170115205Y-149289526D01*
X170035293Y-149243388D01*
X170035283Y-149243384D01*
X169946146Y-149219500D01*
X169946144Y-149219500D01*
X169853856Y-149219500D01*
X169853854Y-149219500D01*
X169764716Y-149243384D01*
X169764706Y-149243388D01*
X169684794Y-149289526D01*
X169684784Y-149289534D01*
X169619534Y-149354784D01*
X169619526Y-149354794D01*
X169573388Y-149434706D01*
X169573384Y-149434716D01*
X169549500Y-149523853D01*
X167800500Y-149523853D01*
X167800500Y-149023853D01*
X171849500Y-149023853D01*
X171849500Y-149116146D01*
X171873384Y-149205283D01*
X171873388Y-149205293D01*
X171919526Y-149285205D01*
X171919529Y-149285209D01*
X171919531Y-149285212D01*
X171984788Y-149350469D01*
X171984791Y-149350471D01*
X171984794Y-149350473D01*
X172064706Y-149396611D01*
X172064708Y-149396612D01*
X172064712Y-149396614D01*
X172064716Y-149396615D01*
X172153854Y-149420500D01*
X172153856Y-149420500D01*
X172246145Y-149420500D01*
X172285448Y-149409968D01*
X172335288Y-149396614D01*
X172415212Y-149350469D01*
X172480469Y-149285212D01*
X172526614Y-149205288D01*
X172535882Y-149170698D01*
X172550500Y-149116146D01*
X172550500Y-149023853D01*
X172526615Y-148934716D01*
X172526614Y-148934712D01*
X172518409Y-148920500D01*
X172480473Y-148854794D01*
X172480471Y-148854791D01*
X172480469Y-148854788D01*
X172415212Y-148789531D01*
X172415209Y-148789529D01*
X172415205Y-148789526D01*
X172335293Y-148743388D01*
X172335283Y-148743384D01*
X172246146Y-148719500D01*
X172246144Y-148719500D01*
X172153856Y-148719500D01*
X172153854Y-148719500D01*
X172064716Y-148743384D01*
X172064706Y-148743388D01*
X171984794Y-148789526D01*
X171984784Y-148789534D01*
X171919534Y-148854784D01*
X171919526Y-148854794D01*
X171873388Y-148934706D01*
X171873384Y-148934716D01*
X171849500Y-149023853D01*
X167800500Y-149023853D01*
X167800500Y-148461445D01*
X173656723Y-148461445D01*
X173656723Y-148553738D01*
X173680607Y-148642875D01*
X173680611Y-148642885D01*
X173726749Y-148722797D01*
X173726752Y-148722801D01*
X173726754Y-148722804D01*
X173792011Y-148788061D01*
X173792014Y-148788063D01*
X173792017Y-148788065D01*
X173871929Y-148834203D01*
X173871931Y-148834204D01*
X173871935Y-148834206D01*
X173871939Y-148834207D01*
X173961077Y-148858092D01*
X173961079Y-148858092D01*
X174053368Y-148858092D01*
X174092671Y-148847560D01*
X174142511Y-148834206D01*
X174222435Y-148788061D01*
X174271328Y-148739168D01*
X174314815Y-148721155D01*
X174358302Y-148739168D01*
X174407195Y-148788061D01*
X174407198Y-148788063D01*
X174407201Y-148788065D01*
X174487113Y-148834203D01*
X174487115Y-148834204D01*
X174487119Y-148834206D01*
X174487123Y-148834207D01*
X174576261Y-148858092D01*
X174576263Y-148858092D01*
X174668552Y-148858092D01*
X174684371Y-148853853D01*
X232974500Y-148853853D01*
X232974500Y-148946146D01*
X232998384Y-149035283D01*
X232998388Y-149035293D01*
X233044526Y-149115205D01*
X233044529Y-149115209D01*
X233044531Y-149115212D01*
X233109788Y-149180469D01*
X233109791Y-149180471D01*
X233109794Y-149180473D01*
X233189706Y-149226611D01*
X233189708Y-149226612D01*
X233189712Y-149226614D01*
X233189716Y-149226615D01*
X233278854Y-149250500D01*
X233278856Y-149250500D01*
X233371145Y-149250500D01*
X233410448Y-149239968D01*
X233460288Y-149226614D01*
X233540212Y-149180469D01*
X233605469Y-149115212D01*
X233651614Y-149035288D01*
X233654677Y-149023853D01*
X239019500Y-149023853D01*
X239019500Y-149116146D01*
X239043384Y-149205283D01*
X239043388Y-149205293D01*
X239089526Y-149285205D01*
X239089529Y-149285209D01*
X239089531Y-149285212D01*
X239154788Y-149350469D01*
X239154791Y-149350471D01*
X239154794Y-149350473D01*
X239234706Y-149396611D01*
X239234708Y-149396612D01*
X239234712Y-149396614D01*
X239234716Y-149396615D01*
X239323854Y-149420500D01*
X239323856Y-149420500D01*
X239416145Y-149420500D01*
X239455448Y-149409968D01*
X239505288Y-149396614D01*
X239585212Y-149350469D01*
X239650469Y-149285212D01*
X239696614Y-149205288D01*
X239705882Y-149170698D01*
X239720500Y-149116146D01*
X239720500Y-149023853D01*
X239696615Y-148934716D01*
X239696614Y-148934712D01*
X239688409Y-148920500D01*
X239650473Y-148854794D01*
X239650471Y-148854791D01*
X239650469Y-148854788D01*
X239585212Y-148789531D01*
X239585209Y-148789529D01*
X239585205Y-148789526D01*
X239505293Y-148743388D01*
X239505283Y-148743384D01*
X239416146Y-148719500D01*
X239416144Y-148719500D01*
X239323856Y-148719500D01*
X239323854Y-148719500D01*
X239234716Y-148743384D01*
X239234706Y-148743388D01*
X239154794Y-148789526D01*
X239154784Y-148789534D01*
X239089534Y-148854784D01*
X239089526Y-148854794D01*
X239043388Y-148934706D01*
X239043384Y-148934716D01*
X239019500Y-149023853D01*
X233654677Y-149023853D01*
X233654982Y-149022716D01*
X233660023Y-149003907D01*
X233660023Y-149003906D01*
X233675499Y-148946147D01*
X233675500Y-148946146D01*
X233675500Y-148853853D01*
X233651615Y-148764716D01*
X233651614Y-148764712D01*
X233651611Y-148764706D01*
X233605473Y-148684794D01*
X233605471Y-148684791D01*
X233605469Y-148684788D01*
X233540212Y-148619531D01*
X233540209Y-148619529D01*
X233540205Y-148619526D01*
X233460293Y-148573388D01*
X233460283Y-148573384D01*
X233371146Y-148549500D01*
X233371144Y-148549500D01*
X233278856Y-148549500D01*
X233278854Y-148549500D01*
X233189716Y-148573384D01*
X233189706Y-148573388D01*
X233109794Y-148619526D01*
X233109784Y-148619534D01*
X233044534Y-148684784D01*
X233044526Y-148684794D01*
X232998388Y-148764706D01*
X232998384Y-148764716D01*
X232974500Y-148853853D01*
X174684371Y-148853853D01*
X174707855Y-148847560D01*
X174757695Y-148834206D01*
X174837619Y-148788061D01*
X174902876Y-148722804D01*
X174949021Y-148642880D01*
X174961105Y-148597783D01*
X174972907Y-148553738D01*
X174972907Y-148461445D01*
X174964010Y-148428243D01*
X174964010Y-148428242D01*
X174960824Y-148416353D01*
X236949500Y-148416353D01*
X236949500Y-148508646D01*
X236973384Y-148597783D01*
X236973388Y-148597793D01*
X237019526Y-148677705D01*
X237019529Y-148677709D01*
X237019531Y-148677712D01*
X237084788Y-148742969D01*
X237084791Y-148742971D01*
X237084794Y-148742973D01*
X237164706Y-148789111D01*
X237164708Y-148789112D01*
X237164712Y-148789114D01*
X237175246Y-148791936D01*
X237253854Y-148813000D01*
X237253856Y-148813000D01*
X237346145Y-148813000D01*
X237385448Y-148802468D01*
X237435288Y-148789114D01*
X237515212Y-148742969D01*
X237573012Y-148685168D01*
X237616497Y-148667156D01*
X237659985Y-148685169D01*
X237671172Y-148701910D01*
X237671370Y-148701797D01*
X237673107Y-148704807D01*
X237673315Y-148705117D01*
X237673386Y-148705289D01*
X237719526Y-148785205D01*
X237719529Y-148785209D01*
X237719531Y-148785212D01*
X237784788Y-148850469D01*
X237784791Y-148850471D01*
X237784794Y-148850473D01*
X237864706Y-148896611D01*
X237864708Y-148896612D01*
X237864712Y-148896614D01*
X237864716Y-148896615D01*
X237953854Y-148920500D01*
X237953856Y-148920500D01*
X238046145Y-148920500D01*
X238085448Y-148909968D01*
X238135288Y-148896614D01*
X238215212Y-148850469D01*
X238280469Y-148785212D01*
X238326614Y-148705288D01*
X238336831Y-148667156D01*
X238350500Y-148616146D01*
X238350500Y-148523853D01*
X238326615Y-148434716D01*
X238326614Y-148434712D01*
X238326611Y-148434706D01*
X238280473Y-148354794D01*
X238280471Y-148354791D01*
X238280469Y-148354788D01*
X238215212Y-148289531D01*
X238215209Y-148289529D01*
X238215205Y-148289526D01*
X238188059Y-148273853D01*
X240749500Y-148273853D01*
X240749500Y-148366146D01*
X240773384Y-148455283D01*
X240773388Y-148455293D01*
X240819526Y-148535205D01*
X240819529Y-148535209D01*
X240819531Y-148535212D01*
X240884788Y-148600469D01*
X240884791Y-148600471D01*
X240884794Y-148600473D01*
X240964706Y-148646611D01*
X240964708Y-148646612D01*
X240964712Y-148646614D01*
X240964716Y-148646615D01*
X241053854Y-148670500D01*
X241053856Y-148670500D01*
X241146145Y-148670500D01*
X241185448Y-148659968D01*
X241235288Y-148646614D01*
X241315212Y-148600469D01*
X241380469Y-148535212D01*
X241426614Y-148455288D01*
X241448848Y-148372310D01*
X241450500Y-148366146D01*
X241450500Y-148273853D01*
X241426615Y-148184716D01*
X241426614Y-148184712D01*
X241425068Y-148182034D01*
X241380473Y-148104794D01*
X241380471Y-148104791D01*
X241380469Y-148104788D01*
X241315212Y-148039531D01*
X241315209Y-148039529D01*
X241315205Y-148039526D01*
X241235293Y-147993388D01*
X241235283Y-147993384D01*
X241146146Y-147969500D01*
X241146144Y-147969500D01*
X241053856Y-147969500D01*
X241053854Y-147969500D01*
X240964716Y-147993384D01*
X240964706Y-147993388D01*
X240884794Y-148039526D01*
X240884784Y-148039534D01*
X240819534Y-148104784D01*
X240819526Y-148104794D01*
X240773388Y-148184706D01*
X240773384Y-148184716D01*
X240749500Y-148273853D01*
X238188059Y-148273853D01*
X238135293Y-148243388D01*
X238135283Y-148243384D01*
X238046146Y-148219500D01*
X238046144Y-148219500D01*
X237953856Y-148219500D01*
X237953854Y-148219500D01*
X237864716Y-148243384D01*
X237864706Y-148243388D01*
X237784794Y-148289526D01*
X237784784Y-148289534D01*
X237726988Y-148347330D01*
X237683500Y-148365343D01*
X237640014Y-148347330D01*
X237628828Y-148330588D01*
X237628630Y-148330703D01*
X237626879Y-148327671D01*
X237626681Y-148327374D01*
X237626612Y-148327208D01*
X237580473Y-148247294D01*
X237580471Y-148247291D01*
X237580469Y-148247288D01*
X237515212Y-148182031D01*
X237515209Y-148182029D01*
X237515205Y-148182026D01*
X237435293Y-148135888D01*
X237435283Y-148135884D01*
X237346146Y-148112000D01*
X237346144Y-148112000D01*
X237253856Y-148112000D01*
X237253854Y-148112000D01*
X237164716Y-148135884D01*
X237164706Y-148135888D01*
X237084794Y-148182026D01*
X237084784Y-148182034D01*
X237019534Y-148247284D01*
X237019526Y-148247294D01*
X236973388Y-148327206D01*
X236973384Y-148327216D01*
X236949500Y-148416353D01*
X174960824Y-148416353D01*
X174949023Y-148372310D01*
X174949018Y-148372298D01*
X174902880Y-148292386D01*
X174902878Y-148292383D01*
X174902876Y-148292380D01*
X174837619Y-148227123D01*
X174837616Y-148227121D01*
X174837612Y-148227118D01*
X174757700Y-148180980D01*
X174757690Y-148180976D01*
X174668553Y-148157092D01*
X174668551Y-148157092D01*
X174576263Y-148157092D01*
X174576261Y-148157092D01*
X174487123Y-148180976D01*
X174487113Y-148180980D01*
X174407201Y-148227118D01*
X174407191Y-148227126D01*
X174358302Y-148276016D01*
X174314815Y-148294029D01*
X174271328Y-148276016D01*
X174222438Y-148227126D01*
X174222435Y-148227123D01*
X174222432Y-148227121D01*
X174222428Y-148227118D01*
X174142516Y-148180980D01*
X174142506Y-148180976D01*
X174053369Y-148157092D01*
X174053367Y-148157092D01*
X173961079Y-148157092D01*
X173961077Y-148157092D01*
X173871939Y-148180976D01*
X173871929Y-148180980D01*
X173792017Y-148227118D01*
X173792007Y-148227126D01*
X173726757Y-148292376D01*
X173726749Y-148292386D01*
X173680611Y-148372298D01*
X173680607Y-148372308D01*
X173656723Y-148461445D01*
X167800500Y-148461445D01*
X167800500Y-147523853D01*
X171849500Y-147523853D01*
X171849500Y-147616146D01*
X171873384Y-147705283D01*
X171873388Y-147705293D01*
X171919526Y-147785205D01*
X171919529Y-147785209D01*
X171919531Y-147785212D01*
X171984788Y-147850469D01*
X171984791Y-147850471D01*
X171984794Y-147850473D01*
X172064706Y-147896611D01*
X172064708Y-147896612D01*
X172064712Y-147896614D01*
X172064716Y-147896615D01*
X172153854Y-147920500D01*
X172153856Y-147920500D01*
X172246145Y-147920500D01*
X172285448Y-147909968D01*
X172335288Y-147896614D01*
X172415212Y-147850469D01*
X172480469Y-147785212D01*
X172498574Y-147753853D01*
X174911999Y-147753853D01*
X174911999Y-147846146D01*
X174935883Y-147935283D01*
X174935887Y-147935293D01*
X174982025Y-148015205D01*
X174982028Y-148015209D01*
X174982030Y-148015212D01*
X175047287Y-148080469D01*
X175047290Y-148080471D01*
X175047293Y-148080473D01*
X175127205Y-148126611D01*
X175127207Y-148126612D01*
X175127211Y-148126614D01*
X175127215Y-148126615D01*
X175216353Y-148150500D01*
X175216355Y-148150500D01*
X175308644Y-148150500D01*
X175347947Y-148139968D01*
X175397787Y-148126614D01*
X175477711Y-148080469D01*
X175542968Y-148015212D01*
X175589113Y-147935288D01*
X175604235Y-147878853D01*
X233949500Y-147878853D01*
X233949500Y-147971146D01*
X233973384Y-148060283D01*
X233973388Y-148060293D01*
X234019526Y-148140205D01*
X234019529Y-148140209D01*
X234019531Y-148140212D01*
X234084788Y-148205469D01*
X234084791Y-148205471D01*
X234084794Y-148205473D01*
X234164706Y-148251611D01*
X234164708Y-148251612D01*
X234164712Y-148251614D01*
X234164716Y-148251615D01*
X234253854Y-148275500D01*
X234253856Y-148275500D01*
X234346145Y-148275500D01*
X234385448Y-148264968D01*
X234435288Y-148251614D01*
X234515212Y-148205469D01*
X234580469Y-148140212D01*
X234626614Y-148060288D01*
X234644540Y-147993388D01*
X234650500Y-147971146D01*
X234650500Y-147878853D01*
X234626615Y-147789716D01*
X234626614Y-147789712D01*
X234624012Y-147785205D01*
X234580473Y-147709794D01*
X234580471Y-147709791D01*
X234580469Y-147709788D01*
X234515212Y-147644531D01*
X234515209Y-147644529D01*
X234515205Y-147644526D01*
X234435293Y-147598388D01*
X234435283Y-147598384D01*
X234346146Y-147574500D01*
X234346144Y-147574500D01*
X234253856Y-147574500D01*
X234253854Y-147574500D01*
X234164716Y-147598384D01*
X234164706Y-147598388D01*
X234084794Y-147644526D01*
X234084784Y-147644534D01*
X234019534Y-147709784D01*
X234019526Y-147709794D01*
X233973388Y-147789706D01*
X233973384Y-147789716D01*
X233949500Y-147878853D01*
X175604235Y-147878853D01*
X175612999Y-147846144D01*
X175612999Y-147753856D01*
X175612999Y-147753853D01*
X175589114Y-147664716D01*
X175589113Y-147664712D01*
X175577463Y-147644534D01*
X175542972Y-147584794D01*
X175542970Y-147584791D01*
X175542968Y-147584788D01*
X175477711Y-147519531D01*
X175477708Y-147519529D01*
X175477704Y-147519526D01*
X175397792Y-147473388D01*
X175397782Y-147473384D01*
X175308645Y-147449500D01*
X175308643Y-147449500D01*
X175216355Y-147449500D01*
X175216353Y-147449500D01*
X175127215Y-147473384D01*
X175127205Y-147473388D01*
X175047293Y-147519526D01*
X175047283Y-147519534D01*
X174982033Y-147584784D01*
X174982025Y-147584794D01*
X174935887Y-147664706D01*
X174935883Y-147664716D01*
X174911999Y-147753853D01*
X172498574Y-147753853D01*
X172526614Y-147705288D01*
X172542895Y-147644526D01*
X172550500Y-147616146D01*
X172550500Y-147523853D01*
X172526615Y-147434716D01*
X172526614Y-147434712D01*
X172518409Y-147420500D01*
X172480473Y-147354794D01*
X172480471Y-147354791D01*
X172480469Y-147354788D01*
X172415212Y-147289531D01*
X172415209Y-147289529D01*
X172415205Y-147289526D01*
X172335293Y-147243388D01*
X172335283Y-147243384D01*
X172246146Y-147219500D01*
X172246144Y-147219500D01*
X172153856Y-147219500D01*
X172153854Y-147219500D01*
X172064716Y-147243384D01*
X172064706Y-147243388D01*
X171984794Y-147289526D01*
X171984784Y-147289534D01*
X171919534Y-147354784D01*
X171919526Y-147354794D01*
X171873388Y-147434706D01*
X171873384Y-147434716D01*
X171849500Y-147523853D01*
X167800500Y-147523853D01*
X167800500Y-147023853D01*
X169849500Y-147023853D01*
X169849500Y-147116146D01*
X169873384Y-147205283D01*
X169873388Y-147205293D01*
X169919526Y-147285205D01*
X169919529Y-147285209D01*
X169919531Y-147285212D01*
X169984788Y-147350469D01*
X169984791Y-147350471D01*
X169984794Y-147350473D01*
X170064706Y-147396611D01*
X170064708Y-147396612D01*
X170064712Y-147396614D01*
X170064716Y-147396615D01*
X170153854Y-147420500D01*
X170153856Y-147420500D01*
X170246145Y-147420500D01*
X170285448Y-147409968D01*
X170335288Y-147396614D01*
X170415212Y-147350469D01*
X170480469Y-147285212D01*
X170526614Y-147205288D01*
X170535882Y-147170698D01*
X170550500Y-147116146D01*
X170550500Y-147023853D01*
X236949500Y-147023853D01*
X236949500Y-147116146D01*
X236973384Y-147205283D01*
X236973388Y-147205293D01*
X237019526Y-147285205D01*
X237019529Y-147285209D01*
X237019531Y-147285212D01*
X237084788Y-147350469D01*
X237084791Y-147350471D01*
X237084794Y-147350473D01*
X237164706Y-147396611D01*
X237164708Y-147396612D01*
X237164712Y-147396614D01*
X237164716Y-147396615D01*
X237253854Y-147420500D01*
X237253856Y-147420500D01*
X237346145Y-147420500D01*
X237385448Y-147409968D01*
X237435288Y-147396614D01*
X237515212Y-147350469D01*
X237580469Y-147285212D01*
X237626614Y-147205288D01*
X237635882Y-147170698D01*
X237650500Y-147116146D01*
X237650500Y-147023853D01*
X237626615Y-146934716D01*
X237626614Y-146934712D01*
X237626611Y-146934706D01*
X237580473Y-146854794D01*
X237580471Y-146854791D01*
X237580469Y-146854788D01*
X237515212Y-146789531D01*
X237515209Y-146789529D01*
X237515205Y-146789526D01*
X237435293Y-146743388D01*
X237435283Y-146743384D01*
X237346146Y-146719500D01*
X237346144Y-146719500D01*
X237253856Y-146719500D01*
X237253854Y-146719500D01*
X237164716Y-146743384D01*
X237164706Y-146743388D01*
X237084794Y-146789526D01*
X237084784Y-146789534D01*
X237019534Y-146854784D01*
X237019526Y-146854794D01*
X236973388Y-146934706D01*
X236973384Y-146934716D01*
X236949500Y-147023853D01*
X170550500Y-147023853D01*
X170526615Y-146934716D01*
X170526614Y-146934712D01*
X170526611Y-146934706D01*
X170480473Y-146854794D01*
X170480471Y-146854791D01*
X170480469Y-146854788D01*
X170415212Y-146789531D01*
X170415209Y-146789529D01*
X170415205Y-146789526D01*
X170335293Y-146743388D01*
X170335283Y-146743384D01*
X170246146Y-146719500D01*
X170246144Y-146719500D01*
X170153856Y-146719500D01*
X170153854Y-146719500D01*
X170064716Y-146743384D01*
X170064706Y-146743388D01*
X169984794Y-146789526D01*
X169984784Y-146789534D01*
X169919534Y-146854784D01*
X169919526Y-146854794D01*
X169873388Y-146934706D01*
X169873384Y-146934716D01*
X169849500Y-147023853D01*
X167800500Y-147023853D01*
X167800500Y-146523853D01*
X172749500Y-146523853D01*
X172749500Y-146616146D01*
X172773384Y-146705283D01*
X172773388Y-146705293D01*
X172819526Y-146785205D01*
X172819529Y-146785209D01*
X172819531Y-146785212D01*
X172884788Y-146850469D01*
X172884791Y-146850471D01*
X172884794Y-146850473D01*
X172964706Y-146896611D01*
X172964708Y-146896612D01*
X172964712Y-146896614D01*
X172964716Y-146896615D01*
X173053854Y-146920500D01*
X173053856Y-146920500D01*
X173146145Y-146920500D01*
X173185448Y-146909968D01*
X173235288Y-146896614D01*
X173315212Y-146850469D01*
X173380469Y-146785212D01*
X173426614Y-146705288D01*
X173442462Y-146646144D01*
X173450500Y-146616146D01*
X173450500Y-146553853D01*
X214049500Y-146553853D01*
X214049500Y-146646146D01*
X214073384Y-146735283D01*
X214073388Y-146735293D01*
X214119526Y-146815205D01*
X214119529Y-146815209D01*
X214119531Y-146815212D01*
X214184788Y-146880469D01*
X214184791Y-146880471D01*
X214184794Y-146880473D01*
X214264706Y-146926611D01*
X214264708Y-146926612D01*
X214264712Y-146926614D01*
X214264716Y-146926615D01*
X214353854Y-146950500D01*
X214353856Y-146950500D01*
X214446145Y-146950500D01*
X214485448Y-146939968D01*
X214535288Y-146926614D01*
X214615212Y-146880469D01*
X214680469Y-146815212D01*
X214726614Y-146735288D01*
X214735882Y-146700698D01*
X214750500Y-146646146D01*
X214750500Y-146553853D01*
X214726615Y-146464716D01*
X214726614Y-146464712D01*
X214711615Y-146438733D01*
X214680473Y-146384794D01*
X214680471Y-146384791D01*
X214680469Y-146384788D01*
X214615212Y-146319531D01*
X214615209Y-146319529D01*
X214615205Y-146319526D01*
X214535293Y-146273388D01*
X214535283Y-146273384D01*
X214446146Y-146249500D01*
X214446144Y-146249500D01*
X214353856Y-146249500D01*
X214353854Y-146249500D01*
X214264716Y-146273384D01*
X214264706Y-146273388D01*
X214184794Y-146319526D01*
X214184784Y-146319534D01*
X214119534Y-146384784D01*
X214119526Y-146384794D01*
X214073388Y-146464706D01*
X214073384Y-146464716D01*
X214049500Y-146553853D01*
X173450500Y-146553853D01*
X173450500Y-146523853D01*
X173435529Y-146467984D01*
X173427691Y-146438731D01*
X173433834Y-146392066D01*
X173471177Y-146363411D01*
X173517843Y-146369553D01*
X173564712Y-146396614D01*
X173564716Y-146396615D01*
X173653854Y-146420500D01*
X173653856Y-146420500D01*
X173746145Y-146420500D01*
X173785448Y-146409968D01*
X173835288Y-146396614D01*
X173915212Y-146350469D01*
X173980469Y-146285212D01*
X174026614Y-146205288D01*
X174035882Y-146170698D01*
X174050500Y-146116146D01*
X174050500Y-146035813D01*
X234879500Y-146035813D01*
X234879500Y-146174186D01*
X234915309Y-146307829D01*
X234915311Y-146307833D01*
X234915312Y-146307836D01*
X234984495Y-146427665D01*
X235082335Y-146525505D01*
X235202164Y-146594688D01*
X235202168Y-146594689D01*
X235202170Y-146594690D01*
X235335813Y-146630499D01*
X235335815Y-146630500D01*
X235335817Y-146630500D01*
X235474185Y-146630500D01*
X235474185Y-146630499D01*
X235607836Y-146594688D01*
X235727665Y-146525505D01*
X235825505Y-146427665D01*
X235894688Y-146307836D01*
X235930499Y-146174185D01*
X235930500Y-146174185D01*
X235930500Y-146035814D01*
X235930499Y-146035813D01*
X235894690Y-145902170D01*
X235894689Y-145902168D01*
X235894688Y-145902164D01*
X235825505Y-145782335D01*
X235727665Y-145684495D01*
X235607836Y-145615312D01*
X235607833Y-145615311D01*
X235607829Y-145615309D01*
X235474186Y-145579500D01*
X235474183Y-145579500D01*
X235335817Y-145579500D01*
X235335814Y-145579500D01*
X235202170Y-145615309D01*
X235202164Y-145615312D01*
X235082336Y-145684494D01*
X235082331Y-145684498D01*
X234984498Y-145782331D01*
X234984494Y-145782336D01*
X234915312Y-145902164D01*
X234915309Y-145902170D01*
X234879500Y-146035813D01*
X174050500Y-146035813D01*
X174050500Y-146023853D01*
X174026615Y-145934716D01*
X174026614Y-145934712D01*
X174007826Y-145902170D01*
X173980473Y-145854794D01*
X173980471Y-145854791D01*
X173980469Y-145854788D01*
X173915212Y-145789531D01*
X173915209Y-145789529D01*
X173915205Y-145789526D01*
X173835293Y-145743388D01*
X173835283Y-145743384D01*
X173746146Y-145719500D01*
X173746144Y-145719500D01*
X173653856Y-145719500D01*
X173653854Y-145719500D01*
X173564716Y-145743384D01*
X173564706Y-145743388D01*
X173484794Y-145789526D01*
X173484784Y-145789534D01*
X173419534Y-145854784D01*
X173419526Y-145854794D01*
X173373388Y-145934706D01*
X173373384Y-145934716D01*
X173349500Y-146023853D01*
X173349500Y-146116146D01*
X173372308Y-146201266D01*
X173366165Y-146247934D01*
X173328822Y-146276588D01*
X173282154Y-146270445D01*
X173282154Y-146270444D01*
X173235293Y-146243388D01*
X173235283Y-146243384D01*
X173146146Y-146219500D01*
X173146144Y-146219500D01*
X173053856Y-146219500D01*
X173053854Y-146219500D01*
X172964716Y-146243384D01*
X172964706Y-146243388D01*
X172884794Y-146289526D01*
X172884784Y-146289534D01*
X172819534Y-146354784D01*
X172819526Y-146354794D01*
X172773388Y-146434706D01*
X172773384Y-146434716D01*
X172749500Y-146523853D01*
X167800500Y-146523853D01*
X167800500Y-144869012D01*
X167818513Y-144825525D01*
X167831488Y-144815615D01*
X168062510Y-144683603D01*
X168093022Y-144675500D01*
X169319990Y-144675500D01*
X169319991Y-144675500D01*
X169356929Y-144660200D01*
X169363276Y-144653853D01*
X170549500Y-144653853D01*
X170549500Y-144746146D01*
X170573384Y-144835283D01*
X170573388Y-144835293D01*
X170619526Y-144915205D01*
X170619529Y-144915209D01*
X170619531Y-144915212D01*
X170684788Y-144980469D01*
X170684791Y-144980471D01*
X170684794Y-144980473D01*
X170764706Y-145026611D01*
X170764708Y-145026612D01*
X170764712Y-145026614D01*
X170764716Y-145026615D01*
X170853854Y-145050500D01*
X170853856Y-145050500D01*
X170946145Y-145050500D01*
X170969019Y-145044370D01*
X170984438Y-145040239D01*
X171031105Y-145046382D01*
X171059760Y-145083725D01*
X171059761Y-145115560D01*
X171049500Y-145153856D01*
X171049500Y-145246146D01*
X171073384Y-145335283D01*
X171073388Y-145335293D01*
X171119526Y-145415205D01*
X171119529Y-145415209D01*
X171119531Y-145415212D01*
X171184788Y-145480469D01*
X171184791Y-145480471D01*
X171184794Y-145480473D01*
X171264706Y-145526611D01*
X171264708Y-145526612D01*
X171264712Y-145526614D01*
X171264716Y-145526615D01*
X171353854Y-145550500D01*
X171353856Y-145550500D01*
X171446145Y-145550500D01*
X171485448Y-145539968D01*
X171535288Y-145526614D01*
X171615212Y-145480469D01*
X171680469Y-145415212D01*
X171726614Y-145335288D01*
X171745045Y-145266502D01*
X171750500Y-145246146D01*
X171750500Y-145153853D01*
X171726615Y-145064716D01*
X171726614Y-145064712D01*
X171716031Y-145046382D01*
X171680473Y-144984794D01*
X171680471Y-144984791D01*
X171680469Y-144984788D01*
X171615212Y-144919531D01*
X171615209Y-144919529D01*
X171615205Y-144919526D01*
X171535293Y-144873388D01*
X171535283Y-144873384D01*
X171446146Y-144849500D01*
X171446144Y-144849500D01*
X171353856Y-144849500D01*
X171315560Y-144859761D01*
X171268892Y-144853616D01*
X171240238Y-144816273D01*
X171240239Y-144784438D01*
X171241063Y-144781365D01*
X171248125Y-144755009D01*
X171250500Y-144746145D01*
X171250500Y-144653853D01*
X171226890Y-144565743D01*
X171226890Y-144565741D01*
X171226889Y-144565740D01*
X171226614Y-144564712D01*
X171226611Y-144564706D01*
X171220345Y-144553853D01*
X175799500Y-144553853D01*
X175799500Y-144646146D01*
X175823384Y-144735283D01*
X175823388Y-144735293D01*
X175869526Y-144815205D01*
X175869529Y-144815209D01*
X175869531Y-144815212D01*
X175934788Y-144880469D01*
X175934791Y-144880471D01*
X175934794Y-144880473D01*
X176014706Y-144926611D01*
X176014708Y-144926612D01*
X176014712Y-144926614D01*
X176014716Y-144926615D01*
X176103854Y-144950500D01*
X176103856Y-144950500D01*
X176196145Y-144950500D01*
X176235448Y-144939968D01*
X176285288Y-144926614D01*
X176365212Y-144880469D01*
X176430469Y-144815212D01*
X176476614Y-144735288D01*
X176487565Y-144694419D01*
X176500500Y-144646146D01*
X176500500Y-144553853D01*
X176476615Y-144464716D01*
X176476614Y-144464712D01*
X176476611Y-144464706D01*
X176430473Y-144384794D01*
X176430471Y-144384791D01*
X176430469Y-144384788D01*
X176365212Y-144319531D01*
X176365209Y-144319529D01*
X176365205Y-144319526D01*
X176336728Y-144303085D01*
X176285293Y-144273388D01*
X176285283Y-144273384D01*
X176212392Y-144253853D01*
X213349500Y-144253853D01*
X213349500Y-144346146D01*
X213373384Y-144435283D01*
X213373388Y-144435293D01*
X213419526Y-144515205D01*
X213419528Y-144515207D01*
X213419531Y-144515212D01*
X213484788Y-144580469D01*
X213484791Y-144580471D01*
X213484794Y-144580473D01*
X213564706Y-144626611D01*
X213564708Y-144626612D01*
X213564712Y-144626614D01*
X213564716Y-144626615D01*
X213653854Y-144650500D01*
X213653856Y-144650500D01*
X213746145Y-144650500D01*
X213785448Y-144639968D01*
X213835288Y-144626614D01*
X213915212Y-144580469D01*
X213980469Y-144515212D01*
X213981181Y-144513979D01*
X238939500Y-144513979D01*
X238939500Y-144926020D01*
X238968495Y-145034232D01*
X238968496Y-145034234D01*
X238968497Y-145034237D01*
X239024515Y-145131263D01*
X239103737Y-145210485D01*
X239200763Y-145266503D01*
X239200767Y-145266504D01*
X239308980Y-145295500D01*
X239308982Y-145295500D01*
X239421019Y-145295500D01*
X239468733Y-145282714D01*
X239529237Y-145266503D01*
X239626263Y-145210485D01*
X239705485Y-145131263D01*
X239761503Y-145034237D01*
X239783940Y-144950500D01*
X239790500Y-144926020D01*
X239790500Y-144556435D01*
X239808513Y-144512948D01*
X239852000Y-144494935D01*
X239895487Y-144512948D01*
X239992639Y-144610100D01*
X239992649Y-144610108D01*
X240112352Y-144679219D01*
X240112362Y-144679223D01*
X240245880Y-144715000D01*
X240552500Y-144715000D01*
X240552500Y-144440000D01*
X240677500Y-144440000D01*
X240677500Y-144715000D01*
X240984119Y-144715000D01*
X241117637Y-144679223D01*
X241117647Y-144679219D01*
X241237350Y-144610108D01*
X241237360Y-144610100D01*
X241335100Y-144512360D01*
X241335108Y-144512350D01*
X241404219Y-144392647D01*
X241404223Y-144392637D01*
X241440000Y-144259120D01*
X241440000Y-144252500D01*
X241159710Y-144252500D01*
X241165000Y-144239728D01*
X241165000Y-144140272D01*
X241159710Y-144127500D01*
X241440000Y-144127500D01*
X241440000Y-144120879D01*
X241404223Y-143987362D01*
X241404219Y-143987352D01*
X241352502Y-143897776D01*
X241335108Y-143867649D01*
X241335100Y-143867639D01*
X241237360Y-143769899D01*
X241237350Y-143769891D01*
X241221741Y-143760879D01*
X245740000Y-143760879D01*
X245740000Y-143767500D01*
X246020290Y-143767500D01*
X246015000Y-143780272D01*
X246015000Y-143879728D01*
X246020290Y-143892500D01*
X245740000Y-143892500D01*
X245740000Y-143899120D01*
X245775776Y-144032637D01*
X245775780Y-144032647D01*
X245844891Y-144152350D01*
X245844899Y-144152360D01*
X245942639Y-144250100D01*
X245942649Y-144250108D01*
X246062352Y-144319219D01*
X246062362Y-144319223D01*
X246195880Y-144355000D01*
X246502500Y-144355000D01*
X246502500Y-144080000D01*
X246627500Y-144080000D01*
X246627500Y-144355000D01*
X246934119Y-144355000D01*
X247067637Y-144319223D01*
X247067647Y-144319219D01*
X247187350Y-144250108D01*
X247187360Y-144250100D01*
X247285100Y-144152360D01*
X247285108Y-144152350D01*
X247354219Y-144032647D01*
X247354223Y-144032637D01*
X247390000Y-143899120D01*
X247390000Y-143892500D01*
X247109710Y-143892500D01*
X247115000Y-143879728D01*
X247115000Y-143780272D01*
X247109710Y-143767500D01*
X247390000Y-143767500D01*
X247390000Y-143760879D01*
X247354223Y-143627362D01*
X247354219Y-143627352D01*
X247285108Y-143507649D01*
X247285100Y-143507639D01*
X247187360Y-143409899D01*
X247187350Y-143409891D01*
X247067647Y-143340780D01*
X247067637Y-143340776D01*
X246934120Y-143305000D01*
X246627500Y-143305000D01*
X246627500Y-143580000D01*
X246502500Y-143580000D01*
X246502500Y-143305000D01*
X246195880Y-143305000D01*
X246062362Y-143340776D01*
X246062352Y-143340780D01*
X245942649Y-143409891D01*
X245942639Y-143409899D01*
X245844899Y-143507639D01*
X245844891Y-143507649D01*
X245775780Y-143627352D01*
X245775776Y-143627362D01*
X245740000Y-143760879D01*
X241221741Y-143760879D01*
X241117647Y-143700780D01*
X241117637Y-143700776D01*
X240984120Y-143665000D01*
X240677500Y-143665000D01*
X240677500Y-143940000D01*
X240552500Y-143940000D01*
X240552500Y-143665000D01*
X240245880Y-143665000D01*
X240112362Y-143700776D01*
X240112352Y-143700780D01*
X239992649Y-143769891D01*
X239992639Y-143769899D01*
X239894899Y-143867639D01*
X239894891Y-143867649D01*
X239825780Y-143987352D01*
X239825776Y-143987362D01*
X239790000Y-144120879D01*
X239790000Y-144127500D01*
X240070290Y-144127500D01*
X240065000Y-144140272D01*
X240065000Y-144239728D01*
X240070290Y-144252500D01*
X239790000Y-144252500D01*
X239784539Y-144257960D01*
X239771987Y-144288265D01*
X239728500Y-144306278D01*
X239685013Y-144288265D01*
X239626266Y-144229518D01*
X239626263Y-144229515D01*
X239529237Y-144173497D01*
X239529234Y-144173496D01*
X239529232Y-144173495D01*
X239421020Y-144144500D01*
X239421018Y-144144500D01*
X239308982Y-144144500D01*
X239308980Y-144144500D01*
X239200767Y-144173495D01*
X239200763Y-144173497D01*
X239103738Y-144229514D01*
X239103733Y-144229518D01*
X239024518Y-144308733D01*
X239024514Y-144308738D01*
X238968497Y-144405763D01*
X238968495Y-144405767D01*
X238939500Y-144513979D01*
X213981181Y-144513979D01*
X214009624Y-144464716D01*
X214026611Y-144435293D01*
X214026610Y-144435293D01*
X214026614Y-144435288D01*
X214040144Y-144384794D01*
X214050500Y-144346146D01*
X214050500Y-144253853D01*
X214026615Y-144164716D01*
X214026614Y-144164712D01*
X214026611Y-144164706D01*
X213980473Y-144084794D01*
X213980471Y-144084791D01*
X213980469Y-144084788D01*
X213915212Y-144019531D01*
X213915209Y-144019529D01*
X213915205Y-144019526D01*
X213835293Y-143973388D01*
X213835283Y-143973384D01*
X213746146Y-143949500D01*
X213746144Y-143949500D01*
X213653856Y-143949500D01*
X213653854Y-143949500D01*
X213564716Y-143973384D01*
X213564706Y-143973388D01*
X213484794Y-144019526D01*
X213484784Y-144019534D01*
X213419534Y-144084784D01*
X213419526Y-144084794D01*
X213373388Y-144164706D01*
X213373384Y-144164716D01*
X213349500Y-144253853D01*
X176212392Y-144253853D01*
X176196146Y-144249500D01*
X176196144Y-144249500D01*
X176103856Y-144249500D01*
X176103854Y-144249500D01*
X176014716Y-144273384D01*
X176014706Y-144273388D01*
X175934794Y-144319526D01*
X175934784Y-144319534D01*
X175869534Y-144384784D01*
X175869526Y-144384794D01*
X175823388Y-144464706D01*
X175823384Y-144464716D01*
X175799500Y-144553853D01*
X171220345Y-144553853D01*
X171180473Y-144484794D01*
X171180471Y-144484791D01*
X171180469Y-144484788D01*
X171115212Y-144419531D01*
X171115209Y-144419529D01*
X171115205Y-144419526D01*
X171035293Y-144373388D01*
X171035283Y-144373384D01*
X170946146Y-144349500D01*
X170946144Y-144349500D01*
X170853856Y-144349500D01*
X170853854Y-144349500D01*
X170764716Y-144373384D01*
X170764706Y-144373388D01*
X170684794Y-144419526D01*
X170684784Y-144419534D01*
X170619534Y-144484784D01*
X170619526Y-144484794D01*
X170573388Y-144564706D01*
X170573384Y-144564716D01*
X170549500Y-144653853D01*
X169363276Y-144653853D01*
X169385200Y-144631929D01*
X169385201Y-144631927D01*
X169387537Y-144626289D01*
X169400499Y-144594993D01*
X169400500Y-144594990D01*
X169400500Y-143905009D01*
X169385200Y-143868071D01*
X169356929Y-143839800D01*
X169319991Y-143824500D01*
X167862000Y-143824500D01*
X167818513Y-143806487D01*
X167800500Y-143763000D01*
X167800500Y-143053853D01*
X219312000Y-143053853D01*
X219312000Y-143146146D01*
X219335884Y-143235283D01*
X219335888Y-143235293D01*
X219382026Y-143315205D01*
X219382029Y-143315209D01*
X219382031Y-143315212D01*
X219447288Y-143380469D01*
X219447291Y-143380471D01*
X219447294Y-143380473D01*
X219527206Y-143426611D01*
X219527208Y-143426612D01*
X219527212Y-143426614D01*
X219527216Y-143426615D01*
X219616354Y-143450500D01*
X219616356Y-143450500D01*
X219708645Y-143450500D01*
X219747948Y-143439968D01*
X219797788Y-143426614D01*
X219877712Y-143380469D01*
X219942969Y-143315212D01*
X219989114Y-143235288D01*
X219998382Y-143200698D01*
X220013000Y-143146146D01*
X220013000Y-143053853D01*
X219989115Y-142964716D01*
X219989114Y-142964712D01*
X219989111Y-142964706D01*
X219942973Y-142884794D01*
X219942971Y-142884791D01*
X219942969Y-142884788D01*
X219877712Y-142819531D01*
X219877709Y-142819529D01*
X219877705Y-142819526D01*
X219797793Y-142773388D01*
X219797783Y-142773384D01*
X219708646Y-142749500D01*
X219708644Y-142749500D01*
X219616356Y-142749500D01*
X219616354Y-142749500D01*
X219527216Y-142773384D01*
X219527206Y-142773388D01*
X219447294Y-142819526D01*
X219447284Y-142819534D01*
X219382034Y-142884784D01*
X219382026Y-142884794D01*
X219335888Y-142964706D01*
X219335884Y-142964716D01*
X219312000Y-143053853D01*
X167800500Y-143053853D01*
X167800500Y-142427511D01*
X219938342Y-142427511D01*
X219938342Y-142519804D01*
X219962226Y-142608941D01*
X219962230Y-142608951D01*
X220008368Y-142688863D01*
X220008371Y-142688867D01*
X220008373Y-142688870D01*
X220073630Y-142754127D01*
X220073633Y-142754129D01*
X220073636Y-142754131D01*
X220153548Y-142800269D01*
X220153550Y-142800270D01*
X220153554Y-142800272D01*
X220153558Y-142800273D01*
X220242696Y-142824158D01*
X220242698Y-142824158D01*
X220334987Y-142824158D01*
X220374290Y-142813626D01*
X220424130Y-142800272D01*
X220504054Y-142754127D01*
X220569311Y-142688870D01*
X220615456Y-142608946D01*
X220624724Y-142574356D01*
X220639342Y-142519804D01*
X220639342Y-142427511D01*
X220615457Y-142338374D01*
X220615456Y-142338370D01*
X220615453Y-142338364D01*
X220582088Y-142280575D01*
X220569315Y-142258453D01*
X220569314Y-142258452D01*
X220569311Y-142258446D01*
X220564718Y-142253853D01*
X233784500Y-142253853D01*
X233784500Y-142346146D01*
X233808384Y-142435283D01*
X233808388Y-142435293D01*
X233854526Y-142515205D01*
X233854529Y-142515209D01*
X233854531Y-142515212D01*
X233919788Y-142580469D01*
X233919791Y-142580471D01*
X233919794Y-142580473D01*
X233999706Y-142626611D01*
X233999708Y-142626612D01*
X233999712Y-142626614D01*
X233999716Y-142626615D01*
X234088854Y-142650500D01*
X234088856Y-142650500D01*
X234181145Y-142650500D01*
X234220448Y-142639968D01*
X234270288Y-142626614D01*
X234350212Y-142580469D01*
X234415469Y-142515212D01*
X234461614Y-142435288D01*
X234470882Y-142400698D01*
X234485500Y-142346146D01*
X234485500Y-142253853D01*
X234461615Y-142164716D01*
X234461614Y-142164712D01*
X234461611Y-142164706D01*
X234415473Y-142084794D01*
X234415471Y-142084791D01*
X234415469Y-142084788D01*
X234350212Y-142019531D01*
X234350209Y-142019529D01*
X234350205Y-142019526D01*
X234270293Y-141973388D01*
X234270283Y-141973384D01*
X234181146Y-141949500D01*
X234181144Y-141949500D01*
X234088856Y-141949500D01*
X234088854Y-141949500D01*
X233999716Y-141973384D01*
X233999706Y-141973388D01*
X233919794Y-142019526D01*
X233919784Y-142019534D01*
X233854534Y-142084784D01*
X233854526Y-142084794D01*
X233808388Y-142164706D01*
X233808384Y-142164716D01*
X233784500Y-142253853D01*
X220564718Y-142253853D01*
X220504054Y-142193189D01*
X220504051Y-142193187D01*
X220504047Y-142193184D01*
X220424135Y-142147046D01*
X220424125Y-142147042D01*
X220334988Y-142123158D01*
X220334986Y-142123158D01*
X220242698Y-142123158D01*
X220242696Y-142123158D01*
X220153558Y-142147042D01*
X220153548Y-142147046D01*
X220073636Y-142193184D01*
X220073626Y-142193192D01*
X220008376Y-142258442D01*
X220008368Y-142258452D01*
X219962230Y-142338364D01*
X219962226Y-142338374D01*
X219938342Y-142427511D01*
X167800500Y-142427511D01*
X167800500Y-141353853D01*
X235049500Y-141353853D01*
X235049500Y-141446146D01*
X235073384Y-141535283D01*
X235073388Y-141535293D01*
X235119526Y-141615205D01*
X235119529Y-141615209D01*
X235119531Y-141615212D01*
X235184788Y-141680469D01*
X235184791Y-141680471D01*
X235184794Y-141680473D01*
X235264706Y-141726611D01*
X235264708Y-141726612D01*
X235264712Y-141726614D01*
X235264716Y-141726615D01*
X235353854Y-141750500D01*
X235353856Y-141750500D01*
X235446145Y-141750500D01*
X235485448Y-141739968D01*
X235535288Y-141726614D01*
X235615212Y-141680469D01*
X235680469Y-141615212D01*
X235726614Y-141535288D01*
X235735882Y-141500698D01*
X235750500Y-141446146D01*
X235750500Y-141353853D01*
X235726615Y-141264716D01*
X235726614Y-141264712D01*
X235726611Y-141264706D01*
X235680473Y-141184794D01*
X235680471Y-141184791D01*
X235680469Y-141184788D01*
X235615212Y-141119531D01*
X235615209Y-141119529D01*
X235615205Y-141119526D01*
X235535293Y-141073388D01*
X235535283Y-141073384D01*
X235446146Y-141049500D01*
X235446144Y-141049500D01*
X235353856Y-141049500D01*
X235353854Y-141049500D01*
X235264716Y-141073384D01*
X235264706Y-141073388D01*
X235184794Y-141119526D01*
X235184784Y-141119534D01*
X235119534Y-141184784D01*
X235119526Y-141184794D01*
X235073388Y-141264706D01*
X235073384Y-141264716D01*
X235049500Y-141353853D01*
X167800500Y-141353853D01*
X167800500Y-139853853D01*
X192849500Y-139853853D01*
X192849500Y-139946146D01*
X192873384Y-140035283D01*
X192873388Y-140035293D01*
X192919526Y-140115205D01*
X192919529Y-140115209D01*
X192919531Y-140115212D01*
X192984788Y-140180469D01*
X192984791Y-140180471D01*
X192984794Y-140180473D01*
X193064706Y-140226611D01*
X193064708Y-140226612D01*
X193064712Y-140226614D01*
X193064716Y-140226615D01*
X193153854Y-140250500D01*
X193153856Y-140250500D01*
X193246145Y-140250500D01*
X193285448Y-140239968D01*
X193335288Y-140226614D01*
X193415212Y-140180469D01*
X193480469Y-140115212D01*
X193526614Y-140035288D01*
X193535882Y-140000698D01*
X193550500Y-139946146D01*
X193550500Y-139853853D01*
X193526615Y-139764716D01*
X193526614Y-139764712D01*
X193526611Y-139764706D01*
X193480473Y-139684794D01*
X193480471Y-139684791D01*
X193480469Y-139684788D01*
X193415212Y-139619531D01*
X193415209Y-139619529D01*
X193415205Y-139619526D01*
X193335293Y-139573388D01*
X193335283Y-139573384D01*
X193246146Y-139549500D01*
X193246144Y-139549500D01*
X193153856Y-139549500D01*
X193153854Y-139549500D01*
X193064716Y-139573384D01*
X193064706Y-139573388D01*
X192984794Y-139619526D01*
X192984784Y-139619534D01*
X192919534Y-139684784D01*
X192919526Y-139684794D01*
X192873388Y-139764706D01*
X192873384Y-139764716D01*
X192849500Y-139853853D01*
X167800500Y-139853853D01*
X167800500Y-139453853D01*
X182649500Y-139453853D01*
X182649500Y-139546146D01*
X182673384Y-139635283D01*
X182673388Y-139635293D01*
X182719526Y-139715205D01*
X182719529Y-139715209D01*
X182719531Y-139715212D01*
X182784788Y-139780469D01*
X182784791Y-139780471D01*
X182784794Y-139780473D01*
X182864706Y-139826611D01*
X182864708Y-139826612D01*
X182864712Y-139826614D01*
X182864716Y-139826615D01*
X182953854Y-139850500D01*
X182953856Y-139850500D01*
X183046145Y-139850500D01*
X183085448Y-139839968D01*
X183135288Y-139826614D01*
X183215212Y-139780469D01*
X183280469Y-139715212D01*
X183326614Y-139635288D01*
X183349601Y-139549500D01*
X183350500Y-139546146D01*
X183350500Y-139453853D01*
X183326615Y-139364716D01*
X183326614Y-139364712D01*
X183326611Y-139364706D01*
X183280473Y-139284794D01*
X183280471Y-139284791D01*
X183280469Y-139284788D01*
X183215212Y-139219531D01*
X183215209Y-139219529D01*
X183215205Y-139219526D01*
X183135293Y-139173388D01*
X183135283Y-139173384D01*
X183046146Y-139149500D01*
X183046144Y-139149500D01*
X182953856Y-139149500D01*
X182953854Y-139149500D01*
X182864716Y-139173384D01*
X182864706Y-139173388D01*
X182784794Y-139219526D01*
X182784784Y-139219534D01*
X182719534Y-139284784D01*
X182719526Y-139284794D01*
X182673388Y-139364706D01*
X182673384Y-139364716D01*
X182649500Y-139453853D01*
X167800500Y-139453853D01*
X167800500Y-138053853D01*
X189299500Y-138053853D01*
X189299500Y-138146146D01*
X189323384Y-138235283D01*
X189323388Y-138235293D01*
X189369526Y-138315205D01*
X189369529Y-138315209D01*
X189369531Y-138315212D01*
X189434788Y-138380469D01*
X189434791Y-138380471D01*
X189434794Y-138380473D01*
X189514706Y-138426611D01*
X189514708Y-138426612D01*
X189514712Y-138426614D01*
X189514716Y-138426615D01*
X189603854Y-138450500D01*
X189603856Y-138450500D01*
X189696145Y-138450500D01*
X189735448Y-138439968D01*
X189785288Y-138426614D01*
X189865212Y-138380469D01*
X189930469Y-138315212D01*
X189976614Y-138235288D01*
X189985882Y-138200698D01*
X190000500Y-138146146D01*
X190000500Y-138053853D01*
X213149500Y-138053853D01*
X213149500Y-138146146D01*
X213173384Y-138235283D01*
X213173388Y-138235293D01*
X213219526Y-138315205D01*
X213219529Y-138315209D01*
X213219531Y-138315212D01*
X213284788Y-138380469D01*
X213284791Y-138380471D01*
X213284794Y-138380473D01*
X213364706Y-138426611D01*
X213364708Y-138426612D01*
X213364712Y-138426614D01*
X213364716Y-138426615D01*
X213453854Y-138450500D01*
X213453856Y-138450500D01*
X213546145Y-138450500D01*
X213585448Y-138439968D01*
X213635288Y-138426614D01*
X213715212Y-138380469D01*
X213780469Y-138315212D01*
X213826614Y-138235288D01*
X213835882Y-138200698D01*
X213850500Y-138146146D01*
X213850500Y-138053853D01*
X213826615Y-137964716D01*
X213826614Y-137964712D01*
X213826611Y-137964706D01*
X213780473Y-137884794D01*
X213780471Y-137884791D01*
X213780469Y-137884788D01*
X213715212Y-137819531D01*
X213715209Y-137819529D01*
X213715205Y-137819526D01*
X213635293Y-137773388D01*
X213635283Y-137773384D01*
X213546146Y-137749500D01*
X213546144Y-137749500D01*
X213453856Y-137749500D01*
X213453854Y-137749500D01*
X213364716Y-137773384D01*
X213364706Y-137773388D01*
X213284794Y-137819526D01*
X213284784Y-137819534D01*
X213219534Y-137884784D01*
X213219526Y-137884794D01*
X213173388Y-137964706D01*
X213173384Y-137964716D01*
X213149500Y-138053853D01*
X190000500Y-138053853D01*
X189976615Y-137964716D01*
X189976614Y-137964712D01*
X189976611Y-137964706D01*
X189930473Y-137884794D01*
X189930471Y-137884791D01*
X189930469Y-137884788D01*
X189865212Y-137819531D01*
X189865209Y-137819529D01*
X189865205Y-137819526D01*
X189785293Y-137773388D01*
X189785283Y-137773384D01*
X189696146Y-137749500D01*
X189696144Y-137749500D01*
X189603856Y-137749500D01*
X189603854Y-137749500D01*
X189514716Y-137773384D01*
X189514706Y-137773388D01*
X189434794Y-137819526D01*
X189434784Y-137819534D01*
X189369534Y-137884784D01*
X189369526Y-137884794D01*
X189323388Y-137964706D01*
X189323384Y-137964716D01*
X189299500Y-138053853D01*
X167800500Y-138053853D01*
X167800500Y-133953853D01*
X184749500Y-133953853D01*
X184749500Y-134046146D01*
X184773384Y-134135283D01*
X184773388Y-134135293D01*
X184819526Y-134215205D01*
X184819529Y-134215209D01*
X184819531Y-134215212D01*
X184884788Y-134280469D01*
X184884791Y-134280471D01*
X184884794Y-134280473D01*
X184964706Y-134326611D01*
X184964708Y-134326612D01*
X184964712Y-134326614D01*
X184964716Y-134326615D01*
X185053854Y-134350500D01*
X185053856Y-134350500D01*
X185146145Y-134350500D01*
X185185448Y-134339968D01*
X185235288Y-134326614D01*
X185315212Y-134280469D01*
X185380469Y-134215212D01*
X185426614Y-134135288D01*
X185435882Y-134100698D01*
X185450500Y-134046146D01*
X185450500Y-133953853D01*
X185426615Y-133864716D01*
X185426614Y-133864712D01*
X185426611Y-133864706D01*
X185380473Y-133784794D01*
X185380471Y-133784791D01*
X185380469Y-133784788D01*
X185315212Y-133719531D01*
X185315209Y-133719529D01*
X185315205Y-133719526D01*
X185235293Y-133673388D01*
X185235283Y-133673384D01*
X185146146Y-133649500D01*
X185146144Y-133649500D01*
X185053856Y-133649500D01*
X185053854Y-133649500D01*
X184964716Y-133673384D01*
X184964706Y-133673388D01*
X184884794Y-133719526D01*
X184884784Y-133719534D01*
X184819534Y-133784784D01*
X184819526Y-133784794D01*
X184773388Y-133864706D01*
X184773384Y-133864716D01*
X184749500Y-133953853D01*
X167800500Y-133953853D01*
X167800500Y-133053853D01*
X169849500Y-133053853D01*
X169849500Y-133146146D01*
X169873384Y-133235283D01*
X169873388Y-133235293D01*
X169919526Y-133315205D01*
X169919529Y-133315209D01*
X169919531Y-133315212D01*
X169984788Y-133380469D01*
X169984791Y-133380471D01*
X169984794Y-133380473D01*
X170064706Y-133426611D01*
X170064708Y-133426612D01*
X170064712Y-133426614D01*
X170064716Y-133426615D01*
X170153854Y-133450500D01*
X170153856Y-133450500D01*
X170246145Y-133450500D01*
X170285448Y-133439968D01*
X170335288Y-133426614D01*
X170415212Y-133380469D01*
X170480469Y-133315212D01*
X170526614Y-133235288D01*
X170548434Y-133153856D01*
X170548435Y-133153853D01*
X194849500Y-133153853D01*
X194849500Y-133246146D01*
X194873384Y-133335283D01*
X194873388Y-133335293D01*
X194919526Y-133415205D01*
X194919529Y-133415209D01*
X194919531Y-133415212D01*
X194984788Y-133480469D01*
X194984791Y-133480471D01*
X194984794Y-133480473D01*
X195064706Y-133526611D01*
X195064708Y-133526612D01*
X195064712Y-133526614D01*
X195064716Y-133526615D01*
X195153854Y-133550500D01*
X195153856Y-133550500D01*
X195246145Y-133550500D01*
X195285448Y-133539968D01*
X195335288Y-133526614D01*
X195415212Y-133480469D01*
X195480469Y-133415212D01*
X195526614Y-133335288D01*
X195535882Y-133300698D01*
X195550500Y-133246146D01*
X195550500Y-133153853D01*
X195526615Y-133064716D01*
X195526614Y-133064712D01*
X195526611Y-133064706D01*
X195480473Y-132984794D01*
X195480471Y-132984791D01*
X195480469Y-132984788D01*
X195415212Y-132919531D01*
X195415209Y-132919529D01*
X195415205Y-132919526D01*
X195335293Y-132873388D01*
X195335283Y-132873384D01*
X195246146Y-132849500D01*
X195246144Y-132849500D01*
X195153856Y-132849500D01*
X195153854Y-132849500D01*
X195064716Y-132873384D01*
X195064706Y-132873388D01*
X194984794Y-132919526D01*
X194984784Y-132919534D01*
X194919534Y-132984784D01*
X194919526Y-132984794D01*
X194873388Y-133064706D01*
X194873384Y-133064716D01*
X194849500Y-133153853D01*
X170548435Y-133153853D01*
X170550500Y-133146146D01*
X170550500Y-133053853D01*
X170526615Y-132964716D01*
X170526614Y-132964712D01*
X170500530Y-132919534D01*
X170480473Y-132884794D01*
X170480471Y-132884791D01*
X170480469Y-132884788D01*
X170415212Y-132819531D01*
X170415209Y-132819529D01*
X170415205Y-132819526D01*
X170335293Y-132773388D01*
X170335283Y-132773384D01*
X170246146Y-132749500D01*
X170246144Y-132749500D01*
X170153856Y-132749500D01*
X170153854Y-132749500D01*
X170064716Y-132773384D01*
X170064706Y-132773388D01*
X169984794Y-132819526D01*
X169984784Y-132819534D01*
X169919534Y-132884784D01*
X169919526Y-132884794D01*
X169873388Y-132964706D01*
X169873384Y-132964716D01*
X169849500Y-133053853D01*
X167800500Y-133053853D01*
X167800500Y-132128853D01*
X186949500Y-132128853D01*
X186949500Y-132221146D01*
X186973384Y-132310283D01*
X186973388Y-132310293D01*
X187019526Y-132390205D01*
X187019529Y-132390209D01*
X187019531Y-132390212D01*
X187084788Y-132455469D01*
X187084791Y-132455471D01*
X187084794Y-132455473D01*
X187164706Y-132501611D01*
X187164708Y-132501612D01*
X187164712Y-132501614D01*
X187164716Y-132501615D01*
X187253854Y-132525500D01*
X187253856Y-132525500D01*
X187346145Y-132525500D01*
X187385448Y-132514968D01*
X187435288Y-132501614D01*
X187515212Y-132455469D01*
X187580469Y-132390212D01*
X187626614Y-132310288D01*
X187635882Y-132275698D01*
X187650500Y-132221146D01*
X187650500Y-132128853D01*
X187626615Y-132039716D01*
X187626614Y-132039712D01*
X187626611Y-132039706D01*
X187580473Y-131959794D01*
X187580471Y-131959791D01*
X187580469Y-131959788D01*
X187515212Y-131894531D01*
X187515209Y-131894529D01*
X187515205Y-131894526D01*
X187435293Y-131848388D01*
X187435283Y-131848384D01*
X187346146Y-131824500D01*
X187346144Y-131824500D01*
X187253856Y-131824500D01*
X187253854Y-131824500D01*
X187164716Y-131848384D01*
X187164706Y-131848388D01*
X187084794Y-131894526D01*
X187084784Y-131894534D01*
X187019534Y-131959784D01*
X187019526Y-131959794D01*
X186973388Y-132039706D01*
X186973384Y-132039716D01*
X186949500Y-132128853D01*
X167800500Y-132128853D01*
X167800500Y-126936628D01*
X168374500Y-126936628D01*
X168374500Y-127263371D01*
X168406525Y-127588536D01*
X168406528Y-127588554D01*
X168470267Y-127908996D01*
X168565116Y-128221670D01*
X168690158Y-128523550D01*
X168844174Y-128811696D01*
X168844185Y-128811714D01*
X169025710Y-129083385D01*
X169232992Y-129335960D01*
X169464039Y-129567007D01*
X169716614Y-129774289D01*
X169821743Y-129844534D01*
X169988289Y-129955817D01*
X169988296Y-129955820D01*
X169988303Y-129955825D01*
X170229578Y-130084788D01*
X170276451Y-130109842D01*
X170578322Y-130234881D01*
X170890995Y-130329730D01*
X170890999Y-130329730D01*
X170891003Y-130329732D01*
X171100904Y-130371483D01*
X171211459Y-130393474D01*
X171471595Y-130419094D01*
X171536628Y-130425500D01*
X171536629Y-130425500D01*
X171863372Y-130425500D01*
X171917566Y-130420162D01*
X172188541Y-130393474D01*
X172426486Y-130346144D01*
X172508996Y-130329732D01*
X172508998Y-130329731D01*
X172509005Y-130329730D01*
X172821678Y-130234881D01*
X173123549Y-130109842D01*
X173411711Y-129955817D01*
X173683387Y-129774288D01*
X173935963Y-129567005D01*
X174080335Y-129422633D01*
X177949500Y-129422633D01*
X177949500Y-131147360D01*
X177956781Y-131183969D01*
X177956782Y-131183970D01*
X177984519Y-131225481D01*
X178026032Y-131253219D01*
X178062637Y-131260500D01*
X179787362Y-131260499D01*
X179823968Y-131253219D01*
X179865481Y-131225481D01*
X179893219Y-131183968D01*
X179900500Y-131147363D01*
X179900499Y-130188918D01*
X180489500Y-130188918D01*
X180489500Y-130381081D01*
X180526986Y-130569537D01*
X180526988Y-130569544D01*
X180531515Y-130580473D01*
X180600523Y-130747073D01*
X180600525Y-130747076D01*
X180600526Y-130747078D01*
X180707277Y-130906842D01*
X180843157Y-131042722D01*
X180997939Y-131146144D01*
X181002927Y-131149477D01*
X181180457Y-131223012D01*
X181368918Y-131260499D01*
X181368919Y-131260500D01*
X181368922Y-131260500D01*
X181561081Y-131260500D01*
X181561081Y-131260499D01*
X181749543Y-131223012D01*
X181927073Y-131149477D01*
X182070183Y-131053853D01*
X182649500Y-131053853D01*
X182649500Y-131146146D01*
X182673384Y-131235283D01*
X182673388Y-131235293D01*
X182719526Y-131315205D01*
X182719529Y-131315209D01*
X182719531Y-131315212D01*
X182784788Y-131380469D01*
X182784791Y-131380471D01*
X182784794Y-131380473D01*
X182864706Y-131426611D01*
X182864708Y-131426612D01*
X182864712Y-131426614D01*
X182864716Y-131426615D01*
X182953854Y-131450500D01*
X182953856Y-131450500D01*
X183046145Y-131450500D01*
X183085448Y-131439968D01*
X183135288Y-131426614D01*
X183215212Y-131380469D01*
X183280469Y-131315212D01*
X183326614Y-131235288D01*
X183340365Y-131183968D01*
X183350500Y-131146146D01*
X183350500Y-131053853D01*
X183326615Y-130964716D01*
X183326614Y-130964712D01*
X183293204Y-130906845D01*
X183280473Y-130884794D01*
X183280471Y-130884791D01*
X183280469Y-130884788D01*
X183279599Y-130883918D01*
X212524500Y-130883918D01*
X212524500Y-131076081D01*
X212561986Y-131264537D01*
X212561988Y-131264543D01*
X212635523Y-131442073D01*
X212635525Y-131442076D01*
X212635526Y-131442078D01*
X212742277Y-131601842D01*
X212878157Y-131737722D01*
X213037921Y-131844473D01*
X213037927Y-131844477D01*
X213215457Y-131918012D01*
X213403918Y-131955499D01*
X213403919Y-131955500D01*
X213403922Y-131955500D01*
X213596081Y-131955500D01*
X213596081Y-131955499D01*
X213784543Y-131918012D01*
X213962073Y-131844477D01*
X214121845Y-131737720D01*
X214257720Y-131601845D01*
X214364477Y-131442073D01*
X214438012Y-131264543D01*
X214475499Y-131076081D01*
X214475500Y-131076081D01*
X214475500Y-130883919D01*
X214475499Y-130883918D01*
X214438013Y-130695462D01*
X214438011Y-130695455D01*
X214419390Y-130650500D01*
X214364477Y-130517927D01*
X214336128Y-130475500D01*
X214257722Y-130358157D01*
X214121842Y-130222277D01*
X213962078Y-130115526D01*
X213962076Y-130115525D01*
X213962073Y-130115523D01*
X213839293Y-130064666D01*
X213784544Y-130041988D01*
X213784537Y-130041986D01*
X213596081Y-130004500D01*
X213596078Y-130004500D01*
X213403922Y-130004500D01*
X213403919Y-130004500D01*
X213215462Y-130041986D01*
X213215455Y-130041988D01*
X213126449Y-130078856D01*
X213037927Y-130115523D01*
X213037924Y-130115524D01*
X213037921Y-130115526D01*
X212878157Y-130222277D01*
X212742277Y-130358157D01*
X212635526Y-130517921D01*
X212635524Y-130517924D01*
X212635523Y-130517927D01*
X212614146Y-130569537D01*
X212561988Y-130695455D01*
X212561986Y-130695462D01*
X212524500Y-130883918D01*
X183279599Y-130883918D01*
X183215212Y-130819531D01*
X183215209Y-130819529D01*
X183215205Y-130819526D01*
X183135293Y-130773388D01*
X183135283Y-130773384D01*
X183046146Y-130749500D01*
X183046144Y-130749500D01*
X182953856Y-130749500D01*
X182953854Y-130749500D01*
X182864716Y-130773384D01*
X182864706Y-130773388D01*
X182784794Y-130819526D01*
X182784784Y-130819534D01*
X182719534Y-130884784D01*
X182719526Y-130884794D01*
X182673388Y-130964706D01*
X182673384Y-130964716D01*
X182649500Y-131053853D01*
X182070183Y-131053853D01*
X182086845Y-131042720D01*
X182222720Y-130906845D01*
X182329477Y-130747073D01*
X182403012Y-130569543D01*
X182440499Y-130381081D01*
X182440500Y-130381081D01*
X182440500Y-130253853D01*
X189299500Y-130253853D01*
X189299500Y-130346146D01*
X189323384Y-130435283D01*
X189323388Y-130435293D01*
X189369526Y-130515205D01*
X189369529Y-130515209D01*
X189369531Y-130515212D01*
X189434788Y-130580469D01*
X189434791Y-130580471D01*
X189434794Y-130580473D01*
X189514706Y-130626611D01*
X189514708Y-130626612D01*
X189514712Y-130626614D01*
X189514716Y-130626615D01*
X189603854Y-130650500D01*
X189603856Y-130650500D01*
X189696145Y-130650500D01*
X189735448Y-130639968D01*
X189785288Y-130626614D01*
X189865212Y-130580469D01*
X189930469Y-130515212D01*
X189976614Y-130435288D01*
X189991139Y-130381081D01*
X190000500Y-130346146D01*
X190000500Y-130253853D01*
X189976615Y-130164716D01*
X189976614Y-130164712D01*
X189948216Y-130115526D01*
X189930473Y-130084794D01*
X189930471Y-130084791D01*
X189930469Y-130084788D01*
X189924534Y-130078853D01*
X203149500Y-130078853D01*
X203149500Y-130171146D01*
X203173384Y-130260283D01*
X203173388Y-130260293D01*
X203219526Y-130340205D01*
X203219529Y-130340209D01*
X203219531Y-130340212D01*
X203284788Y-130405469D01*
X203284791Y-130405471D01*
X203284794Y-130405473D01*
X203364706Y-130451611D01*
X203364708Y-130451612D01*
X203364712Y-130451614D01*
X203364716Y-130451615D01*
X203453854Y-130475500D01*
X203453856Y-130475500D01*
X203546145Y-130475500D01*
X203585448Y-130464968D01*
X203635288Y-130451614D01*
X203715212Y-130405469D01*
X203780469Y-130340212D01*
X203826614Y-130260288D01*
X203836799Y-130222277D01*
X203850500Y-130171146D01*
X203850500Y-130078853D01*
X203826615Y-129989716D01*
X203826614Y-129989712D01*
X203821280Y-129980473D01*
X203780473Y-129909794D01*
X203780471Y-129909791D01*
X203780469Y-129909788D01*
X203715212Y-129844531D01*
X203715209Y-129844529D01*
X203715205Y-129844526D01*
X203635293Y-129798388D01*
X203635283Y-129798384D01*
X203546146Y-129774500D01*
X203546144Y-129774500D01*
X203453856Y-129774500D01*
X203453854Y-129774500D01*
X203364716Y-129798384D01*
X203364706Y-129798388D01*
X203284794Y-129844526D01*
X203284784Y-129844534D01*
X203219534Y-129909784D01*
X203219526Y-129909794D01*
X203173388Y-129989706D01*
X203173384Y-129989716D01*
X203149500Y-130078853D01*
X189924534Y-130078853D01*
X189865212Y-130019531D01*
X189865209Y-130019529D01*
X189865205Y-130019526D01*
X189785293Y-129973388D01*
X189785283Y-129973384D01*
X189696146Y-129949500D01*
X189696144Y-129949500D01*
X189603856Y-129949500D01*
X189603854Y-129949500D01*
X189514716Y-129973384D01*
X189514706Y-129973388D01*
X189434794Y-130019526D01*
X189434784Y-130019534D01*
X189369534Y-130084784D01*
X189369526Y-130084794D01*
X189323388Y-130164706D01*
X189323384Y-130164716D01*
X189299500Y-130253853D01*
X182440500Y-130253853D01*
X182440500Y-130188919D01*
X182440499Y-130188918D01*
X182418606Y-130078856D01*
X182403012Y-130000457D01*
X182329477Y-129822927D01*
X182329473Y-129822921D01*
X182222722Y-129663157D01*
X182086842Y-129527277D01*
X181927078Y-129420526D01*
X181927076Y-129420525D01*
X181927073Y-129420523D01*
X181794397Y-129365567D01*
X181749544Y-129346988D01*
X181749537Y-129346986D01*
X181561081Y-129309500D01*
X181561078Y-129309500D01*
X181368922Y-129309500D01*
X181368919Y-129309500D01*
X181180462Y-129346986D01*
X181180455Y-129346988D01*
X181086203Y-129386029D01*
X181002927Y-129420523D01*
X181002924Y-129420524D01*
X181002921Y-129420526D01*
X180843157Y-129527277D01*
X180707277Y-129663157D01*
X180600526Y-129822921D01*
X180600524Y-129822924D01*
X180600523Y-129822927D01*
X180591573Y-129844534D01*
X180526988Y-130000455D01*
X180526986Y-130000462D01*
X180489500Y-130188918D01*
X179900499Y-130188918D01*
X179900499Y-129422638D01*
X179893219Y-129386032D01*
X179865481Y-129344519D01*
X179833223Y-129322965D01*
X179823967Y-129316780D01*
X179787366Y-129309500D01*
X178062639Y-129309500D01*
X178026030Y-129316781D01*
X178026029Y-129316782D01*
X177984519Y-129344519D01*
X177956780Y-129386032D01*
X177949500Y-129422633D01*
X174080335Y-129422633D01*
X174167005Y-129335963D01*
X174374288Y-129083387D01*
X174432443Y-128996353D01*
X187249500Y-128996353D01*
X187249500Y-129088646D01*
X187273384Y-129177783D01*
X187273388Y-129177793D01*
X187319526Y-129257705D01*
X187319529Y-129257709D01*
X187319531Y-129257712D01*
X187319533Y-129257714D01*
X187319534Y-129257715D01*
X187387638Y-129325819D01*
X187386523Y-129326933D01*
X187407325Y-129362978D01*
X187395134Y-129408442D01*
X187389838Y-129414480D01*
X187369534Y-129434784D01*
X187369526Y-129434794D01*
X187323388Y-129514706D01*
X187323384Y-129514716D01*
X187299500Y-129603853D01*
X187299500Y-129696146D01*
X187323384Y-129785283D01*
X187323388Y-129785293D01*
X187369526Y-129865205D01*
X187369529Y-129865209D01*
X187369531Y-129865212D01*
X187434788Y-129930469D01*
X187434791Y-129930471D01*
X187434794Y-129930473D01*
X187514706Y-129976611D01*
X187514708Y-129976612D01*
X187514712Y-129976614D01*
X187514716Y-129976615D01*
X187603854Y-130000500D01*
X187603856Y-130000500D01*
X187696145Y-130000500D01*
X187736428Y-129989706D01*
X187785288Y-129976614D01*
X187865212Y-129930469D01*
X187930469Y-129865212D01*
X187976614Y-129785288D01*
X187995393Y-129715205D01*
X188000500Y-129696146D01*
X188000500Y-129653853D01*
X193549500Y-129653853D01*
X193549500Y-129746146D01*
X193573384Y-129835283D01*
X193573388Y-129835293D01*
X193619526Y-129915205D01*
X193619529Y-129915209D01*
X193619531Y-129915212D01*
X193684788Y-129980469D01*
X193684791Y-129980471D01*
X193684794Y-129980473D01*
X193764706Y-130026611D01*
X193764708Y-130026612D01*
X193764712Y-130026614D01*
X193764716Y-130026615D01*
X193853854Y-130050500D01*
X193853856Y-130050500D01*
X193946145Y-130050500D01*
X193985448Y-130039968D01*
X194035288Y-130026614D01*
X194044035Y-130021563D01*
X194044037Y-130021563D01*
X194080518Y-130000500D01*
X194115212Y-129980469D01*
X194180469Y-129915212D01*
X194226614Y-129835288D01*
X194240010Y-129785293D01*
X194250500Y-129746146D01*
X194250500Y-129653853D01*
X194240239Y-129615561D01*
X194246382Y-129568894D01*
X194283725Y-129540239D01*
X194315561Y-129540239D01*
X194353854Y-129550500D01*
X194353856Y-129550500D01*
X194446145Y-129550500D01*
X194485448Y-129539968D01*
X194535288Y-129526614D01*
X194615212Y-129480469D01*
X194641828Y-129453853D01*
X198249500Y-129453853D01*
X198249500Y-129546146D01*
X198273384Y-129635283D01*
X198273388Y-129635293D01*
X198319526Y-129715205D01*
X198319529Y-129715209D01*
X198319531Y-129715212D01*
X198384788Y-129780469D01*
X198384791Y-129780471D01*
X198384794Y-129780473D01*
X198464706Y-129826611D01*
X198464708Y-129826612D01*
X198464712Y-129826614D01*
X198464716Y-129826615D01*
X198553854Y-129850500D01*
X198553856Y-129850500D01*
X198646145Y-129850500D01*
X198702916Y-129835288D01*
X198735288Y-129826614D01*
X198815212Y-129780469D01*
X198880469Y-129715212D01*
X198926614Y-129635288D01*
X198944910Y-129567007D01*
X198950500Y-129546146D01*
X198950500Y-129453853D01*
X198927794Y-129369115D01*
X198926614Y-129364712D01*
X198925613Y-129362978D01*
X198880473Y-129284794D01*
X198880471Y-129284791D01*
X198880469Y-129284788D01*
X198815212Y-129219531D01*
X198815209Y-129219529D01*
X198815205Y-129219526D01*
X198735293Y-129173388D01*
X198735283Y-129173384D01*
X198646146Y-129149500D01*
X198646144Y-129149500D01*
X198553856Y-129149500D01*
X198553854Y-129149500D01*
X198464716Y-129173384D01*
X198464706Y-129173388D01*
X198384794Y-129219526D01*
X198384784Y-129219534D01*
X198319534Y-129284784D01*
X198319526Y-129284794D01*
X198273388Y-129364706D01*
X198273384Y-129364716D01*
X198249500Y-129453853D01*
X194641828Y-129453853D01*
X194680469Y-129415212D01*
X194726614Y-129335288D01*
X194740144Y-129284794D01*
X194750500Y-129246146D01*
X194750500Y-129153853D01*
X194726615Y-129064716D01*
X194726614Y-129064712D01*
X194724957Y-129061842D01*
X194680473Y-128984794D01*
X194680471Y-128984791D01*
X194680469Y-128984788D01*
X194615212Y-128919531D01*
X194615209Y-128919529D01*
X194615205Y-128919526D01*
X194535293Y-128873388D01*
X194535283Y-128873384D01*
X194446146Y-128849500D01*
X194446144Y-128849500D01*
X194353856Y-128849500D01*
X194353854Y-128849500D01*
X194264716Y-128873384D01*
X194264706Y-128873388D01*
X194184794Y-128919526D01*
X194184784Y-128919534D01*
X194119534Y-128984784D01*
X194119526Y-128984794D01*
X194073388Y-129064706D01*
X194073384Y-129064716D01*
X194049500Y-129153853D01*
X194049500Y-129153856D01*
X194049500Y-129246144D01*
X194057238Y-129275024D01*
X194059761Y-129284439D01*
X194053616Y-129331106D01*
X194016273Y-129359761D01*
X193984439Y-129359761D01*
X193946144Y-129349500D01*
X193853856Y-129349500D01*
X193853854Y-129349500D01*
X193764716Y-129373384D01*
X193764706Y-129373388D01*
X193684794Y-129419526D01*
X193684784Y-129419534D01*
X193619534Y-129484784D01*
X193619526Y-129484794D01*
X193573388Y-129564706D01*
X193573384Y-129564716D01*
X193549500Y-129653853D01*
X188000500Y-129653853D01*
X188000500Y-129603853D01*
X187976615Y-129514716D01*
X187976614Y-129514712D01*
X187959341Y-129484794D01*
X187930473Y-129434794D01*
X187930471Y-129434791D01*
X187930469Y-129434788D01*
X187865212Y-129369531D01*
X187862362Y-129366681D01*
X187863475Y-129365567D01*
X187842673Y-129329517D01*
X187854867Y-129284054D01*
X187860155Y-129278025D01*
X187880469Y-129257712D01*
X187926614Y-129177788D01*
X187940327Y-129126611D01*
X187950500Y-129088646D01*
X187950500Y-128996353D01*
X190249500Y-128996353D01*
X190249500Y-129088646D01*
X190273384Y-129177783D01*
X190273388Y-129177793D01*
X190319526Y-129257705D01*
X190319529Y-129257709D01*
X190319531Y-129257712D01*
X190384788Y-129322969D01*
X190384791Y-129322971D01*
X190384794Y-129322973D01*
X190464706Y-129369111D01*
X190464708Y-129369112D01*
X190464712Y-129369114D01*
X190464716Y-129369115D01*
X190553854Y-129393000D01*
X190553856Y-129393000D01*
X190646145Y-129393000D01*
X190702080Y-129378012D01*
X190735288Y-129369114D01*
X190815212Y-129322969D01*
X190880469Y-129257712D01*
X190926614Y-129177788D01*
X190940327Y-129126611D01*
X190950500Y-129088646D01*
X190950500Y-128996353D01*
X190926615Y-128907216D01*
X190926614Y-128907212D01*
X190923647Y-128902073D01*
X190880473Y-128827294D01*
X190880471Y-128827291D01*
X190880469Y-128827288D01*
X190815212Y-128762031D01*
X190815209Y-128762029D01*
X190815205Y-128762026D01*
X190735293Y-128715888D01*
X190735283Y-128715884D01*
X190646146Y-128692000D01*
X190646144Y-128692000D01*
X190553856Y-128692000D01*
X190553854Y-128692000D01*
X190464716Y-128715884D01*
X190464706Y-128715888D01*
X190384794Y-128762026D01*
X190384784Y-128762034D01*
X190319534Y-128827284D01*
X190319526Y-128827294D01*
X190273388Y-128907206D01*
X190273384Y-128907216D01*
X190249500Y-128996353D01*
X187950500Y-128996353D01*
X187926615Y-128907216D01*
X187926614Y-128907212D01*
X187923647Y-128902073D01*
X187880473Y-128827294D01*
X187880471Y-128827291D01*
X187880469Y-128827288D01*
X187815212Y-128762031D01*
X187815209Y-128762029D01*
X187815205Y-128762026D01*
X187735293Y-128715888D01*
X187735283Y-128715884D01*
X187646146Y-128692000D01*
X187646144Y-128692000D01*
X187553856Y-128692000D01*
X187553854Y-128692000D01*
X187464716Y-128715884D01*
X187464706Y-128715888D01*
X187384794Y-128762026D01*
X187384784Y-128762034D01*
X187319534Y-128827284D01*
X187319526Y-128827294D01*
X187273388Y-128907206D01*
X187273384Y-128907216D01*
X187249500Y-128996353D01*
X174432443Y-128996353D01*
X174440173Y-128984784D01*
X174457965Y-128958157D01*
X174457966Y-128958156D01*
X174555808Y-128811724D01*
X174555817Y-128811711D01*
X174670928Y-128596353D01*
X194849500Y-128596353D01*
X194849500Y-128688646D01*
X194873384Y-128777783D01*
X194873388Y-128777793D01*
X194919526Y-128857705D01*
X194919529Y-128857709D01*
X194919531Y-128857712D01*
X194984788Y-128922969D01*
X194984791Y-128922971D01*
X194984794Y-128922973D01*
X195064706Y-128969111D01*
X195064708Y-128969112D01*
X195064712Y-128969114D01*
X195064716Y-128969115D01*
X195153854Y-128993000D01*
X195153856Y-128993000D01*
X195246145Y-128993000D01*
X195285448Y-128982468D01*
X195335288Y-128969114D01*
X195415212Y-128922969D01*
X195480469Y-128857712D01*
X195526614Y-128777788D01*
X195530836Y-128762031D01*
X195533027Y-128753853D01*
X208559500Y-128753853D01*
X208559500Y-128846146D01*
X208583384Y-128935283D01*
X208583388Y-128935293D01*
X208629526Y-129015205D01*
X208629529Y-129015209D01*
X208629531Y-129015212D01*
X208694788Y-129080469D01*
X208694791Y-129080471D01*
X208694794Y-129080473D01*
X208774706Y-129126611D01*
X208774708Y-129126612D01*
X208774712Y-129126614D01*
X208774716Y-129126615D01*
X208863854Y-129150500D01*
X208863856Y-129150500D01*
X208956145Y-129150500D01*
X208995448Y-129139968D01*
X209045288Y-129126614D01*
X209125212Y-129080469D01*
X209190469Y-129015212D01*
X209236614Y-128935288D01*
X209257400Y-128857715D01*
X209260500Y-128846146D01*
X209260500Y-128753853D01*
X209236615Y-128664716D01*
X209236614Y-128664712D01*
X209197148Y-128596356D01*
X209190473Y-128584794D01*
X209190471Y-128584791D01*
X209190469Y-128584788D01*
X209125212Y-128519531D01*
X209125209Y-128519529D01*
X209125205Y-128519526D01*
X209045293Y-128473388D01*
X209045283Y-128473384D01*
X208956146Y-128449500D01*
X208956144Y-128449500D01*
X208863856Y-128449500D01*
X208863854Y-128449500D01*
X208774716Y-128473384D01*
X208774706Y-128473388D01*
X208694794Y-128519526D01*
X208694784Y-128519534D01*
X208629534Y-128584784D01*
X208629526Y-128584794D01*
X208583388Y-128664706D01*
X208583384Y-128664716D01*
X208559500Y-128753853D01*
X195533027Y-128753853D01*
X195538372Y-128733908D01*
X195538372Y-128733907D01*
X195550500Y-128688646D01*
X195550500Y-128596353D01*
X195526615Y-128507216D01*
X195526614Y-128507212D01*
X195511174Y-128480469D01*
X195480473Y-128427294D01*
X195480471Y-128427291D01*
X195480469Y-128427288D01*
X195415212Y-128362031D01*
X195415209Y-128362029D01*
X195415205Y-128362026D01*
X195383842Y-128343918D01*
X212524500Y-128343918D01*
X212524500Y-128536081D01*
X212561986Y-128724537D01*
X212561988Y-128724544D01*
X212574130Y-128753856D01*
X212635523Y-128902073D01*
X212635525Y-128902076D01*
X212635526Y-128902078D01*
X212742277Y-129061842D01*
X212878157Y-129197722D01*
X213037921Y-129304473D01*
X213037927Y-129304477D01*
X213215457Y-129378012D01*
X213403918Y-129415499D01*
X213403919Y-129415500D01*
X213403922Y-129415500D01*
X213596081Y-129415500D01*
X213596081Y-129415499D01*
X213784543Y-129378012D01*
X213962073Y-129304477D01*
X214121845Y-129197720D01*
X214257720Y-129061845D01*
X214364477Y-128902073D01*
X214438012Y-128724543D01*
X214475499Y-128536081D01*
X214475500Y-128536081D01*
X214475500Y-128343919D01*
X214475499Y-128343918D01*
X214473783Y-128335293D01*
X214438012Y-128155457D01*
X214364477Y-127977927D01*
X214325458Y-127919531D01*
X214257722Y-127818157D01*
X214121842Y-127682277D01*
X213962078Y-127575526D01*
X213962076Y-127575525D01*
X213962073Y-127575523D01*
X213839293Y-127524666D01*
X213784544Y-127501988D01*
X213784537Y-127501986D01*
X213596081Y-127464500D01*
X213596078Y-127464500D01*
X213403922Y-127464500D01*
X213403919Y-127464500D01*
X213215462Y-127501986D01*
X213215455Y-127501988D01*
X213105956Y-127547344D01*
X213037927Y-127575523D01*
X213037924Y-127575524D01*
X213037921Y-127575526D01*
X212878157Y-127682277D01*
X212742277Y-127818157D01*
X212635526Y-127977921D01*
X212635524Y-127977924D01*
X212635523Y-127977927D01*
X212632679Y-127984794D01*
X212561988Y-128155455D01*
X212561986Y-128155462D01*
X212524500Y-128343918D01*
X195383842Y-128343918D01*
X195335293Y-128315888D01*
X195335283Y-128315884D01*
X195246146Y-128292000D01*
X195246144Y-128292000D01*
X195153856Y-128292000D01*
X195153854Y-128292000D01*
X195064716Y-128315884D01*
X195064706Y-128315888D01*
X194984794Y-128362026D01*
X194984784Y-128362034D01*
X194919534Y-128427284D01*
X194919526Y-128427294D01*
X194873388Y-128507206D01*
X194873384Y-128507216D01*
X194849500Y-128596353D01*
X174670928Y-128596353D01*
X174709842Y-128523549D01*
X174834881Y-128221678D01*
X174855456Y-128153853D01*
X185549500Y-128153853D01*
X185549500Y-128246146D01*
X185573384Y-128335283D01*
X185573388Y-128335293D01*
X185619526Y-128415205D01*
X185619529Y-128415209D01*
X185619531Y-128415212D01*
X185684788Y-128480469D01*
X185684791Y-128480471D01*
X185684794Y-128480473D01*
X185764706Y-128526611D01*
X185764708Y-128526612D01*
X185764712Y-128526614D01*
X185764716Y-128526615D01*
X185853854Y-128550500D01*
X185853856Y-128550500D01*
X185946145Y-128550500D01*
X186011751Y-128532921D01*
X186022716Y-128529982D01*
X186035288Y-128526614D01*
X186115212Y-128480469D01*
X186180469Y-128415212D01*
X186226614Y-128335288D01*
X186238213Y-128292000D01*
X186250500Y-128246146D01*
X186250500Y-128153853D01*
X186226615Y-128064716D01*
X186226614Y-128064712D01*
X186226611Y-128064706D01*
X186180473Y-127984794D01*
X186180471Y-127984791D01*
X186180469Y-127984788D01*
X186115212Y-127919531D01*
X186115209Y-127919529D01*
X186115205Y-127919526D01*
X186035293Y-127873388D01*
X186035283Y-127873384D01*
X185946146Y-127849500D01*
X185946144Y-127849500D01*
X185853856Y-127849500D01*
X185853854Y-127849500D01*
X185764716Y-127873384D01*
X185764706Y-127873388D01*
X185684794Y-127919526D01*
X185684784Y-127919534D01*
X185619534Y-127984784D01*
X185619526Y-127984794D01*
X185573388Y-128064706D01*
X185573384Y-128064716D01*
X185549500Y-128153853D01*
X174855456Y-128153853D01*
X174929730Y-127909005D01*
X174936816Y-127873384D01*
X174993471Y-127588554D01*
X174993474Y-127588541D01*
X175025500Y-127263371D01*
X175025500Y-127153853D01*
X189299500Y-127153853D01*
X189299500Y-127246146D01*
X189323384Y-127335283D01*
X189323388Y-127335293D01*
X189369526Y-127415205D01*
X189369529Y-127415209D01*
X189369531Y-127415212D01*
X189434788Y-127480469D01*
X189434791Y-127480471D01*
X189434794Y-127480473D01*
X189514706Y-127526611D01*
X189514708Y-127526612D01*
X189514712Y-127526614D01*
X189514716Y-127526615D01*
X189603854Y-127550500D01*
X189603856Y-127550500D01*
X189696145Y-127550500D01*
X189735448Y-127539968D01*
X189785288Y-127526614D01*
X189865212Y-127480469D01*
X189930469Y-127415212D01*
X189976614Y-127335288D01*
X189995884Y-127263371D01*
X190000500Y-127246146D01*
X190000500Y-127153853D01*
X189976615Y-127064716D01*
X189976614Y-127064712D01*
X189976611Y-127064706D01*
X189930473Y-126984794D01*
X189930471Y-126984791D01*
X189930469Y-126984788D01*
X189882309Y-126936628D01*
X240374500Y-126936628D01*
X240374500Y-127263371D01*
X240406525Y-127588536D01*
X240406528Y-127588554D01*
X240470267Y-127908996D01*
X240565116Y-128221670D01*
X240690158Y-128523550D01*
X240844174Y-128811696D01*
X240844185Y-128811714D01*
X241025710Y-129083385D01*
X241232992Y-129335960D01*
X241464039Y-129567007D01*
X241716614Y-129774289D01*
X241821743Y-129844534D01*
X241988289Y-129955817D01*
X241988296Y-129955820D01*
X241988303Y-129955825D01*
X242229578Y-130084788D01*
X242276451Y-130109842D01*
X242578322Y-130234881D01*
X242890995Y-130329730D01*
X242890999Y-130329730D01*
X242891003Y-130329732D01*
X243100904Y-130371483D01*
X243211459Y-130393474D01*
X243471595Y-130419094D01*
X243536628Y-130425500D01*
X243536629Y-130425500D01*
X243863372Y-130425500D01*
X243917566Y-130420162D01*
X244188541Y-130393474D01*
X244426486Y-130346144D01*
X244508996Y-130329732D01*
X244508998Y-130329731D01*
X244509005Y-130329730D01*
X244821678Y-130234881D01*
X245123549Y-130109842D01*
X245411711Y-129955817D01*
X245683387Y-129774288D01*
X245935963Y-129567005D01*
X246167005Y-129335963D01*
X246374288Y-129083387D01*
X246555817Y-128811711D01*
X246709842Y-128523549D01*
X246834881Y-128221678D01*
X246929730Y-127909005D01*
X246936816Y-127873384D01*
X246993471Y-127588554D01*
X246993474Y-127588541D01*
X247025500Y-127263371D01*
X247025500Y-126936629D01*
X246993474Y-126611459D01*
X246929730Y-126290995D01*
X246834881Y-125978322D01*
X246709842Y-125676451D01*
X246709841Y-125676449D01*
X246555825Y-125388303D01*
X246555820Y-125388296D01*
X246555817Y-125388289D01*
X246374288Y-125116613D01*
X246309475Y-125037638D01*
X246167007Y-124864039D01*
X245935960Y-124632992D01*
X245683385Y-124425710D01*
X245411714Y-124244185D01*
X245411696Y-124244174D01*
X245123550Y-124090158D01*
X244951769Y-124019004D01*
X244821678Y-123965119D01*
X244821675Y-123965118D01*
X244821670Y-123965116D01*
X244508996Y-123870267D01*
X244188554Y-123806528D01*
X244188536Y-123806525D01*
X243863372Y-123774500D01*
X243863371Y-123774500D01*
X243536629Y-123774500D01*
X243536628Y-123774500D01*
X243211463Y-123806525D01*
X243211445Y-123806528D01*
X242891003Y-123870267D01*
X242578329Y-123965116D01*
X242276449Y-124090158D01*
X241988303Y-124244174D01*
X241988285Y-124244185D01*
X241716614Y-124425710D01*
X241464039Y-124632992D01*
X241232992Y-124864039D01*
X241025710Y-125116614D01*
X240844185Y-125388285D01*
X240844174Y-125388303D01*
X240690158Y-125676449D01*
X240565116Y-125978329D01*
X240470267Y-126291003D01*
X240406528Y-126611445D01*
X240406525Y-126611463D01*
X240374500Y-126936628D01*
X189882309Y-126936628D01*
X189865212Y-126919531D01*
X189865209Y-126919529D01*
X189865205Y-126919526D01*
X189785293Y-126873388D01*
X189785283Y-126873384D01*
X189696146Y-126849500D01*
X189696144Y-126849500D01*
X189603856Y-126849500D01*
X189603854Y-126849500D01*
X189514716Y-126873384D01*
X189514706Y-126873388D01*
X189434794Y-126919526D01*
X189434784Y-126919534D01*
X189369534Y-126984784D01*
X189369526Y-126984794D01*
X189323388Y-127064706D01*
X189323384Y-127064716D01*
X189299500Y-127153853D01*
X175025500Y-127153853D01*
X175025500Y-126936629D01*
X174993474Y-126611459D01*
X174958431Y-126435283D01*
X174929731Y-126290997D01*
X174922658Y-126267680D01*
X174922657Y-126267678D01*
X174918463Y-126253853D01*
X198249500Y-126253853D01*
X198249500Y-126346146D01*
X198273384Y-126435283D01*
X198273388Y-126435293D01*
X198319526Y-126515205D01*
X198319529Y-126515209D01*
X198319531Y-126515212D01*
X198384788Y-126580469D01*
X198384791Y-126580471D01*
X198384794Y-126580473D01*
X198464706Y-126626611D01*
X198464708Y-126626612D01*
X198464712Y-126626614D01*
X198464716Y-126626615D01*
X198553854Y-126650500D01*
X198553856Y-126650500D01*
X198646145Y-126650500D01*
X198685448Y-126639968D01*
X198735288Y-126626614D01*
X198815212Y-126580469D01*
X198880469Y-126515212D01*
X198926614Y-126435288D01*
X198935882Y-126400698D01*
X198950500Y-126346146D01*
X198950500Y-126253853D01*
X198926615Y-126164716D01*
X198926614Y-126164712D01*
X198926611Y-126164706D01*
X198880473Y-126084794D01*
X198880471Y-126084791D01*
X198880469Y-126084788D01*
X198815212Y-126019531D01*
X198815209Y-126019529D01*
X198815205Y-126019526D01*
X198735293Y-125973388D01*
X198735283Y-125973384D01*
X198646146Y-125949500D01*
X198646144Y-125949500D01*
X198553856Y-125949500D01*
X198553854Y-125949500D01*
X198464716Y-125973384D01*
X198464706Y-125973388D01*
X198384794Y-126019526D01*
X198384784Y-126019534D01*
X198319534Y-126084784D01*
X198319526Y-126084794D01*
X198273388Y-126164706D01*
X198273384Y-126164716D01*
X198249500Y-126253853D01*
X174918463Y-126253853D01*
X174834883Y-125978329D01*
X174834881Y-125978322D01*
X174709842Y-125676451D01*
X174709841Y-125676449D01*
X174555825Y-125388303D01*
X174555820Y-125388296D01*
X174555817Y-125388289D01*
X174374288Y-125116613D01*
X174309475Y-125037638D01*
X174309471Y-125037633D01*
X212524500Y-125037633D01*
X212524500Y-126762360D01*
X212531781Y-126798969D01*
X212531782Y-126798970D01*
X212559519Y-126840481D01*
X212601032Y-126868219D01*
X212637637Y-126875500D01*
X214362362Y-126875499D01*
X214398968Y-126868219D01*
X214440481Y-126840481D01*
X214468219Y-126798968D01*
X214475500Y-126762363D01*
X214475499Y-125037638D01*
X214468219Y-125001032D01*
X214440481Y-124959519D01*
X214412742Y-124940984D01*
X214398967Y-124931780D01*
X214362366Y-124924500D01*
X212637639Y-124924500D01*
X212601030Y-124931781D01*
X212601029Y-124931782D01*
X212559519Y-124959519D01*
X212531780Y-125001032D01*
X212524500Y-125037633D01*
X174309471Y-125037633D01*
X174167007Y-124864039D01*
X173935960Y-124632992D01*
X173683385Y-124425710D01*
X173411714Y-124244185D01*
X173411696Y-124244174D01*
X173123550Y-124090158D01*
X172951769Y-124019004D01*
X172821678Y-123965119D01*
X172821675Y-123965118D01*
X172821670Y-123965116D01*
X172508996Y-123870267D01*
X172188554Y-123806528D01*
X172188536Y-123806525D01*
X171863372Y-123774500D01*
X171863371Y-123774500D01*
X171536629Y-123774500D01*
X171536628Y-123774500D01*
X171211463Y-123806525D01*
X171211445Y-123806528D01*
X170891003Y-123870267D01*
X170578329Y-123965116D01*
X170276449Y-124090158D01*
X169988303Y-124244174D01*
X169988285Y-124244185D01*
X169716614Y-124425710D01*
X169464039Y-124632992D01*
X169232992Y-124864039D01*
X169025710Y-125116614D01*
X168844185Y-125388285D01*
X168844174Y-125388303D01*
X168690158Y-125676449D01*
X168565116Y-125978329D01*
X168470267Y-126291003D01*
X168406528Y-126611445D01*
X168406525Y-126611463D01*
X168374500Y-126936628D01*
X167800500Y-126936628D01*
X167800500Y-125102008D01*
X167800632Y-125097986D01*
X167806986Y-125001032D01*
X167816486Y-124856081D01*
X167817535Y-124848118D01*
X167864438Y-124612323D01*
X167866519Y-124604557D01*
X167927229Y-124425712D01*
X167943797Y-124376903D01*
X167946868Y-124369489D01*
X168053211Y-124153846D01*
X168057217Y-124146909D01*
X168190792Y-123946999D01*
X168195674Y-123940637D01*
X168354199Y-123759874D01*
X168359874Y-123754199D01*
X168540637Y-123595674D01*
X168546999Y-123590792D01*
X168746909Y-123457217D01*
X168753846Y-123453211D01*
X168969489Y-123346868D01*
X168976903Y-123343797D01*
X169204562Y-123266517D01*
X169212323Y-123264438D01*
X169448118Y-123217535D01*
X169456081Y-123216486D01*
X169697986Y-123200631D01*
X169702008Y-123200500D01*
X169726929Y-123200500D01*
X245673071Y-123200500D01*
X245697992Y-123200500D01*
X245702013Y-123200631D01*
G37*
%TD.AperFunction*%
%TD*%
M02*
