%TF.GenerationSoftware,KiCad,Pcbnew,9.0.1+1*%
%TF.CreationDate,2025-09-18T10:25:19+00:00*%
%TF.ProjectId,ZSWatch-Dock,5a535761-7463-4682-9d44-6f636b2e6b69,2.2.0*%
%TF.SameCoordinates,Original*%
%TF.FileFunction,Paste,Top*%
%TF.FilePolarity,Positive*%
%FSLAX46Y46*%
G04 Gerber Fmt 4.6, Leading zero omitted, Abs format (unit mm)*
G04 Created by KiCad (PCBNEW 9.0.1+1) date 2025-09-18 10:25:19*
%MOMM*%
%LPD*%
G01*
G04 APERTURE LIST*
G04 Aperture macros list*
%AMRoundRect*
0 Rectangle with rounded corners*
0 $1 Rounding radius*
0 $2 $3 $4 $5 $6 $7 $8 $9 X,Y pos of 4 corners*
0 Add a 4 corners polygon primitive as box body*
4,1,4,$2,$3,$4,$5,$6,$7,$8,$9,$2,$3,0*
0 Add four circle primitives for the rounded corners*
1,1,$1+$1,$2,$3*
1,1,$1+$1,$4,$5*
1,1,$1+$1,$6,$7*
1,1,$1+$1,$8,$9*
0 Add four rect primitives between the rounded corners*
20,1,$1+$1,$2,$3,$4,$5,0*
20,1,$1+$1,$4,$5,$6,$7,0*
20,1,$1+$1,$6,$7,$8,$9,0*
20,1,$1+$1,$8,$9,$2,$3,0*%
G04 Aperture macros list end*
%ADD10RoundRect,0.212500X0.212500X0.212500X-0.212500X0.212500X-0.212500X-0.212500X0.212500X-0.212500X0*%
%ADD11RoundRect,0.075000X0.350000X0.075000X-0.350000X0.075000X-0.350000X-0.075000X0.350000X-0.075000X0*%
%ADD12RoundRect,0.075000X0.075000X0.350000X-0.075000X0.350000X-0.075000X-0.350000X0.075000X-0.350000X0*%
%ADD13RoundRect,0.150000X-0.200000X0.150000X-0.200000X-0.150000X0.200000X-0.150000X0.200000X0.150000X0*%
%ADD14RoundRect,0.200000X0.275000X-0.200000X0.275000X0.200000X-0.275000X0.200000X-0.275000X-0.200000X0*%
%ADD15RoundRect,0.150000X-0.150000X0.512500X-0.150000X-0.512500X0.150000X-0.512500X0.150000X0.512500X0*%
%ADD16RoundRect,0.225000X0.250000X-0.225000X0.250000X0.225000X-0.250000X0.225000X-0.250000X-0.225000X0*%
%ADD17RoundRect,0.225000X-0.225000X-0.250000X0.225000X-0.250000X0.225000X0.250000X-0.225000X0.250000X0*%
%ADD18RoundRect,0.200000X0.200000X0.275000X-0.200000X0.275000X-0.200000X-0.275000X0.200000X-0.275000X0*%
%ADD19R,0.700000X0.300000*%
%ADD20RoundRect,0.250000X0.262500X0.450000X-0.262500X0.450000X-0.262500X-0.450000X0.262500X-0.450000X0*%
%ADD21RoundRect,0.150000X-0.150000X0.825000X-0.150000X-0.825000X0.150000X-0.825000X0.150000X0.825000X0*%
%ADD22RoundRect,0.200000X-0.200000X-0.275000X0.200000X-0.275000X0.200000X0.275000X-0.200000X0.275000X0*%
%ADD23R,1.500000X1.300000*%
%ADD24RoundRect,0.225000X-0.250000X0.225000X-0.250000X-0.225000X0.250000X-0.225000X0.250000X0.225000X0*%
%ADD25RoundRect,0.150000X0.200000X-0.150000X0.200000X0.150000X-0.200000X0.150000X-0.200000X-0.150000X0*%
%ADD26RoundRect,0.200000X-0.275000X0.200000X-0.275000X-0.200000X0.275000X-0.200000X0.275000X0.200000X0*%
%ADD27RoundRect,0.093750X0.156250X0.093750X-0.156250X0.093750X-0.156250X-0.093750X0.156250X-0.093750X0*%
%ADD28RoundRect,0.075000X0.250000X0.075000X-0.250000X0.075000X-0.250000X-0.075000X0.250000X-0.075000X0*%
%ADD29RoundRect,0.150000X0.150000X-0.587500X0.150000X0.587500X-0.150000X0.587500X-0.150000X-0.587500X0*%
%ADD30RoundRect,0.093750X-0.156250X-0.093750X0.156250X-0.093750X0.156250X0.093750X-0.156250X0.093750X0*%
%ADD31RoundRect,0.075000X-0.250000X-0.075000X0.250000X-0.075000X0.250000X0.075000X-0.250000X0.075000X0*%
%ADD32RoundRect,0.225000X0.225000X0.250000X-0.225000X0.250000X-0.225000X-0.250000X0.225000X-0.250000X0*%
%ADD33R,1.200000X1.400000*%
%ADD34RoundRect,0.247500X-0.247500X0.247500X-0.247500X-0.247500X0.247500X-0.247500X0.247500X0.247500X0*%
%ADD35RoundRect,0.062500X-0.062500X0.350000X-0.062500X-0.350000X0.062500X-0.350000X0.062500X0.350000X0*%
%ADD36RoundRect,0.062500X-0.350000X0.062500X-0.350000X-0.062500X0.350000X-0.062500X0.350000X0.062500X0*%
%ADD37RoundRect,0.218750X0.256250X-0.218750X0.256250X0.218750X-0.256250X0.218750X-0.256250X-0.218750X0*%
%ADD38R,1.000000X0.800000*%
%ADD39R,0.700000X1.500000*%
%ADD40R,1.500000X0.250000*%
%ADD41R,1.500000X0.500000*%
%ADD42R,0.740000X2.400000*%
%ADD43RoundRect,0.250000X-0.262500X-0.450000X0.262500X-0.450000X0.262500X0.450000X-0.262500X0.450000X0*%
%ADD44R,0.600000X0.200000*%
%ADD45R,0.150000X0.250000*%
%ADD46R,0.200000X0.600000*%
%ADD47RoundRect,0.150000X0.512500X0.150000X-0.512500X0.150000X-0.512500X-0.150000X0.512500X-0.150000X0*%
G04 APERTURE END LIST*
D10*
%TO.C,IC403*%
X201000000Y-151550000D03*
X201000000Y-150500000D03*
X199950000Y-151550000D03*
X199950000Y-150500000D03*
D11*
X202425000Y-152000000D03*
X202425000Y-151350000D03*
X202425000Y-150700000D03*
X202425000Y-150050000D03*
D12*
X201450000Y-149075000D03*
X200800000Y-149075000D03*
X200150000Y-149075000D03*
X199500000Y-149075000D03*
D11*
X198525000Y-150050000D03*
X198525000Y-150700000D03*
X198525000Y-151350000D03*
X198525000Y-152000000D03*
D12*
X199500000Y-152975000D03*
X200150000Y-152975000D03*
X200800000Y-152975000D03*
X201450000Y-152975000D03*
%TD*%
D13*
%TO.C,D402*%
X202500000Y-127700000D03*
X202500000Y-126300000D03*
%TD*%
D14*
%TO.C,R407*%
X219700000Y-166225000D03*
X219700000Y-164575000D03*
%TD*%
D15*
%TO.C,IC404*%
X227425000Y-134225000D03*
X226475000Y-134225000D03*
X225525000Y-134225000D03*
X225525000Y-136500000D03*
X227425000Y-136500000D03*
%TD*%
D16*
%TO.C,C407*%
X203900000Y-152025000D03*
X203900000Y-150475000D03*
%TD*%
D17*
%TO.C,C414*%
X219850000Y-153000000D03*
X221400000Y-153000000D03*
%TD*%
D18*
%TO.C,R409*%
X242225000Y-142100000D03*
X240575000Y-142100000D03*
%TD*%
D19*
%TO.C,X403*%
X238705000Y-151070000D03*
X238705000Y-150570000D03*
X238705000Y-150070000D03*
X238705000Y-149570000D03*
X238705000Y-149070000D03*
X238705000Y-148570000D03*
X238705000Y-148070000D03*
X238705000Y-147570000D03*
X238705000Y-147070000D03*
X238705000Y-146570000D03*
X238705000Y-146070000D03*
X238705000Y-145570000D03*
X240405000Y-145820000D03*
X240405000Y-146320000D03*
X240405000Y-146820000D03*
X240405000Y-147320000D03*
X240405000Y-147820000D03*
X240405000Y-148320000D03*
X240405000Y-148820000D03*
X240405000Y-149320000D03*
X240405000Y-149820000D03*
X240405000Y-150320000D03*
X240405000Y-150820000D03*
X240405000Y-151320000D03*
%TD*%
D18*
%TO.C,R410*%
X240125000Y-154600000D03*
X238475000Y-154600000D03*
%TD*%
D14*
%TO.C,R421*%
X200700000Y-166225000D03*
X200700000Y-164575000D03*
%TD*%
%TO.C,R413*%
X217300000Y-153125000D03*
X217300000Y-151475000D03*
%TD*%
D16*
%TO.C,C417*%
X223125000Y-142275000D03*
X223125000Y-140725000D03*
%TD*%
D20*
%TO.C,R418*%
X181112500Y-133100000D03*
X179287500Y-133100000D03*
%TD*%
D18*
%TO.C,R416*%
X177800000Y-150200000D03*
X176150000Y-150200000D03*
%TD*%
D21*
%TO.C,IC409*%
X235405000Y-139750000D03*
X234135000Y-139750000D03*
X232865000Y-139750000D03*
X231595000Y-139750000D03*
X231595000Y-144700000D03*
X232865000Y-144700000D03*
X234135000Y-144700000D03*
X235405000Y-144700000D03*
%TD*%
D16*
%TO.C,C408*%
X223925000Y-136575000D03*
X223925000Y-135025000D03*
%TD*%
D22*
%TO.C,R420*%
X184275000Y-134000000D03*
X185925000Y-134000000D03*
%TD*%
D23*
%TO.C,S401*%
X179850000Y-163700000D03*
X179850000Y-168200000D03*
X187800000Y-163700000D03*
X187800000Y-168200000D03*
%TD*%
D22*
%TO.C,R402*%
X200675000Y-130125000D03*
X202325000Y-130125000D03*
%TD*%
D24*
%TO.C,C415*%
X213625000Y-147925000D03*
X213625000Y-149475000D03*
%TD*%
D25*
%TO.C,D401*%
X201000000Y-126300000D03*
X201000000Y-127700000D03*
%TD*%
D26*
%TO.C,R419*%
X230000000Y-139775000D03*
X230000000Y-141425000D03*
%TD*%
D27*
%TO.C,IC408*%
X177829999Y-148875000D03*
D28*
X177904999Y-148337500D03*
D27*
X177829999Y-147800000D03*
X176129999Y-147800000D03*
D28*
X176054999Y-148337500D03*
D27*
X176129999Y-148875000D03*
%TD*%
D29*
%TO.C,Q401*%
X184250000Y-132175000D03*
X186150000Y-132175000D03*
X185200000Y-130300000D03*
%TD*%
D16*
%TO.C,C418*%
X212175000Y-145700000D03*
X212175000Y-144150000D03*
%TD*%
D30*
%TO.C,IC402*%
X197550000Y-130125000D03*
D31*
X197475000Y-130662500D03*
D30*
X197550000Y-131200000D03*
X199250000Y-131200000D03*
D31*
X199325000Y-130662500D03*
D30*
X199250000Y-130125000D03*
%TD*%
D26*
%TO.C,R404*%
X197000000Y-147500000D03*
X197000000Y-149150000D03*
%TD*%
%TO.C,R412*%
X213700000Y-143475000D03*
X213700000Y-145125000D03*
%TD*%
D32*
%TO.C,C409*%
X190400000Y-127200000D03*
X188850000Y-127200000D03*
%TD*%
D30*
%TO.C,IC406*%
X234950000Y-147925000D03*
D31*
X234875000Y-148462500D03*
D30*
X234950000Y-149000000D03*
X236650000Y-149000000D03*
D31*
X236725000Y-148462500D03*
D30*
X236650000Y-147925000D03*
%TD*%
D26*
%TO.C,R401*%
X178125000Y-163525000D03*
X178125000Y-165175000D03*
%TD*%
D33*
%TO.C,Y401*%
X225800000Y-143525000D03*
X225800000Y-145725000D03*
X227500000Y-145725000D03*
X227500000Y-143525000D03*
%TD*%
D16*
%TO.C,C419*%
X237000000Y-145150000D03*
X237000000Y-143600000D03*
%TD*%
D24*
%TO.C,C401*%
X178125000Y-166675000D03*
X178125000Y-168225000D03*
%TD*%
D34*
%TO.C,IC407*%
X219392500Y-145870000D03*
X218162500Y-145870000D03*
X216932500Y-145870000D03*
X219392500Y-147100000D03*
X218162500Y-147100000D03*
X216932500Y-147100000D03*
X219392500Y-148330000D03*
X218162500Y-148330000D03*
X216932500Y-148330000D03*
D35*
X220162500Y-144162500D03*
X219662500Y-144162500D03*
X219162500Y-144162500D03*
X218662500Y-144162500D03*
X218162500Y-144162500D03*
X217662500Y-144162500D03*
X217162500Y-144162500D03*
X216662500Y-144162500D03*
X216162500Y-144162500D03*
D36*
X215225000Y-145100000D03*
X215225000Y-145600000D03*
X215225000Y-146100000D03*
X215225000Y-146600000D03*
X215225000Y-147100000D03*
X215225000Y-147600000D03*
X215225000Y-148100000D03*
X215225000Y-148600000D03*
X215225000Y-149100000D03*
D35*
X216162500Y-150037500D03*
X216662500Y-150037500D03*
X217162500Y-150037500D03*
X217662500Y-150037500D03*
X218162500Y-150037500D03*
X218662500Y-150037500D03*
X219162500Y-150037500D03*
X219662500Y-150037500D03*
X220162500Y-150037500D03*
D36*
X221100000Y-149100000D03*
X221100000Y-148600000D03*
X221100000Y-148100000D03*
X221100000Y-147600000D03*
X221100000Y-147100000D03*
X221100000Y-146600000D03*
X221100000Y-146100000D03*
X221100000Y-145600000D03*
X221100000Y-145100000D03*
%TD*%
D32*
%TO.C,C410*%
X227400000Y-138200000D03*
X225850000Y-138200000D03*
%TD*%
D37*
%TO.C,D404*%
X200700000Y-169187500D03*
X200700000Y-167612500D03*
%TD*%
D38*
%TO.C,SW401*%
X190450000Y-166190000D03*
X190450000Y-168400000D03*
X197750000Y-166190000D03*
X197750000Y-168400000D03*
D39*
X191850000Y-165540000D03*
X194850000Y-165540000D03*
X196350000Y-165540000D03*
%TD*%
D22*
%TO.C,R408*%
X222500000Y-150000000D03*
X224150000Y-150000000D03*
%TD*%
D32*
%TO.C,C411*%
X227400000Y-139700000D03*
X225850000Y-139700000D03*
%TD*%
D40*
%TO.C,X404*%
X168650000Y-151070000D03*
X168650000Y-150570000D03*
X168650000Y-150070000D03*
X168650000Y-149570000D03*
X168650000Y-149070000D03*
X168650000Y-148570000D03*
X168650000Y-148070000D03*
X168650000Y-147570000D03*
X168650000Y-147070000D03*
X168650000Y-146570000D03*
X168650000Y-146070000D03*
X168650000Y-145570000D03*
D41*
X168650000Y-144945000D03*
%TD*%
D17*
%TO.C,C416*%
X215250000Y-142725000D03*
X216800000Y-142725000D03*
%TD*%
D24*
%TO.C,C413*%
X229200000Y-143850000D03*
X229200000Y-145400000D03*
%TD*%
D42*
%TO.C,X401*%
X210180000Y-126500000D03*
X210180000Y-130400000D03*
X208910000Y-126500000D03*
X208910000Y-130400000D03*
X207640000Y-126500000D03*
X207640000Y-130400000D03*
X206370000Y-126500000D03*
X206370000Y-130400000D03*
X205100000Y-126500000D03*
X205100000Y-130400000D03*
%TD*%
D18*
%TO.C,R414*%
X221425000Y-151500000D03*
X219775000Y-151500000D03*
%TD*%
D43*
%TO.C,R405*%
X190200000Y-125200000D03*
X192025000Y-125200000D03*
%TD*%
D44*
%TO.C,IC405*%
X191637500Y-127842500D03*
D45*
X191862500Y-127667500D03*
D44*
X191637500Y-128242500D03*
X191637500Y-128642500D03*
X191637500Y-129042500D03*
X191637500Y-129442500D03*
D46*
X192287500Y-129442500D03*
D44*
X192937500Y-129442500D03*
X192937500Y-129042500D03*
X192937500Y-128642500D03*
X192937500Y-128242500D03*
X192937500Y-127842500D03*
D46*
X192287500Y-127842500D03*
%TD*%
D37*
%TO.C,D403*%
X219700000Y-169187500D03*
X219700000Y-167612500D03*
%TD*%
D22*
%TO.C,R415*%
X176150000Y-146500000D03*
X177800000Y-146500000D03*
%TD*%
D17*
%TO.C,C406*%
X194200000Y-127200000D03*
X195750000Y-127200000D03*
%TD*%
D16*
%TO.C,C403*%
X195500000Y-149100000D03*
X195500000Y-147550000D03*
%TD*%
D14*
%TO.C,R417*%
X221600000Y-142325000D03*
X221600000Y-140675000D03*
%TD*%
D32*
%TO.C,C405*%
X196975000Y-150700000D03*
X195425000Y-150700000D03*
%TD*%
D22*
%TO.C,R403*%
X200675000Y-131700000D03*
X202325000Y-131700000D03*
%TD*%
D16*
%TO.C,C404*%
X198600000Y-147650000D03*
X198600000Y-146100000D03*
%TD*%
D32*
%TO.C,C412*%
X227375000Y-141725000D03*
X225825000Y-141725000D03*
%TD*%
D16*
%TO.C,C402*%
X217450000Y-136725000D03*
X217450000Y-135175000D03*
%TD*%
D47*
%TO.C,IC401*%
X221487500Y-136675000D03*
X221487500Y-135725000D03*
X221487500Y-134775000D03*
X219212500Y-134775000D03*
X219212500Y-136675000D03*
%TD*%
M02*
